<?xml version="1.0" standalone="no"?>
<!DOCTYPE svg PUBLIC "-//W3C//DTD SVG 1.1//EN" "http://www.w3.org/Graphics/SVG/1.1/DTD/svg11.dtd" >
<svg xmlns="http://www.w3.org/2000/svg" xmlns:xlink="http://www.w3.org/1999/xlink" version="1.1">
<metadata>
Created by FontForge 20170731 at Tue Mar 27 11:14:24 2018
 By Aleksey,,,
Copyright (c) 2018 Monotype Imaging Inc. All rights reserved.
</metadata>
<defs>
<font id="NeuePlakText-Black" horiz-adv-x="0" >
  <font-face 
    font-family="Neue Plak Text Black"
    font-weight="900"
    font-stretch="normal"
    units-per-em="1000"
    panose-1="2 11 10 4 3 2 2 2 2 4"
    ascent="800"
    descent="-200"
    x-height="499"
    cap-height="706"
    bbox="-808 -249 1113 1194"
    underline-thickness="50"
    underline-position="-200"
    unicode-range="U+000D-FEFF"
  />
<missing-glyph horiz-adv-x="714" 
d="M64 0v706h586v-706h-586zM236 144h242v418h-242v-418z" />
    <glyph glyph-name=".notdef" horiz-adv-x="714" 
d="M64 0v706h586v-706h-586zM236 144h242v418h-242v-418z" />
    <glyph glyph-name=".null" 
 />
    <glyph glyph-name="nonmarkingreturn" horiz-adv-x="333" 
 />
    <glyph glyph-name="NULL" 
 />
    <glyph glyph-name="NULL" 
 />
    <glyph glyph-name="CR" unicode="&#xd;" horiz-adv-x="185" 
 />
    <glyph glyph-name="space" unicode=" " horiz-adv-x="185" 
 />
    <glyph glyph-name="exclam" unicode="!" horiz-adv-x="326" 
d="M99 227l-23 479h174l-24 -479h-127zM163 -18q-43 0 -70.5 27t-27.5 70q0 42 27.5 69t70.5 27t70.5 -27t27.5 -69q0 -43 -27.5 -70t-70.5 -27z" />
    <glyph glyph-name="quotedbl" unicode="&#x22;" horiz-adv-x="556" 
d="M110 424l-21 282h158l-22 -282h-115zM331 424l-21 282h157l-21 -282h-115z" />
    <glyph glyph-name="numbersign" unicode="#" horiz-adv-x="723" 
d="M692 420h-104l-23 -134h104l-22 -132h-103l-29 -172h-141l28 172h-131l-28 -172h-140l28 172h-103l21 132h104l21 134h-102l22 132h102l28 172h140l-28 -172h131l28 172h143l-29 -172h104zM424 286l21 134h-131l-21 -134h131z" />
    <glyph glyph-name="dollar" unicode="$" horiz-adv-x="634" 
d="M600 210q0 -97 -66 -158t-186 -69v-72h-67v72q-124 8 -186 71t-62 163h181q0 -89 71 -104v183q-11 3 -58 17q-90 28 -134.5 72.5t-44.5 123.5q0 88 61.5 146.5t172.5 67.5v72h66v-72q113 -7 170.5 -66t57.5 -157h-165q0 81 -67 97v-162q23 -6 51 -14q105 -33 155 -79
t50 -132zM211 530q0 -50 74 -77v147q-34 -5 -54 -23.5t-20 -46.5zM343 110q80 9 80 79q0 59 -80 88v-167z" />
    <glyph glyph-name="percent" unicode="%" horiz-adv-x="780" 
d="M185 389q-150 0 -150 163q0 75 36 119t114 44q148 0 148 -163t-148 -163zM97 0l474 706h112l-474 -706h-112zM185 476q29 0 38 18t9 58q0 41 -9.5 58.5t-37.5 17.5q-30 0 -38.5 -18t-8.5 -58q0 -27 2.5 -41t13 -24.5t31.5 -10.5zM596 -8q-150 0 -150 164q0 75 36 118.5
t114 43.5q148 0 148 -162q0 -164 -148 -164zM596 80q29 0 38 18t9 58q0 41 -9.5 58.5t-37.5 17.5q-30 0 -38.5 -18.5t-8.5 -57.5q0 -28 2.5 -42t13 -24t31.5 -10z" />
    <glyph glyph-name="ampersand" unicode="&#x26;" horiz-adv-x="679" 
d="M645 138v-138q-99 0 -171 44q-76 -57 -192 -57q-121 0 -182.5 53.5t-61.5 137.5q0 70 41.5 120.5t114.5 96.5q-63 97 -63 167q0 74 52 118t159 44q96 0 153 -37.5t57 -116.5q0 -31 -13.5 -59t-41.5 -53.5t-52 -42.5t-64 -42l91 -133q21 37 52 107l117 -47
q-32 -83 -71 -147q38 -15 75 -15zM278 568q0 -37 39 -100q88 55 88 108q0 25 -15.5 39.5t-44.5 14.5q-32 0 -49.5 -16.5t-17.5 -45.5zM206 191q0 -38 26 -60t72 -22q43 0 76 21l-11 15l-106 148q-57 -49 -57 -102z" />
    <glyph glyph-name="quotesingle" unicode="'" horiz-adv-x="335" 
d="M110 424l-21 282h158l-22 -282h-115z" />
    <glyph glyph-name="parenleft" unicode="(" horiz-adv-x="425" 
d="M240 -201q-68 128 -102 250t-34 273q0 144 34 259t102 237h140q-138 -239 -138 -496q0 -271 138 -523h-140z" />
    <glyph glyph-name="parenright" unicode=")" horiz-adv-x="425" 
d="M185 -201h-140q138 252 138 523q0 257 -138 496h140q68 -122 102 -237t34 -259q0 -151 -34 -273t-102 -250z" />
    <glyph glyph-name="asterisk" unicode="*" horiz-adv-x="384" 
d="M142 389l-86 62l83 80l-114 15l33 101l102 -55l-21 114h106l-21 -114l101 55l34 -101l-115 -15l83 -80l-86 -62l-49 105z" />
    <glyph glyph-name="plus" unicode="+" horiz-adv-x="593" 
d="M537 355v-122h-178v-181h-126v181h-177v122h177v182h126v-182h178z" />
    <glyph glyph-name="comma" unicode="," horiz-adv-x="336" 
d="M47 -176l66 337h150l-102 -337h-114z" />
    <glyph glyph-name="hyphen" unicode="-" horiz-adv-x="410" 
d="M56 228v132h298v-132h-298z" />
    <glyph glyph-name="period" unicode="." horiz-adv-x="326" 
d="M163 -18q-43 0 -70.5 27t-27.5 70q0 42 27.5 69t70.5 27t70.5 -27t27.5 -69q0 -43 -27.5 -70t-70.5 -27z" />
    <glyph glyph-name="slash" unicode="/" horiz-adv-x="515" 
d="M28 -50l304 774h155l-303 -774h-156z" />
    <glyph glyph-name="zero" unicode="0" horiz-adv-x="600" 
d="M300 -18q-277 0 -277 371t277 371t277 -371t-277 -371zM300 125q25 0 43 7t29 24t17.5 33.5t9.5 47t3.5 53t0.5 63.5q0 36 -0.5 56t-2.5 48t-6 43t-11 33t-18 27t-27.5 15t-37.5 6t-37.5 -6.5t-27 -15.5t-18 -27.5t-11.5 -33.5t-5.5 -43.5t-2 -47t-0.5 -54.5
q0 -42 0.5 -64.5t3.5 -53.5t9.5 -47t17.5 -32.5t29 -23.5t42 -7z" />
    <glyph glyph-name="one" unicode="1" horiz-adv-x="600" 
d="M249 0v557h-149l31 149h280v-706h-162z" />
    <glyph glyph-name="two" unicode="2" horiz-adv-x="600" 
d="M18 0v3l285 342q45 52 63.5 85.5t18.5 67.5q0 39 -22.5 63t-68.5 24q-99 0 -99 -127h-159q0 124 64 195t198 71q126 0 192 -62.5t66 -166.5q0 -51 -17 -91.5t-59 -87.5q-71 -78 -169 -173h253v-143h-546z" />
    <glyph glyph-name="three" unicode="3" horiz-adv-x="600" 
d="M434 371q132 -35 132 -173q0 -98 -65.5 -157t-196.5 -59q-148 0 -208.5 70t-60.5 207h156q0 -68 23 -105t82 -37q100 0 100 102q0 95 -125 95h-22v110h21q116 0 116 86q0 91 -90 91q-95 0 -95 -101h-155q0 108 67 166t192 58q120 0 182.5 -55.5t62.5 -143.5
q0 -115 -116 -154z" />
    <glyph glyph-name="four" unicode="4" horiz-adv-x="600" 
d="M591 283v-137h-84v-146h-163v146h-349v3l225 557h287v-423h84zM202 283h142v368h-1z" />
    <glyph glyph-name="five" unicode="5" horiz-adv-x="600" 
d="M303 -18q-148 0 -211 70.5t-63 199.5h159q0 -66 23.5 -101t81.5 -35q103 0 103 110q0 72 -49 104t-150 32q-73 0 -134 -11l59 355h419l-30 -140h-258l-19 -110q40 10 88 10q121 0 182.5 -66t61.5 -173q0 -110 -66 -177.5t-197 -67.5z" />
    <glyph glyph-name="six" unicode="6" horiz-adv-x="600" 
d="M363 467q107 0 161 -63.5t54 -165.5q0 -114 -68.5 -185t-194.5 -71q-64 0 -114.5 19.5t-82.5 52t-53 79.5t-29.5 99t-8.5 113q0 80 14.5 145.5t46.5 119.5t90 84t138 30q108 0 172.5 -53.5t79.5 -152.5h-156q-17 80 -95 80q-129 0 -129 -216v-2q54 87 175 87zM312 114
q52 0 76 34t24 84q0 54 -24.5 86t-74.5 32q-52 0 -77 -33.5t-25 -85.5t25.5 -84.5t75.5 -32.5z" />
    <glyph glyph-name="seven" unicode="7" horiz-adv-x="600" 
d="M101 0l248 557h-308v149h549l-305 -706h-184z" />
    <glyph glyph-name="eight" unicode="8" horiz-adv-x="600" 
d="M449 382q68 -19 101 -68t33 -113q0 -101 -73 -160t-210 -59q-138 0 -210 59.5t-72 159.5q0 66 34 114.5t101 66.5q-56 15 -87 57t-31 97q0 87 70 137.5t195 50.5t195 -50t70 -138q0 -57 -30.5 -98t-85.5 -56zM300 615q-50 0 -75 -25t-25 -67q0 -44 26 -68.5t74 -24.5
q50 0 75.5 26t25.5 67q0 42 -25.5 67t-75.5 25zM300 106q55 0 83 28t28 74t-28.5 75.5t-82.5 29.5q-53 0 -81.5 -29t-28.5 -75q0 -48 28 -75.5t82 -27.5z" />
    <glyph glyph-name="nine" unicode="9" horiz-adv-x="600" 
d="M285 724q64 0 114.5 -19.5t82.5 -52t53 -79.5t29.5 -99t8.5 -113q0 -80 -14.5 -145.5t-46.5 -119.5t-90 -84t-138 -30q-108 0 -172.5 53.5t-79.5 152.5h156q17 -80 95 -80q129 0 129 216v2q-54 -87 -175 -87q-107 0 -161 63.5t-54 165.5q0 114 68.5 185t194.5 71z
M287 356q52 0 77 33.5t25 85.5t-25.5 84.5t-75.5 32.5q-52 0 -76 -34t-24 -84q0 -54 24.5 -86t74.5 -32z" />
    <glyph glyph-name="colon" unicode=":" horiz-adv-x="326" 
d="M163 316q-43 0 -70.5 27t-27.5 70q0 42 27.5 69t70.5 27t70.5 -27t27.5 -69q0 -43 -27.5 -70t-70.5 -27zM163 -18q-43 0 -70.5 27t-27.5 70q0 42 27.5 69t70.5 27t70.5 -27t27.5 -69q0 -43 -27.5 -70t-70.5 -27z" />
    <glyph glyph-name="semicolon" unicode=";" horiz-adv-x="368" 
d="M205 316q-43 0 -70.5 27t-27.5 70q0 42 27.5 69t70.5 27t71 -27t28 -69q0 -43 -27.5 -70t-71.5 -27zM47 -176l66 337h150l-102 -337h-114z" />
    <glyph glyph-name="less" unicode="&#x3c;" horiz-adv-x="593" 
d="M537 511v-126l-359 -91l359 -91v-126l-481 131v173z" />
    <glyph glyph-name="equal" unicode="=" horiz-adv-x="593" 
d="M56 333v122h481v-122h-481zM56 133v122h481v-122h-481z" />
    <glyph glyph-name="greater" unicode="&#x3e;" horiz-adv-x="593" 
d="M56 511l481 -130v-173l-481 -131v126l359 91l-359 91v126z" />
    <glyph glyph-name="question" unicode="?" horiz-adv-x="537" 
d="M172 227q104 170 131 222.5t27 87.5q0 64 -69 64q-43 0 -57 -21.5t-14 -61.5h-155q0 206 234 206q108 0 169 -47.5t61 -133.5q0 -45 -27 -100.5t-125 -215.5h-175zM254 -18q-43 0 -70.5 27t-27.5 70q0 42 27.5 69t70.5 27t71 -27t28 -69q0 -43 -27.5 -70t-71.5 -27z" />
    <glyph glyph-name="at" unicode="@" horiz-adv-x="849" 
d="M432 690q184 0 279.5 -96.5t95.5 -253.5q0 -280 -257 -280h-59v54q-46 -57 -134 -57q-71 0 -107 36.5t-36 95.5q0 72 49 105.5t166 33.5h57v24q0 35 -12 50t-47 15q-34 0 -46.5 -14t-12.5 -41h-139q-3 72 49.5 111t151.5 39q109 0 150 -43t41 -134v-194q59 15 84.5 69.5
t25.5 125.5q0 132 -76 210.5t-226 78.5q-83 0 -144.5 -25.5t-97 -72t-52 -104.5t-16.5 -129q0 -158 81.5 -248.5t252.5 -90.5q40 0 85 5v-67q-40 -6 -87 -6q-106 0 -186.5 31t-128 86.5t-71 127t-23.5 157.5q0 83 22.5 153.5t67.5 127t122 88.5t178 32zM487 248v8h-47
q-43 0 -62.5 -11t-19.5 -39q0 -50 56 -50q46 0 59.5 22t13.5 70z" />
    <glyph glyph-name="A" unicode="A" horiz-adv-x="699" 
d="M521 0l-40 137h-263l-40 -137h-173l219 706h251l219 -706h-173zM255 264h189l-94 319h-2z" />
    <glyph glyph-name="B" unicode="B" horiz-adv-x="632" 
d="M462 378q139 -44 139 -179q0 -93 -59.5 -146t-175.5 -53h-289v706h291q104 0 156.5 -48.5t52.5 -125.5q0 -121 -115 -154zM243 591v-165h57q101 0 101 84q0 81 -103 81h-55zM298 117q122 0 122 92q0 98 -119 98h-58v-190h55z" />
    <glyph glyph-name="C" unicode="C" horiz-adv-x="722" 
d="M377 -18q-87 0 -152.5 29t-104.5 80.5t-58.5 117.5t-19.5 144t19 143.5t58 117.5t104.5 81t152.5 29q134 0 218.5 -77.5t87.5 -203.5h-177q-2 65 -37.5 102t-98.5 37q-36 0 -63.5 -12.5t-43.5 -32.5t-26 -50.5t-13.5 -61.5t-3.5 -71q0 -110 32 -169.5t119 -59.5
q132 0 138 132h177q-1 -123 -89 -199t-219 -76z" />
    <glyph glyph-name="D" unicode="D" horiz-adv-x="724" 
d="M77 0v706h274q88 0 153 -26.5t103 -75.5t56 -111.5t18 -139.5q0 -162 -79.5 -257.5t-250.5 -95.5h-274zM243 135h79q104 0 143.5 56.5t39.5 161.5t-39.5 161.5t-143.5 56.5h-79v-436z" />
    <glyph glyph-name="E" unicode="E" horiz-adv-x="571" 
d="M77 0v706h439v-135h-273v-145h270v-136h-270v-155h273v-135h-439z" />
    <glyph glyph-name="F" unicode="F" horiz-adv-x="536" 
d="M77 0v706h416v-135h-250v-145h248v-136h-248v-290h-166z" />
    <glyph glyph-name="G" unicode="G" horiz-adv-x="725" 
d="M375 385h308v-52q0 -73 -17 -134t-52 -111t-95.5 -78t-142.5 -28q-169 0 -251.5 104t-82.5 267q0 78 19.5 144t58.5 117.5t105 80.5t153 29q128 0 210.5 -71.5t89.5 -190.5h-167q-6 59 -41.5 89.5t-95.5 30.5q-47 0 -79 -17.5t-48 -50.5t-22 -71t-6 -90q0 -55 6.5 -93.5
t23.5 -71t49.5 -48.5t81.5 -16q136 0 143 142h-148v119z" />
    <glyph glyph-name="H" unicode="H" horiz-adv-x="734" 
d="M77 0v706h166v-279h248v279h166v-706h-166v287h-248v-287h-166z" />
    <glyph glyph-name="I" unicode="I" horiz-adv-x="320" 
d="M77 0v706h166v-706h-166z" />
    <glyph glyph-name="J" unicode="J" horiz-adv-x="389" 
d="M82 -3q-34 0 -62 4v150q16 -3 39 -3q57 0 79.5 24.5t22.5 87.5v446h166v-468q0 -123 -58 -182t-187 -59z" />
    <glyph glyph-name="K" unicode="K" horiz-adv-x="691" 
d="M685 0h-204l-238 320v-320h-166v706h166v-260l205 260h195l-256 -316z" />
    <glyph glyph-name="L" unicode="L" horiz-adv-x="487" 
d="M77 0v706h166v-561h223v-145h-389z" />
    <glyph glyph-name="M" unicode="M" horiz-adv-x="901" 
d="M77 0v706h194l180 -437l181 437h192v-706h-157v441l-180 -441h-73l-181 441v-441h-156z" />
    <glyph glyph-name="N" unicode="N" horiz-adv-x="753" 
d="M77 0v706h164l274 -446v446h162v-706h-166l-273 447v-447h-161z" />
    <glyph glyph-name="O" unicode="O" horiz-adv-x="754" 
d="M377 -18q-87 0 -153.5 29.5t-105 82t-57.5 117.5t-19 142q0 78 19.5 143.5t58.5 117.5t104.5 81t152.5 29t153.5 -29.5t105 -81.5t57.5 -117t19 -143t-19 -144t-58 -117.5t-105 -80.5t-153 -29zM377 124q158 0 158 229t-158 229q-48 0 -80.5 -18.5t-48.5 -52.5
t-22.5 -71.5t-6.5 -86.5q0 -39 4 -70.5t14.5 -62t27.5 -51t45.5 -33t66.5 -12.5z" />
    <glyph glyph-name="P" unicode="P" horiz-adv-x="613" 
d="M77 0v706h286q122 0 175.5 -54.5t53.5 -155.5q0 -221 -229 -221h-120v-275h-166zM243 400h71q56 0 81.5 22t25.5 70q0 47 -25.5 68t-81.5 21h-71v-181z" />
    <glyph glyph-name="Q" unicode="Q" horiz-adv-x="754" 
d="M712 353q0 -221 -134 -315l81 -121l-120 -75l-89 146q-34 -6 -73 -6q-87 0 -153.5 29.5t-105 82t-57.5 117.5t-19 142q0 78 19.5 143.5t58.5 117.5t104.5 81t152.5 29t153.5 -29.5t105 -81.5t57.5 -117t19 -143zM219 353q0 -48 6.5 -85.5t22 -70.5t45.5 -52t74 -21
l-30 49l105 68l47 -70q46 55 46 182q0 229 -158 229q-48 0 -80.5 -18.5t-48.5 -52.5t-22.5 -71.5t-6.5 -86.5z" />
    <glyph glyph-name="R" unicode="R" horiz-adv-x="660" 
d="M465 0l-183 277h-39v-277h-166v706h291q230 0 230 -207q0 -172 -141 -211l193 -288h-185zM243 581v-186h75q58 0 83.5 24t25.5 75q0 48 -26 67.5t-83 19.5h-75z" />
    <glyph glyph-name="S" unicode="S" horiz-adv-x="628" 
d="M313 -18q-142 0 -212.5 64.5t-70.5 170.5h185q0 -51 22.5 -79t78.5 -28q48 0 73 21.5t25 57.5q0 41 -37 63t-152 60q-90 30 -134.5 75t-44.5 121q0 97 69 156.5t194 59.5q126 0 191 -61t65 -164h-173q0 48 -19.5 75t-69.5 27q-42 0 -64.5 -19.5t-22.5 -50.5
q0 -37 36 -56.5t139 -50.5q108 -32 157 -77.5t49 -132.5q0 -109 -73.5 -170.5t-210.5 -61.5z" />
    <glyph glyph-name="T" unicode="T" horiz-adv-x="559" 
d="M197 0v571h-177v135h519v-135h-176v-571h-166z" />
    <glyph glyph-name="U" unicode="U" horiz-adv-x="690" 
d="M344 -18q-145 0 -214 66.5t-69 198.5v459h167v-447q0 -68 25.5 -101t90.5 -33q66 0 92 33t26 101v447h166v-459q0 -132 -69.5 -198.5t-214.5 -66.5z" />
    <glyph glyph-name="V" unicode="V" horiz-adv-x="681" 
d="M503 706h173l-252 -706h-166l-253 706h176l160 -500z" />
    <glyph glyph-name="W" unicode="W" horiz-adv-x="943" 
d="M774 706h164l-186 -706h-173l-107 474l-107 -474h-172l-188 706h164l113 -465l104 465h174l102 -463z" />
    <glyph glyph-name="X" unicode="X" horiz-adv-x="715" 
d="M5 0l253 380l-222 326h194l129 -203l129 203h193l-220 -330l249 -376h-195l-156 245l-157 -245h-197z" />
    <glyph glyph-name="Y" unicode="Y" horiz-adv-x="612" 
d="M223 0v303l-218 403h180l122 -241l122 241h178l-218 -403v-303h-166z" />
    <glyph glyph-name="Z" unicode="Z" horiz-adv-x="614" 
d="M22 0l291 567h-274v139h529l-289 -567h303v-139h-560z" />
    <glyph glyph-name="bracketleft" unicode="[" horiz-adv-x="394" 
d="M130 -201v1019h237v-120h-103v-779h103v-120h-237z" />
    <glyph glyph-name="backslash" unicode="\" horiz-adv-x="515" 
d="M487 -50h-156l-303 774h155z" />
    <glyph glyph-name="bracketright" unicode="]" horiz-adv-x="394" 
d="M264 -201h-237v120h103v779h-103v120h237v-1019z" />
    <glyph glyph-name="asciicircum" unicode="^" horiz-adv-x="539" 
d="M499 375h-155l-74 205l-74 -205h-156l128 331h202z" />
    <glyph glyph-name="underscore" unicode="_" horiz-adv-x="390" 
d="M0 -193v133h390v-133h-390z" />
    <glyph glyph-name="grave" unicode="`" horiz-adv-x="342" 
d="M292 570h-138l-104 157h154z" />
    <glyph glyph-name="a" unicode="a" horiz-adv-x="579" 
d="M285 513q130 0 182.5 -55t52.5 -168v-290h-159v58q-48 -71 -157 -71q-85 0 -128.5 41.5t-43.5 113.5q0 90 64 126.5t192 36.5h73v9q0 47 -15.5 68t-58.5 21q-75 0 -75 -64h-162q0 84 61 129t174 45zM269 103q92 0 92 105v5h-61q-53 0 -76.5 -12.5t-23.5 -43.5
q0 -54 69 -54z" />
    <glyph glyph-name="b" unicode="b" horiz-adv-x="607" 
d="M361 513q107 0 159 -74.5t52 -189.5q0 -114 -52 -188t-159 -74q-97 0 -145 72v-59h-152v706h156v-259q48 66 141 66zM310 119q56 0 76 34.5t20 95.5q0 64 -21 98.5t-75 34.5q-92 0 -92 -115v-34q0 -114 92 -114z" />
    <glyph glyph-name="c" unicode="c" horiz-adv-x="572" 
d="M290 -13q-126 0 -190.5 73.5t-64.5 188.5q0 117 65 190.5t190 73.5q107 0 175 -54t72 -150h-173q-2 35 -21.5 54t-52.5 19q-88 0 -88 -133q0 -130 88 -130q34 0 53.5 21t20.5 52h173q-4 -97 -72.5 -151t-174.5 -54z" />
    <glyph glyph-name="d" unicode="d" horiz-adv-x="608" 
d="M387 706h157v-706h-153v58q-50 -71 -145 -71q-107 0 -159 74t-52 188q0 115 52 189.5t159 74.5q92 0 141 -65v258zM389 233v34q0 115 -91 115q-54 0 -75 -34.5t-21 -98.5q0 -61 20 -95.5t76 -34.5q91 0 91 114z" />
    <glyph glyph-name="e" unicode="e" horiz-adv-x="582" 
d="M296 106q65 0 83 48h161q-11 -79 -77.5 -123t-162.5 -44q-134 0 -199.5 72t-65.5 192q0 116 64 189t189 73q85 0 145.5 -35t87.5 -98q25 -58 25 -169h-348q3 -53 24 -79t74 -26zM291 399q-43 0 -64.5 -23.5t-26.5 -71.5h182q-5 48 -26 71.5t-65 23.5z" />
    <glyph glyph-name="f" unicode="f" horiz-adv-x="354" 
d="M74 0v375h-58v124h58v49q0 92 44.5 133.5t144.5 41.5q43 0 75 -8v-127q-23 7 -45 7q-62 0 -62 -65v-31h104v-124h-104v-375h-157z" />
    <glyph glyph-name="g" unicode="g" horiz-adv-x="607" 
d="M391 499h153v-475q0 -238 -250 -238q-103 0 -169 39t-78 116h166q17 -38 79 -38q99 0 99 104v65q-51 -79 -153 -79q-103 0 -153 74t-50 188t50 186t153 72q102 0 153 -79v65zM389 233v35q0 114 -94 114q-54 0 -73.5 -34t-19.5 -95q0 -62 20 -97.5t74 -35.5q93 0 93 113z
" />
    <glyph glyph-name="h" unicode="h" horiz-adv-x="592" 
d="M366 513q80 0 123 -48t43 -138v-327h-157v292q0 47 -18 68.5t-57 21.5q-80 0 -80 -94v-288h-156v706h156v-267q51 74 146 74z" />
    <glyph glyph-name="i" unicode="i" horiz-adv-x="284" 
d="M142 570q-37 0 -61.5 23.5t-24.5 58.5t24.5 59t61.5 24q36 0 61 -24t25 -59q0 -34 -25 -58t-61 -24zM64 0v499h156v-499h-156z" />
    <glyph glyph-name="j" unicode="j" horiz-adv-x="284" 
d="M142 570q-37 0 -61.5 23.5t-24.5 58.5t24.5 59t61.5 24q36 0 61 -24t25 -59q0 -34 -25 -58t-61 -24zM51 -204q-46 0 -67 3v136q12 -2 32 -2q48 0 48 50v516h156v-534q0 -89 -40 -129t-129 -40z" />
    <glyph glyph-name="k" unicode="k" horiz-adv-x="558" 
d="M573 0h-203l-150 209v-209h-156v706h156v-371l134 164h196l-194 -226z" />
    <glyph glyph-name="l" unicode="l" horiz-adv-x="284" 
d="M64 0v706h156v-706h-156z" />
    <glyph glyph-name="m" unicode="m" horiz-adv-x="885" 
d="M664 513q80 0 120.5 -48.5t40.5 -140.5v-324h-157v290q0 92 -70 92q-75 0 -75 -97v-285h-157v290q0 92 -72 92q-74 0 -74 -97v-285h-156v499h156v-58q49 72 146 72q110 0 143 -82q50 82 155 82z" />
    <glyph glyph-name="n" unicode="n" horiz-adv-x="592" 
d="M366 513q80 0 123 -48t43 -138v-327h-157v292q0 47 -18 68.5t-57 21.5q-80 0 -80 -94v-288h-156v499h156v-60q51 74 146 74z" />
    <glyph glyph-name="o" unicode="o" horiz-adv-x="588" 
d="M294 -13q-128 0 -193.5 74.5t-65.5 189.5q0 116 66 189t193 73q129 0 194 -73.5t65 -188.5q0 -117 -65.5 -190.5t-193.5 -73.5zM294 119q55 0 73.5 35t18.5 97q0 63 -19 97t-73 34q-53 0 -72.5 -34t-19.5 -97q0 -64 20 -98t72 -34z" />
    <glyph glyph-name="p" unicode="p" horiz-adv-x="607" 
d="M361 513q107 0 159 -74.5t52 -187.5q0 -74 -20.5 -131.5t-69.5 -95t-121 -37.5q-92 0 -141 68v-255h-156v699h152v-59q48 73 145 73zM310 120q56 0 76 35t20 96q0 62 -21 96.5t-75 34.5q-92 0 -92 -115v-32q0 -115 92 -115z" />
    <glyph glyph-name="q" unicode="q" horiz-adv-x="608" 
d="M391 499h153v-699h-157v254q-48 -67 -141 -67q-72 0 -121 37.5t-69.5 95t-20.5 131.5q0 113 52 187.5t159 74.5q97 0 145 -72v58zM298 120q91 0 91 115v32q0 115 -91 115q-54 0 -75 -34.5t-21 -96.5q0 -61 20 -96t76 -35z" />
    <glyph glyph-name="r" unicode="r" horiz-adv-x="405" 
d="M341 507q25 0 49 -7v-138q-20 5 -47 5q-123 0 -123 -151v-216h-156v499h154v-66q41 74 123 74z" />
    <glyph glyph-name="s" unicode="s" horiz-adv-x="504" 
d="M253 -17q-111 0 -165.5 48t-54.5 133h155q0 -73 63 -73q54 0 54 44q0 14 -6.5 24.5t-22.5 18.5t-30 12.5t-40 12.5q-78 23 -116.5 56t-38.5 98q0 74 52.5 115t148.5 41q98 0 148.5 -41.5t50.5 -117.5h-149q0 61 -53 61q-23 0 -35.5 -10t-12.5 -25q0 -25 21.5 -38
t83.5 -31q87 -25 126 -59.5t39 -100.5q0 -82 -57.5 -125t-160.5 -43z" />
    <glyph glyph-name="t" unicode="t" horiz-adv-x="372" 
d="M238 -9q-87 0 -124.5 38t-37.5 129v217h-64v124h64v117h157v-117h111v-124h-111v-191q0 -35 14.5 -50t45.5 -15q23 0 50 6v-123q-52 -11 -105 -11z" />
    <glyph glyph-name="u" unicode="u" horiz-adv-x="592" 
d="M372 499h156v-499h-156v60q-51 -74 -146 -74q-80 0 -123 48t-43 138v327h157v-292q0 -47 18 -68.5t57 -21.5q80 0 80 94v288z" />
    <glyph glyph-name="v" unicode="v" horiz-adv-x="557" 
d="M188 0l-177 499h171l97 -317l97 317h170l-176 -499h-182z" />
    <glyph glyph-name="w" unicode="w" horiz-adv-x="829" 
d="M649 499h169l-173 -499h-150l-80 291l-82 -291h-151l-171 499h168l81 -295l88 295h130l89 -293z" />
    <glyph glyph-name="x" unicode="x" horiz-adv-x="583" 
d="M8 0l188 258l-183 241h188l91 -138l91 138h186l-181 -241l188 -258h-184l-100 149l-101 -149h-183z" />
    <glyph glyph-name="y" unicode="y" horiz-adv-x="559" 
d="M380 499h168l-271 -699h-159l77 201l-184 498h172l98 -327z" />
    <glyph glyph-name="z" unicode="z" horiz-adv-x="480" 
d="M474 499l-222 -373h213v-126h-459l232 375h-210v124h446z" />
    <glyph glyph-name="braceleft" unicode="{" horiz-adv-x="402" 
d="M271 438q0 -59 -21.5 -88t-68.5 -37q47 -8 68.5 -37t21.5 -87v-184q0 -51 19 -72t74 -21h11v-113h-64q-82 0 -124 47t-42 126v186q0 51 -20 70.5t-73 19.5v129q52 0 72.5 20t20.5 71v176q0 79 42 126.5t124 47.5h64v-113h-11q-55 0 -74 -21t-19 -72v-174z" />
    <glyph glyph-name="bar" unicode="|" horiz-adv-x="440" 
d="M138 -201v957h164v-957h-164z" />
    <glyph glyph-name="braceright" unicode="}" horiz-adv-x="402" 
d="M257 468q0 -51 20.5 -71t72.5 -20v-129q-53 0 -73 -19.5t-20 -70.5v-186q0 -79 -42.5 -126t-123.5 -47h-64v113h10q55 0 74 21t19 72v184q0 58 21.5 87t69.5 37q-48 8 -69.5 37t-21.5 88v174q0 51 -19 72t-74 21h-10v113h64q81 0 123.5 -47.5t42.5 -126.5v-176z" />
    <glyph glyph-name="asciitilde" unicode="~" horiz-adv-x="593" 
d="M396 186q-41 0 -101 38q-4 3 -6 4q-44 31 -64 31q-37 0 -42 -71h-113q9 214 133 214q43 0 107 -43q45 -31 63 -31q39 0 42 72h113q-5 -107 -36.5 -160.5t-95.5 -53.5z" />
    <glyph glyph-name="uni00A0" unicode="&#xa0;" horiz-adv-x="185" 
 />
    <glyph glyph-name="exclamdown" unicode="&#xa1;" horiz-adv-x="326" 
d="M163 524q43 0 70.5 -27t27.5 -70q0 -42 -27.5 -69t-70.5 -27t-70.5 27t-27.5 69q0 43 27.5 70t70.5 27zM99 279h127l24 -479h-174z" />
    <glyph glyph-name="cent" unicode="&#xa2;" horiz-adv-x="569" 
d="M319 221q52 15 54 75h161q-4 -89 -62 -141.5t-150 -61.5v-93h-67v94q-110 10 -165 81.5t-55 178.5t55.5 178.5t164.5 81.5v92h67v-91q93 -8 150.5 -61t61.5 -141h-161q-5 59 -54 73v-265zM197 354q0 -114 61 -133v265q-61 -18 -61 -132z" />
    <glyph glyph-name="sterling" unicode="&#xa3;" horiz-adv-x="655" 
d="M337 122q73 0 100 34t27 104h154q0 -129 -55 -194.5t-191 -65.5h-338v122h73v197h-73v79h73v54q0 137 58.5 204.5t202.5 67.5q137 0 193.5 -66.5t56.5 -195.5h-156q0 66 -20 99t-74 33q-55 0 -75 -34.5t-20 -100.5v-61h162v-79h-162v-197h64z" />
    <glyph glyph-name="currency" unicode="&#xa4;" horiz-adv-x="591" 
d="M536 353q0 -102 -63 -167l86 -112h-114l-47 61q-49 -18 -102 -18q-56 0 -103 18l-48 -61h-113l85 112q-61 66 -61 167q0 105 63 169l-87 109h114l47 -60q45 18 103 18t102 -18l47 60h114l-86 -109q63 -66 63 -169zM182 353q0 -55 28.5 -87t85.5 -32t85 33t28 86
q0 55 -28.5 87.5t-84.5 32.5q-57 0 -85.5 -33t-28.5 -87z" />
    <glyph glyph-name="yen" unicode="&#xa5;" horiz-adv-x="619" 
d="M611 706l-206 -360h153v-73h-162v-68h162v-73h-162v-132h-170v132h-164v73h164v68h-164v73h155l-209 360h182l123 -233l124 233h174z" />
    <glyph glyph-name="brokenbar" unicode="&#xa6;" horiz-adv-x="440" 
d="M138 428v328h164v-328h-164zM138 -201v329h164v-329h-164z" />
    <glyph glyph-name="section" unicode="&#xa7;" horiz-adv-x="534" 
d="M392 116q102 -55 102 -156q0 -84 -59.5 -129.5t-168.5 -45.5q-225 0 -225 182h155q0 -74 70 -74q67 0 67 59q0 21 -7.5 36t-26.5 27.5t-33.5 19t-47.5 18.5q-91 34 -133.5 74t-42.5 115q0 115 122 151q-54 31 -83 66.5t-29 91.5q0 82 58 127.5t161 45.5t158 -45t55 -128
h-151q0 66 -65 66q-31 0 -47.5 -14.5t-16.5 -39.5q0 -18 8.5 -32.5t24.5 -25t32 -18t39 -16.5q5 -2 8 -3q98 -39 137.5 -80t39.5 -122q0 -109 -101 -150zM350 253q0 34 -22 51.5t-61 17.5q-40 0 -61.5 -18.5t-21.5 -49.5q0 -32 22.5 -50.5t62.5 -18.5q39 0 60 18.5t21 49.5z
" />
    <glyph glyph-name="dieresis" unicode="&#xa8;" horiz-adv-x="472" 
d="M132 569q-35 0 -58.5 22t-23.5 55q0 34 23.5 56.5t58.5 22.5q34 0 57.5 -22.5t23.5 -56.5q0 -33 -23.5 -55t-57.5 -22zM341 569q-35 0 -58.5 22t-23.5 55q0 34 23.5 56.5t58.5 22.5q34 0 57.5 -22.5t23.5 -56.5q0 -33 -23.5 -55t-57.5 -22z" />
    <glyph glyph-name="copyright" unicode="&#xa9;" horiz-adv-x="807" 
d="M404 -18q-89 0 -159.5 30.5t-114 83t-66 118t-22.5 139.5q0 157 96 264t267 107q115 0 198 -52t122.5 -134.5t39.5 -184.5q0 -101 -39 -183.5t-122.5 -135t-199.5 -52.5zM404 46q72 0 128.5 25.5t91 68.5t52 96.5t17.5 113.5q0 135 -73.5 222.5t-213.5 87.5
q-143 0 -218 -87.5t-75 -218.5q0 -83 30.5 -151t98 -112.5t162.5 -44.5zM409 109q-147 0 -203 122q-23 51 -23 123q0 71 23 123q26 58 78.5 89.5t122.5 31.5q92 0 151 -54q59 -53 59 -137h-139q-2 26 -15 45q-19 28 -60 28q-51 0 -68 -43q-12 -25 -12 -82t12 -81
q18 -43 70 -43q42 0 60 30q12 17 14 41h140q0 -87 -59 -140t-151 -53z" />
    <glyph glyph-name="ordfeminine" unicode="&#xaa;" horiz-adv-x="414" 
d="M203 717q92 0 130.5 -39t38.5 -119v-202h-123v41q-38 -50 -109 -50q-58 0 -88 28.5t-30 77.5q0 63 45 90t136 27h46v2q0 34 -8.5 47t-38.5 13q-42 0 -42 -39h-126q0 123 169 123zM194 437q33 0 44 16t11 47v7h-37q-33 0 -46.5 -8t-13.5 -27q0 -35 42 -35z" />
    <glyph glyph-name="guillemotleft" unicode="&#xab;" horiz-adv-x="599" 
d="M164 124l-143 166l143 164h161l-144 -164l144 -166h-161zM421 124l-143 166l143 164h161l-144 -164l144 -166h-161z" />
    <glyph glyph-name="logicalnot" unicode="&#xac;" horiz-adv-x="593" 
d="M412 52v266h-356v122h481v-388h-125z" />
    <glyph glyph-name="uni00AD" unicode="&#xad;" horiz-adv-x="410" 
d="M56 228v132h298v-132h-298z" />
    <glyph glyph-name="registered" unicode="&#xae;" horiz-adv-x="488" 
d="M244 720q103 0 156 -57.5t53 -150.5t-53.5 -150.5t-155.5 -57.5q-103 0 -156 58t-53 150q0 93 53.5 150.5t155.5 57.5zM244 353q153 0 153 159t-153 159t-153 -159q0 -73 36.5 -116t116.5 -43zM343 556q0 -42 -32 -56q30 -13 30 -52v-48h-73v44q0 16 -6.5 23t-23.5 7h-20
v-74h-73v224h113q85 0 85 -68zM241 528q29 0 29 22q0 21 -29 21h-23v-43h23z" />
    <glyph glyph-name="macron" unicode="&#xaf;" horiz-adv-x="405" 
d="M50 596v99h305v-99h-305z" />
    <glyph glyph-name="degree" unicode="&#xb0;" horiz-adv-x="374" 
d="M194 416q-72 0 -118 43.5t-46 110.5q0 68 45.5 111t118.5 43t119.5 -43t46.5 -111q0 -67 -46.5 -110.5t-119.5 -43.5zM195 514q25 0 40.5 15t15.5 41t-15.5 42t-40.5 16t-40.5 -16t-15.5 -42t15 -41t41 -15z" />
    <glyph glyph-name="plusminus" unicode="&#xb1;" horiz-adv-x="593" 
d="M359 435h178v-123h-178v-123h-126v123h-177v123h177v121h126v-121zM56 32v123h481v-123h-481z" />
    <glyph glyph-name="uni00B2" unicode="&#xb2;" horiz-adv-x="388" 
d="M15 438v6l179 191q26 29 35 43t9 28q0 36 -42 36q-48 0 -48 -49h-120q0 66 42.5 105t125.5 39q79 0 120.5 -33.5t41.5 -95.5q0 -50 -39 -89q-37 -37 -84 -73h127v-108h-347z" />
    <glyph glyph-name="uni00B3" unicode="&#xb3;" horiz-adv-x="376" 
d="M280 640q71 -20 71 -93q0 -57 -44 -88.5t-125 -31.5q-89 0 -127 39.5t-38 117.5l109 -1q0 -63 52 -63q48 0 48 42q0 37 -57 37h-12v75h12q53 0 53 36q0 34 -42 34q-46 0 -46 -47h-110q0 67 43 103.5t122 36.5q72 0 112.5 -31t40.5 -84q0 -58 -62 -82z" />
    <glyph glyph-name="acute" unicode="&#xb4;" horiz-adv-x="342" 
d="M50 570l88 157h154l-104 -157h-138z" />
    <glyph glyph-name="uni00B5" unicode="&#xb5;" horiz-adv-x="595" 
d="M377 499h154v-499h-151v66q-43 -79 -131 -79q-24 0 -42 6q9 -62 9 -131v-64h-152v701h152v-288q0 -52 18.5 -74t58.5 -22q84 0 84 98v286z" />
    <glyph glyph-name="paragraph" unicode="&#xb6;" horiz-adv-x="742" 
d="M300 -201v469h-57q-120 0 -171 58t-51 162q0 105 53.5 161.5t177.5 56.5h470v-129h-66v-778h-138v778h-81v-778h-137z" />
    <glyph glyph-name="periodcentered" unicode="&#xb7;" horiz-adv-x="326" 
d="M163 204q-43 0 -70.5 27t-27.5 69q0 43 27.5 70t70.5 27t70.5 -27t27.5 -70q0 -42 -27.5 -69t-70.5 -27z" />
    <glyph glyph-name="cedilla" unicode="&#xb8;" horiz-adv-x="353" 
d="M204 -36q46 0 72.5 -25.5t26.5 -66.5q0 -106 -152 -106q-53 0 -101 17l16 74q32 -14 72 -14q56 0 56 33q0 31 -59 31h-57l23 98h106l-10 -41h7z" />
    <glyph glyph-name="uni00B9" unicode="&#xb9;" horiz-adv-x="291" 
d="M92 438v278h-70l20 110h175v-388h-125z" />
    <glyph glyph-name="ordmasculine" unicode="&#xba;" horiz-adv-x="419" 
d="M209 348q-92 0 -138.5 52t-46.5 133q0 82 46.5 133t138.5 51q93 0 139 -51t46 -133q0 -81 -46 -133t-139 -52zM209 452q33 0 43.5 20.5t10.5 60.5t-10.5 61t-43.5 21t-43 -21t-10 -61t10 -60.5t43 -20.5z" />
    <glyph glyph-name="guillemotright" unicode="&#xbb;" horiz-adv-x="599" 
d="M178 124h-161l144 166l-144 164h161l143 -164zM435 124h-161l144 166l-144 164h161l143 -164z" />
    <glyph glyph-name="onequarter" unicode="&#xbc;" horiz-adv-x="904" 
d="M92 318v278h-70l20 110h175v-388h-125zM145 0l417 706h101l-417 -706h-101zM714 0v69h-236v2l142 317h212v-218h59v-101h-59v-69h-118zM642 170h72v179z" />
    <glyph glyph-name="onehalf" unicode="&#xbd;" horiz-adv-x="883" 
d="M92 318v278h-70l20 110h175v-388h-125zM145 0l417 706h101l-417 -706h-101zM510 0v6l179 191q26 29 35 43t9 28q0 36 -42 36q-48 0 -48 -49h-120q0 66 42.5 105t125.5 39q79 0 120.5 -33.5t41.5 -95.5q0 -50 -39 -89q-37 -37 -84 -73h127v-108h-347z" />
    <glyph glyph-name="threequarters" unicode="&#xbe;" horiz-adv-x="978" 
d="M351 427q0 -57 -44 -88.5t-125 -31.5q-89 0 -127 39.5t-38 117.5l109 -1q0 -63 52 -63q48 0 48 42q0 37 -57 37h-12v75h12q53 0 53 36q0 34 -42 34q-46 0 -46 -47h-110q0 67 43 103.5t122 36.5q72 0 112.5 -31t40.5 -84q0 -58 -62 -82q71 -20 71 -93zM636 706h101
l-417 -706h-101zM906 170h59v-101h-59v-69h-118v69h-236v2l142 317h212v-218zM788 170v179l-72 -179h72z" />
    <glyph glyph-name="questiondown" unicode="&#xbf;" horiz-adv-x="537" 
d="M283 528q43 0 70.5 -27t27.5 -70q0 -42 -27.5 -69t-70.5 -27t-71 27t-28 69q0 43 27.5 70t71.5 27zM365 283q-104 -170 -131 -222.5t-27 -87.5q0 -64 69 -64q43 0 57 21.5t14 61.5h155q0 -206 -234 -206q-108 0 -169 47.5t-61 133.5q0 45 27 100.5t125 215.5h175z" />
    <glyph glyph-name="Agrave" unicode="&#xc0;" horiz-adv-x="699" 
d="M443 772h-145l-110 142h160zM521 0l-40 137h-263l-40 -137h-173l219 706h251l219 -706h-173zM255 264h189l-94 319h-2z" />
    <glyph glyph-name="Aacute" unicode="&#xc1;" horiz-adv-x="699" 
d="M511 914l-110 -142h-145l95 142h160zM521 0l-40 137h-263l-40 -137h-173l219 706h251l219 -706h-173zM255 264h189l-94 319h-2z" />
    <glyph glyph-name="Acircumflex" unicode="&#xc2;" horiz-adv-x="699" 
d="M348 844l-52 -72h-140l104 142h178l103 -142h-140zM521 0l-40 137h-263l-40 -137h-173l219 706h251l219 -706h-173zM255 264h189l-94 319h-2z" />
    <glyph glyph-name="Atilde" unicode="&#xc3;" horiz-adv-x="699" 
d="M280 817q-33 0 -38 -48h-83q6 146 109 146q43 0 88 -29q33 -20 57 -20q19 0 27.5 11.5t14.5 37.5h85q-5 -147 -105 -147q-38 0 -86 25q-48 24 -69 24zM521 0l-40 137h-263l-40 -137h-173l219 706h251l219 -706h-173zM255 264h189l-94 319h-2z" />
    <glyph glyph-name="Adieresis" unicode="&#xc4;" horiz-adv-x="699" 
d="M239 770q-34 0 -56.5 21.5t-22.5 53.5q0 33 22.5 54.5t56.5 21.5q33 0 56 -21.5t23 -54.5q0 -32 -23 -53.5t-56 -21.5zM460 770q-34 0 -56.5 21.5t-22.5 53.5q0 33 22.5 54.5t56.5 21.5t56.5 -21.5t22.5 -54.5q0 -32 -22.5 -53.5t-56.5 -21.5zM521 0l-40 137h-263
l-40 -137h-173l219 706h251l219 -706h-173zM255 264h189l-94 319h-2z" />
    <glyph glyph-name="Aring" unicode="&#xc5;" horiz-adv-x="699" 
d="M348 738q-60 0 -97.5 34.5t-37.5 89.5q0 56 37 90t98 34q62 0 99.5 -34t37.5 -90q0 -55 -38 -89.5t-99 -34.5zM348 911q-22 0 -35 -13.5t-13 -35.5q0 -21 13 -34t35 -13q23 0 36.5 13t13.5 34q0 22 -13.5 35.5t-36.5 13.5zM521 0l-40 137h-263l-40 -137h-173l219 706h251
l219 -706h-173zM255 264h189l-94 319h-2z" />
    <glyph glyph-name="AE" unicode="&#xc6;" horiz-adv-x="846" 
d="M791 571h-253l17 -145h233v-136h-217l18 -155h202v-135h-355l-15 139h-194l-47 -139h-175l256 706h530v-135zM269 265h139l-33 311h-2z" />
    <glyph glyph-name="Ccedilla" unicode="&#xc7;" horiz-adv-x="722" 
d="M685 257q-1 -113 -75 -186.5t-190 -86.5l-5 -20h7q46 0 72.5 -25.5t26.5 -66.5q0 -106 -152 -106q-53 0 -101 17l16 74q32 -14 72 -14q56 0 56 33q0 31 -59 31h-57l19 79q-93 13 -156 66.5t-90 129t-27 171.5q0 78 19 143.5t58 117.5t104.5 81t152.5 29
q134 0 218.5 -77.5t87.5 -203.5h-177q-2 65 -37.5 102t-98.5 37q-36 0 -63.5 -12.5t-43.5 -32.5t-26 -50.5t-13.5 -61.5t-3.5 -71q0 -110 32 -169.5t119 -59.5q132 0 138 132h177z" />
    <glyph glyph-name="Egrave" unicode="&#xc8;" horiz-adv-x="571" 
d="M392 772h-145l-110 142h160zM77 0v706h439v-135h-273v-145h270v-136h-270v-155h273v-135h-439z" />
    <glyph glyph-name="Eacute" unicode="&#xc9;" horiz-adv-x="571" 
d="M205 772l95 142h160l-110 -142h-145zM77 0v706h439v-135h-273v-145h270v-136h-270v-155h273v-135h-439z" />
    <glyph glyph-name="Ecircumflex" unicode="&#xca;" horiz-adv-x="571" 
d="M106 772l104 142h178l103 -142h-140l-53 72l-52 -72h-140zM77 0v706h439v-135h-273v-145h270v-136h-270v-155h273v-135h-439z" />
    <glyph glyph-name="Edieresis" unicode="&#xcb;" horiz-adv-x="571" 
d="M188 770q-34 0 -56.5 21.5t-22.5 53.5q0 33 22.5 54.5t56.5 21.5q33 0 56 -21.5t23 -54.5q0 -32 -23 -53.5t-56 -21.5zM409 770q-34 0 -56.5 21.5t-22.5 53.5q0 33 22.5 54.5t56.5 21.5t56.5 -21.5t22.5 -54.5q0 -32 -22.5 -53.5t-56.5 -21.5zM77 0v706h439v-135h-273
v-145h270v-136h-270v-155h273v-135h-439z" />
    <glyph glyph-name="Igrave" unicode="&#xcc;" horiz-adv-x="320" 
d="M253 772h-145l-110 142h160zM77 0v706h166v-706h-166z" />
    <glyph glyph-name="Iacute" unicode="&#xcd;" horiz-adv-x="320" 
d="M67 772l95 142h160l-110 -142h-145zM77 0v706h166v-706h-166z" />
    <glyph glyph-name="Icircumflex" unicode="&#xce;" horiz-adv-x="320" 
d="M-11 772l83 142h175l85 -142h-131l-41 73l-40 -73h-131zM77 0v706h166v-706h-166z" />
    <glyph glyph-name="Idieresis" unicode="&#xcf;" horiz-adv-x="320" 
d="M73 771q-32 0 -53 21.5t-21 53.5t21.5 54t52.5 22q32 0 53.5 -22t21.5 -54t-21.5 -53.5t-53.5 -21.5zM248 771q-32 0 -52.5 21t-20.5 53q0 33 20.5 55t52.5 22t53.5 -22t21.5 -55q0 -32 -21.5 -53t-53.5 -21zM77 0v706h166v-706h-166z" />
    <glyph glyph-name="Eth" unicode="&#xd0;" horiz-adv-x="724" 
d="M351 706q88 0 153 -26.5t103 -75.5t56 -111.5t18 -139.5q0 -162 -79.5 -257.5t-250.5 -95.5h-274v305h-56v105h56v296h274zM322 135q104 0 143.5 56.5t39.5 161.5t-39.5 161.5t-143.5 56.5h-79v-161h144v-105h-144v-170h79z" />
    <glyph glyph-name="Ntilde" unicode="&#xd1;" horiz-adv-x="753" 
d="M462 768q-38 0 -86 25q-48 24 -69 24q-33 0 -38 -48h-83q6 146 109 146q43 0 88 -29q33 -20 57 -20q19 0 27.5 11.5t14.5 37.5h85q-5 -147 -105 -147zM77 0v706h164l274 -446v446h162v-706h-166l-273 447v-447h-161z" />
    <glyph glyph-name="Ograve" unicode="&#xd2;" horiz-adv-x="754" 
d="M471 772h-145l-110 142h160zM377 -18q-87 0 -153.5 29.5t-105 82t-57.5 117.5t-19 142q0 78 19.5 143.5t58.5 117.5t104.5 81t152.5 29t153.5 -29.5t105 -81.5t57.5 -117t19 -143t-19 -144t-58 -117.5t-105 -80.5t-153 -29zM377 124q158 0 158 229t-158 229
q-48 0 -80.5 -18.5t-48.5 -52.5t-22.5 -71.5t-6.5 -86.5q0 -39 4 -70.5t14.5 -62t27.5 -51t45.5 -33t66.5 -12.5z" />
    <glyph glyph-name="Oacute" unicode="&#xd3;" horiz-adv-x="754" 
d="M284 772l95 142h160l-110 -142h-145zM377 -18q-87 0 -153.5 29.5t-105 82t-57.5 117.5t-19 142q0 78 19.5 143.5t58.5 117.5t104.5 81t152.5 29t153.5 -29.5t105 -81.5t57.5 -117t19 -143t-19 -144t-58 -117.5t-105 -80.5t-153 -29zM377 124q158 0 158 229t-158 229
q-48 0 -80.5 -18.5t-48.5 -52.5t-22.5 -71.5t-6.5 -86.5q0 -39 4 -70.5t14.5 -62t27.5 -51t45.5 -33t66.5 -12.5z" />
    <glyph glyph-name="Ocircumflex" unicode="&#xd4;" horiz-adv-x="754" 
d="M184 772l104 142h178l103 -142h-140l-53 72l-52 -72h-140zM377 -18q-87 0 -153.5 29.5t-105 82t-57.5 117.5t-19 142q0 78 19.5 143.5t58.5 117.5t104.5 81t152.5 29t153.5 -29.5t105 -81.5t57.5 -117t19 -143t-19 -144t-58 -117.5t-105 -80.5t-153 -29zM377 124
q158 0 158 229t-158 229q-48 0 -80.5 -18.5t-48.5 -52.5t-22.5 -71.5t-6.5 -86.5q0 -39 4 -70.5t14.5 -62t27.5 -51t45.5 -33t66.5 -12.5z" />
    <glyph glyph-name="Otilde" unicode="&#xd5;" horiz-adv-x="754" 
d="M463 768q-38 0 -86 25q-48 24 -69 24q-33 0 -38 -48h-83q6 146 109 146q43 0 88 -29q33 -20 57 -20q19 0 27.5 11.5t14.5 37.5h85q-5 -147 -105 -147zM377 -18q-87 0 -153.5 29.5t-105 82t-57.5 117.5t-19 142q0 78 19.5 143.5t58.5 117.5t104.5 81t152.5 29t153.5 -29.5
t105 -81.5t57.5 -117t19 -143t-19 -144t-58 -117.5t-105 -80.5t-153 -29zM377 124q158 0 158 229t-158 229q-48 0 -80.5 -18.5t-48.5 -52.5t-22.5 -71.5t-6.5 -86.5q0 -39 4 -70.5t14.5 -62t27.5 -51t45.5 -33t66.5 -12.5z" />
    <glyph glyph-name="Odieresis" unicode="&#xd6;" horiz-adv-x="754" 
d="M267 770q-34 0 -56.5 21.5t-22.5 53.5q0 33 22.5 54.5t56.5 21.5q33 0 56 -21.5t23 -54.5q0 -32 -23 -53.5t-56 -21.5zM488 770q-34 0 -56.5 21.5t-22.5 53.5q0 33 22.5 54.5t56.5 21.5t56.5 -21.5t22.5 -54.5q0 -32 -22.5 -53.5t-56.5 -21.5zM377 -18q-87 0 -153.5 29.5
t-105 82t-57.5 117.5t-19 142q0 78 19.5 143.5t58.5 117.5t104.5 81t152.5 29t153.5 -29.5t105 -81.5t57.5 -117t19 -143t-19 -144t-58 -117.5t-105 -80.5t-153 -29zM377 124q158 0 158 229t-158 229q-48 0 -80.5 -18.5t-48.5 -52.5t-22.5 -71.5t-6.5 -86.5q0 -39 4 -70.5
t14.5 -62t27.5 -51t45.5 -33t66.5 -12.5z" />
    <glyph glyph-name="multiply" unicode="&#xd7;" horiz-adv-x="593" 
d="M523 436l-141 -141l141 -141l-85 -87l-141 142l-141 -141l-86 86l141 141l-141 141l86 85l141 -141l141 141z" />
    <glyph glyph-name="Oslash" unicode="&#xd8;" horiz-adv-x="754" 
d="M761 706l-109 -117q60 -93 60 -236q0 -78 -19 -144t-58 -117.5t-105 -80.5t-153 -29q-141 0 -226 77l-55 -59h-103l109 117q-60 93 -60 236q0 78 19.5 143.5t58.5 117.5t104.5 81t152.5 29q142 0 227 -77l55 59h102zM377 582q-48 0 -80.5 -18.5t-48.5 -52.5t-22.5 -71.5
t-6.5 -86.5q0 -60 10 -107l261 287q-39 49 -113 49zM377 124q158 0 158 229q0 62 -11 106l-261 -286q38 -49 114 -49z" />
    <glyph glyph-name="Ugrave" unicode="&#xd9;" horiz-adv-x="690" 
d="M439 772h-145l-110 142h160zM344 -18q-145 0 -214 66.5t-69 198.5v459h167v-447q0 -68 25.5 -101t90.5 -33q66 0 92 33t26 101v447h166v-459q0 -132 -69.5 -198.5t-214.5 -66.5z" />
    <glyph glyph-name="Uacute" unicode="&#xda;" horiz-adv-x="690" 
d="M253 772l95 142h160l-110 -142h-145zM344 -18q-145 0 -214 66.5t-69 198.5v459h167v-447q0 -68 25.5 -101t90.5 -33q66 0 92 33t26 101v447h166v-459q0 -132 -69.5 -198.5t-214.5 -66.5z" />
    <glyph glyph-name="Ucircumflex" unicode="&#xdb;" horiz-adv-x="690" 
d="M153 772l104 142h178l103 -142h-140l-53 72l-52 -72h-140zM344 -18q-145 0 -214 66.5t-69 198.5v459h167v-447q0 -68 25.5 -101t90.5 -33q66 0 92 33t26 101v447h166v-459q0 -132 -69.5 -198.5t-214.5 -66.5z" />
    <glyph glyph-name="Udieresis" unicode="&#xdc;" horiz-adv-x="690" 
d="M235 770q-34 0 -56.5 21.5t-22.5 53.5q0 33 22.5 54.5t56.5 21.5q33 0 56 -21.5t23 -54.5q0 -32 -23 -53.5t-56 -21.5zM456 770q-34 0 -56.5 21.5t-22.5 53.5q0 33 22.5 54.5t56.5 21.5t56.5 -21.5t22.5 -54.5q0 -32 -22.5 -53.5t-56.5 -21.5zM344 -18q-145 0 -214 66.5
t-69 198.5v459h167v-447q0 -68 25.5 -101t90.5 -33q66 0 92 33t26 101v447h166v-459q0 -132 -69.5 -198.5t-214.5 -66.5z" />
    <glyph glyph-name="Yacute" unicode="&#xdd;" horiz-adv-x="612" 
d="M214 772l95 142h160l-110 -142h-145zM223 0v303l-218 403h180l122 -241l122 241h178l-218 -403v-303h-166z" />
    <glyph glyph-name="Thorn" unicode="&#xde;" horiz-adv-x="613" 
d="M77 0v706h166v-102h100q249 0 249 -239q0 -249 -249 -249h-100v-116h-166zM243 246h58q65 0 92.5 29.5t27.5 89.5q0 56 -27 82.5t-93 26.5h-58v-228z" />
    <glyph glyph-name="germandbls" unicode="&#xdf;" horiz-adv-x="613" 
d="M456 403q63 -20 92.5 -70.5t29.5 -118.5q0 -100 -62 -157.5t-195 -57.5q-28 0 -58 2v122h22q68 0 97 26t29 78q0 105 -123 105h-22v116h19q103 0 103 84q0 35 -20 56.5t-61 21.5q-51 0 -69 -31.5t-18 -86.5v-492h-156v480q0 115 56.5 179.5t188.5 64.5q119 0 177.5 -51.5
t58.5 -132.5q0 -107 -89 -137z" />
    <glyph glyph-name="agrave" unicode="&#xe0;" horiz-adv-x="579" 
d="M375 570h-138l-104 157h154zM285 513q130 0 182.5 -55t52.5 -168v-290h-159v58q-48 -71 -157 -71q-85 0 -128.5 41.5t-43.5 113.5q0 90 64 126.5t192 36.5h73v9q0 47 -15.5 68t-58.5 21q-75 0 -75 -64h-162q0 84 61 129t174 45zM269 103q92 0 92 105v5h-61
q-53 0 -76.5 -12.5t-23.5 -43.5q0 -54 69 -54z" />
    <glyph glyph-name="aacute" unicode="&#xe1;" horiz-adv-x="579" 
d="M437 727l-104 -157h-138l88 157h154zM285 513q130 0 182.5 -55t52.5 -168v-290h-159v58q-48 -71 -157 -71q-85 0 -128.5 41.5t-43.5 113.5q0 90 64 126.5t192 36.5h73v9q0 47 -15.5 68t-58.5 21q-75 0 -75 -64h-162q0 84 61 129t174 45zM269 103q92 0 92 105v5h-61
q-53 0 -76.5 -12.5t-23.5 -43.5q0 -54 69 -54z" />
    <glyph glyph-name="acircumflex" unicode="&#xe2;" horiz-adv-x="579" 
d="M285 658l-51 -88h-139l100 158h182l99 -158h-138zM285 513q130 0 182.5 -55t52.5 -168v-290h-159v58q-48 -71 -157 -71q-85 0 -128.5 41.5t-43.5 113.5q0 90 64 126.5t192 36.5h73v9q0 47 -15.5 68t-58.5 21q-75 0 -75 -64h-162q0 84 61 129t174 45zM269 103q92 0 92 105
v5h-61q-53 0 -76.5 -12.5t-23.5 -43.5q0 -54 69 -54z" />
    <glyph glyph-name="atilde" unicode="&#xe3;" horiz-adv-x="579" 
d="M222 624q-30 0 -32 -53h-89q2 81 27 120t76 39q37 0 84 -29q39 -26 59 -26q17 0 24 12.5t9 40.5h89q-2 -81 -27 -120t-77 -39q-42 0 -83 28q-41 27 -60 27zM285 513q130 0 182.5 -55t52.5 -168v-290h-159v58q-48 -71 -157 -71q-85 0 -128.5 41.5t-43.5 113.5
q0 90 64 126.5t192 36.5h73v9q0 47 -15.5 68t-58.5 21q-75 0 -75 -64h-162q0 84 61 129t174 45zM269 103q92 0 92 105v5h-61q-53 0 -76.5 -12.5t-23.5 -43.5q0 -54 69 -54z" />
    <glyph glyph-name="adieresis" unicode="&#xe4;" horiz-adv-x="579" 
d="M181 569q-35 0 -58.5 22t-23.5 55q0 34 23.5 56.5t58.5 22.5q34 0 57.5 -22.5t23.5 -56.5q0 -33 -23.5 -55t-57.5 -22zM390 569q-35 0 -58.5 22t-23.5 55q0 34 23.5 56.5t58.5 22.5q34 0 57.5 -22.5t23.5 -56.5q0 -33 -23.5 -55t-57.5 -22zM285 513q130 0 182.5 -55
t52.5 -168v-290h-159v58q-48 -71 -157 -71q-85 0 -128.5 41.5t-43.5 113.5q0 90 64 126.5t192 36.5h73v9q0 47 -15.5 68t-58.5 21q-75 0 -75 -64h-162q0 84 61 129t174 45zM269 103q92 0 92 105v5h-61q-53 0 -76.5 -12.5t-23.5 -43.5q0 -54 69 -54z" />
    <glyph glyph-name="aring" unicode="&#xe5;" horiz-adv-x="579" 
d="M284 549q-60 0 -97.5 34.5t-37.5 89.5q0 56 37 90t98 34q62 0 99.5 -34t37.5 -90q0 -55 -38 -89.5t-99 -34.5zM284 722q-22 0 -35 -13.5t-13 -35.5q0 -21 13 -34t35 -13q23 0 36.5 13t13.5 34q0 22 -13.5 35.5t-36.5 13.5zM285 513q130 0 182.5 -55t52.5 -168v-290h-159
v58q-48 -71 -157 -71q-85 0 -128.5 41.5t-43.5 113.5q0 90 64 126.5t192 36.5h73v9q0 47 -15.5 68t-58.5 21q-75 0 -75 -64h-162q0 84 61 129t174 45zM269 103q92 0 92 105v5h-61q-53 0 -76.5 -12.5t-23.5 -43.5q0 -54 69 -54z" />
    <glyph glyph-name="ae" unicode="&#xe6;" horiz-adv-x="878" 
d="M605 106q55 0 69 48h165q-11 -79 -74.5 -123t-155.5 -44q-129 0 -192 84q-68 -84 -193 -84q-97 0 -144.5 41.5t-47.5 113.5q0 90 64 126.5t192 36.5h73v7q0 49 -14.5 70t-59.5 21q-41 0 -58 -16t-17 -48h-162q0 84 61 129t174 45q114 0 166 -46q57 46 146 46
q161 0 221 -130q25 -57 25 -170h-323q4 -53 23 -80t62 -27zM601 399q-39 0 -57 -23.5t-23 -70.5h158q-3 45 -20.5 69.5t-57.5 24.5zM361 208v6h-61q-49 0 -74.5 -12t-25.5 -45q0 -27 19.5 -40.5t50.5 -13.5q53 0 72 26.5t19 78.5z" />
    <glyph glyph-name="ccedilla" unicode="&#xe7;" horiz-adv-x="572" 
d="M290 119q34 0 53.5 21t20.5 52h173q-4 -87 -59.5 -139.5t-144.5 -63.5l-6 -25h7q46 0 72.5 -25.5t26.5 -66.5q0 -106 -152 -106q-53 0 -101 17l16 74q32 -14 72 -14q56 0 56 33q0 31 -59 31h-57l20 85q-96 18 -144.5 88t-48.5 169q0 117 65 190.5t190 73.5q107 0 175 -54
t72 -150h-173q-2 35 -21.5 54t-52.5 19q-88 0 -88 -133q0 -130 88 -130z" />
    <glyph glyph-name="egrave" unicode="&#xe8;" horiz-adv-x="582" 
d="M378 570h-138l-104 157h154zM296 106q65 0 83 48h161q-11 -79 -77.5 -123t-162.5 -44q-134 0 -199.5 72t-65.5 192q0 116 64 189t189 73q85 0 145.5 -35t87.5 -98q25 -58 25 -169h-348q3 -53 24 -79t74 -26zM291 399q-43 0 -64.5 -23.5t-26.5 -71.5h182q-5 48 -26 71.5
t-65 23.5z" />
    <glyph glyph-name="eacute" unicode="&#xe9;" horiz-adv-x="582" 
d="M440 727l-104 -157h-138l88 157h154zM296 106q65 0 83 48h161q-11 -79 -77.5 -123t-162.5 -44q-134 0 -199.5 72t-65.5 192q0 116 64 189t189 73q85 0 145.5 -35t87.5 -98q25 -58 25 -169h-348q3 -53 24 -79t74 -26zM291 399q-43 0 -64.5 -23.5t-26.5 -71.5h182
q-5 48 -26 71.5t-65 23.5z" />
    <glyph glyph-name="ecircumflex" unicode="&#xea;" horiz-adv-x="582" 
d="M288 658l-51 -88h-139l100 158h182l99 -158h-138zM296 106q65 0 83 48h161q-11 -79 -77.5 -123t-162.5 -44q-134 0 -199.5 72t-65.5 192q0 116 64 189t189 73q85 0 145.5 -35t87.5 -98q25 -58 25 -169h-348q3 -53 24 -79t74 -26zM291 399q-43 0 -64.5 -23.5t-26.5 -71.5
h182q-5 48 -26 71.5t-65 23.5z" />
    <glyph glyph-name="edieresis" unicode="&#xeb;" horiz-adv-x="582" 
d="M184 569q-35 0 -58.5 22t-23.5 55q0 34 23.5 56.5t58.5 22.5q34 0 57.5 -22.5t23.5 -56.5q0 -33 -23.5 -55t-57.5 -22zM393 569q-35 0 -58.5 22t-23.5 55q0 34 23.5 56.5t58.5 22.5q34 0 57.5 -22.5t23.5 -56.5q0 -33 -23.5 -55t-57.5 -22zM296 106q65 0 83 48h161
q-11 -79 -77.5 -123t-162.5 -44q-134 0 -199.5 72t-65.5 192q0 116 64 189t189 73q85 0 145.5 -35t87.5 -98q25 -58 25 -169h-348q3 -53 24 -79t74 -26zM291 399q-43 0 -64.5 -23.5t-26.5 -71.5h182q-5 48 -26 71.5t-65 23.5z" />
    <glyph glyph-name="igrave" unicode="&#xec;" horiz-adv-x="284" 
d="M227 570h-132l-93 157h153zM64 0v499h156v-499h-156z" />
    <glyph glyph-name="iacute" unicode="&#xed;" horiz-adv-x="284" 
d="M56 570l72 157h153l-92 -157h-133zM64 0v499h156v-499h-156z" />
    <glyph glyph-name="icircumflex" unicode="&#xee;" horiz-adv-x="284" 
d="M-8 570l75 158h150l74 -158h-112l-37 85l-38 -85h-112zM64 0v499h156v-499h-156z" />
    <glyph glyph-name="idieresis" unicode="&#xef;" horiz-adv-x="284" 
d="M64 576q-31 0 -49.5 20t-18.5 54t18.5 54t49.5 20t49.5 -20t18.5 -54t-18.5 -54t-49.5 -20zM218 576q-31 0 -49.5 20t-18.5 54t18.5 54t49.5 20t49.5 -20t18.5 -54t-18.5 -54t-49.5 -20zM64 0v499h156v-499h-156z" />
    <glyph glyph-name="eth" unicode="&#xf0;" horiz-adv-x="595" 
d="M445 591q115 -165 115 -337q0 -129 -62 -198t-209 -69q-128 0 -191 62.5t-63 174.5q0 103 54.5 173t156.5 70q68 0 119 -33q-22 47 -66 111l-210 -67v96l151 48q-6 7 -70 82v2h184l32 -38l121 38v-95zM300 115q93 0 93 117q0 119 -93 119q-98 0 -98 -120q0 -116 98 -116z
" />
    <glyph glyph-name="ntilde" unicode="&#xf1;" horiz-adv-x="592" 
d="M247 624q-30 0 -32 -53h-89q2 81 27 120t76 39q37 0 84 -29q39 -26 59 -26q17 0 24 12.5t9 40.5h89q-2 -81 -27 -120t-77 -39q-42 0 -83 28q-41 27 -60 27zM366 513q80 0 123 -48t43 -138v-327h-157v292q0 47 -18 68.5t-57 21.5q-80 0 -80 -94v-288h-156v499h156v-60
q51 74 146 74z" />
    <glyph glyph-name="ograve" unicode="&#xf2;" horiz-adv-x="588" 
d="M384 570h-138l-104 157h154zM294 -13q-128 0 -193.5 74.5t-65.5 189.5q0 116 66 189t193 73q129 0 194 -73.5t65 -188.5q0 -117 -65.5 -190.5t-193.5 -73.5zM294 119q55 0 73.5 35t18.5 97q0 63 -19 97t-73 34q-53 0 -72.5 -34t-19.5 -97q0 -64 20 -98t72 -34z" />
    <glyph glyph-name="oacute" unicode="&#xf3;" horiz-adv-x="588" 
d="M204 570l88 157h154l-104 -157h-138zM294 -13q-128 0 -193.5 74.5t-65.5 189.5q0 116 66 189t193 73q129 0 194 -73.5t65 -188.5q0 -117 -65.5 -190.5t-193.5 -73.5zM294 119q55 0 73.5 35t18.5 97q0 63 -19 97t-73 34q-53 0 -72.5 -34t-19.5 -97q0 -64 20 -98t72 -34z
" />
    <glyph glyph-name="ocircumflex" unicode="&#xf4;" horiz-adv-x="588" 
d="M104 570l100 158h182l99 -158h-138l-53 88l-51 -88h-139zM294 -13q-128 0 -193.5 74.5t-65.5 189.5q0 116 66 189t193 73q129 0 194 -73.5t65 -188.5q0 -117 -65.5 -190.5t-193.5 -73.5zM294 119q55 0 73.5 35t18.5 97q0 63 -19 97t-73 34q-53 0 -72.5 -34t-19.5 -97
q0 -64 20 -98t72 -34z" />
    <glyph glyph-name="otilde" unicode="&#xf5;" horiz-adv-x="588" 
d="M374 569q-42 0 -83 28q-41 27 -60 27q-30 0 -32 -53h-89q2 81 27 120t76 39q37 0 84 -29q39 -26 59 -26q17 0 24 12.5t9 40.5h89q-2 -81 -27 -120t-77 -39zM294 -13q-128 0 -193.5 74.5t-65.5 189.5q0 116 66 189t193 73q129 0 194 -73.5t65 -188.5q0 -117 -65.5 -190.5
t-193.5 -73.5zM294 119q55 0 73.5 35t18.5 97q0 63 -19 97t-73 34q-53 0 -72.5 -34t-19.5 -97q0 -64 20 -98t72 -34z" />
    <glyph glyph-name="odieresis" unicode="&#xf6;" horiz-adv-x="588" 
d="M190 569q-35 0 -58.5 22t-23.5 55q0 34 23.5 56.5t58.5 22.5q34 0 57.5 -22.5t23.5 -56.5q0 -33 -23.5 -55t-57.5 -22zM399 569q-35 0 -58.5 22t-23.5 55q0 34 23.5 56.5t58.5 22.5q34 0 57.5 -22.5t23.5 -56.5q0 -33 -23.5 -55t-57.5 -22zM294 -13q-128 0 -193.5 74.5
t-65.5 189.5q0 116 66 189t193 73q129 0 194 -73.5t65 -188.5q0 -117 -65.5 -190.5t-193.5 -73.5zM294 119q55 0 73.5 35t18.5 97q0 63 -19 97t-73 34q-53 0 -72.5 -34t-19.5 -97q0 -64 20 -98t72 -34z" />
    <glyph glyph-name="divide" unicode="&#xf7;" horiz-adv-x="593" 
d="M298 412q-34 0 -54.5 20.5t-20.5 53.5q0 32 20.5 52t54.5 20q31 0 51.5 -20t20.5 -52q0 -33 -20.5 -53.5t-51.5 -20.5zM56 233v122h481v-122h-481zM298 30q-34 0 -54.5 20t-20.5 53t20.5 52.5t54.5 19.5q31 0 51.5 -20t20.5 -52t-20.5 -52.5t-51.5 -20.5z" />
    <glyph glyph-name="oslash" unicode="&#xf8;" horiz-adv-x="588" 
d="M560 499l-63 -70q56 -69 56 -178q0 -117 -65.5 -190.5t-193.5 -73.5q-93 0 -154 41l-26 -28h-88l66 72q-57 70 -57 179q0 116 66 189t193 73q92 0 154 -40l25 26h87zM294 382q-53 0 -72.5 -34t-19.5 -97q0 -32 4 -55l147 168q-21 18 -59 18zM294 119q55 0 73.5 35
t18.5 97q0 32 -4 55l-147 -168q22 -19 59 -19z" />
    <glyph glyph-name="ugrave" unicode="&#xf9;" horiz-adv-x="592" 
d="M386 570h-138l-104 157h154zM372 499h156v-499h-156v60q-51 -74 -146 -74q-80 0 -123 48t-43 138v327h157v-292q0 -47 18 -68.5t57 -21.5q80 0 80 94v288z" />
    <glyph glyph-name="uacute" unicode="&#xfa;" horiz-adv-x="592" 
d="M448 727l-104 -157h-138l88 157h154zM372 499h156v-499h-156v60q-51 -74 -146 -74q-80 0 -123 48t-43 138v327h157v-292q0 -47 18 -68.5t57 -21.5q80 0 80 94v288z" />
    <glyph glyph-name="ucircumflex" unicode="&#xfb;" horiz-adv-x="592" 
d="M296 658l-51 -88h-139l100 158h182l99 -158h-138zM372 499h156v-499h-156v60q-51 -74 -146 -74q-80 0 -123 48t-43 138v327h157v-292q0 -47 18 -68.5t57 -21.5q80 0 80 94v288z" />
    <glyph glyph-name="udieresis" unicode="&#xfc;" horiz-adv-x="592" 
d="M192 569q-35 0 -58.5 22t-23.5 55q0 34 23.5 56.5t58.5 22.5q34 0 57.5 -22.5t23.5 -56.5q0 -33 -23.5 -55t-57.5 -22zM401 569q-35 0 -58.5 22t-23.5 55q0 34 23.5 56.5t58.5 22.5q34 0 57.5 -22.5t23.5 -56.5q0 -33 -23.5 -55t-57.5 -22zM372 499h156v-499h-156v60
q-51 -74 -146 -74q-80 0 -123 48t-43 138v327h157v-292q0 -47 18 -68.5t57 -21.5q80 0 80 94v288z" />
    <glyph glyph-name="yacute" unicode="&#xfd;" horiz-adv-x="559" 
d="M433 727l-104 -157h-138l88 157h154zM380 499h168l-271 -699h-159l77 201l-184 498h172l98 -327z" />
    <glyph glyph-name="thorn" unicode="&#xfe;" horiz-adv-x="607" 
d="M361 513q107 0 159 -74.5t52 -187.5q0 -74 -20.5 -131.5t-69.5 -95t-121 -37.5q-92 0 -141 68v-256h-156v907h156v-260q48 67 141 67zM310 120q56 0 76 35t20 96q0 62 -21 96.5t-75 34.5q-92 0 -92 -115v-32q0 -115 92 -115z" />
    <glyph glyph-name="ydieresis" unicode="&#xff;" horiz-adv-x="559" 
d="M177 569q-35 0 -58.5 22t-23.5 55q0 34 23.5 56.5t58.5 22.5q34 0 57.5 -22.5t23.5 -56.5q0 -33 -23.5 -55t-57.5 -22zM386 569q-35 0 -58.5 22t-23.5 55q0 34 23.5 56.5t58.5 22.5q34 0 57.5 -22.5t23.5 -56.5q0 -33 -23.5 -55t-57.5 -22zM380 499h168l-271 -699h-159
l77 201l-184 498h172l98 -327z" />
    <glyph glyph-name="Amacron" unicode="&#x100;" horiz-adv-x="699" 
d="M506 894v-100h-314v100h314zM521 0l-40 137h-263l-40 -137h-173l219 706h251l219 -706h-173zM255 264h189l-94 319h-2z" />
    <glyph glyph-name="amacron" unicode="&#x101;" horiz-adv-x="579" 
d="M437 695v-99h-305v99h305zM285 513q130 0 182.5 -55t52.5 -168v-290h-159v58q-48 -71 -157 -71q-85 0 -128.5 41.5t-43.5 113.5q0 90 64 126.5t192 36.5h73v9q0 47 -15.5 68t-58.5 21q-75 0 -75 -64h-162q0 84 61 129t174 45zM269 103q92 0 92 105v5h-61
q-53 0 -76.5 -12.5t-23.5 -43.5q0 -54 69 -54z" />
    <glyph glyph-name="Abreve" unicode="&#x102;" horiz-adv-x="699" 
d="M351 765q-83 0 -128 38t-50 111h109q7 -63 69 -63q32 0 48.5 14.5t24.5 48.5h102q-8 -149 -175 -149zM521 0l-40 137h-263l-40 -137h-173l219 706h251l219 -706h-173zM255 264h189l-94 319h-2z" />
    <glyph glyph-name="abreve" unicode="&#x103;" horiz-adv-x="579" 
d="M286 562q-174 0 -183 166h112q4 -42 21 -60t50 -18q32 0 49 18t21 60h110q-8 -166 -180 -166zM285 513q130 0 182.5 -55t52.5 -168v-290h-159v58q-48 -71 -157 -71q-85 0 -128.5 41.5t-43.5 113.5q0 90 64 126.5t192 36.5h73v9q0 47 -15.5 68t-58.5 21q-75 0 -75 -64
h-162q0 84 61 129t174 45zM269 103q92 0 92 105v5h-61q-53 0 -76.5 -12.5t-23.5 -43.5q0 -54 69 -54z" />
    <glyph glyph-name="Aogonek" unicode="&#x104;" horiz-adv-x="699" 
d="M656 -122q22 0 39 7v-86q-33 -13 -78 -13q-56 0 -89 24.5t-33 70.5q0 71 94 119h-68l-40 137h-263l-40 -137h-173l219 706h251l219 -706q-37 -26 -55.5 -46.5t-18.5 -43.5q0 -32 36 -32zM255 264h189l-94 319h-2z" />
    <glyph glyph-name="aogonek" unicode="&#x105;" horiz-adv-x="579" 
d="M482 -122q22 0 39 7v-86q-33 -13 -78 -13q-56 0 -89 24.5t-33 70.5q0 71 94 119h-54v58q-48 -71 -157 -71q-85 0 -128.5 41.5t-43.5 113.5q0 90 64 126.5t192 36.5h73v9q0 47 -15.5 68t-58.5 21q-75 0 -75 -64h-162q0 84 61 129t174 45q130 0 182.5 -55t52.5 -168v-290
q-37 -26 -55.5 -46.5t-18.5 -43.5q0 -32 36 -32zM269 103q92 0 92 105v5h-61q-53 0 -76.5 -12.5t-23.5 -43.5q0 -54 69 -54z" />
    <glyph glyph-name="Cacute" unicode="&#x106;" horiz-adv-x="722" 
d="M283 772l95 142h160l-110 -142h-145zM377 -18q-87 0 -152.5 29t-104.5 80.5t-58.5 117.5t-19.5 144t19 143.5t58 117.5t104.5 81t152.5 29q134 0 218.5 -77.5t87.5 -203.5h-177q-2 65 -37.5 102t-98.5 37q-36 0 -63.5 -12.5t-43.5 -32.5t-26 -50.5t-13.5 -61.5t-3.5 -71
q0 -110 32 -169.5t119 -59.5q132 0 138 132h177q-1 -123 -89 -199t-219 -76z" />
    <glyph glyph-name="cacute" unicode="&#x107;" horiz-adv-x="572" 
d="M200 570l88 157h154l-104 -157h-138zM290 -13q-126 0 -190.5 73.5t-64.5 188.5q0 117 65 190.5t190 73.5q107 0 175 -54t72 -150h-173q-2 35 -21.5 54t-52.5 19q-88 0 -88 -133q0 -130 88 -130q34 0 53.5 21t20.5 52h173q-4 -97 -72.5 -151t-174.5 -54z" />
    <glyph glyph-name="Ccircumflex" unicode="&#x108;" horiz-adv-x="722" 
d="M183 772l104 142h178l103 -142h-140l-53 72l-52 -72h-140zM377 -18q-87 0 -152.5 29t-104.5 80.5t-58.5 117.5t-19.5 144t19 143.5t58 117.5t104.5 81t152.5 29q134 0 218.5 -77.5t87.5 -203.5h-177q-2 65 -37.5 102t-98.5 37q-36 0 -63.5 -12.5t-43.5 -32.5t-26 -50.5
t-13.5 -61.5t-3.5 -71q0 -110 32 -169.5t119 -59.5q132 0 138 132h177q-1 -123 -89 -199t-219 -76z" />
    <glyph glyph-name="ccircumflex" unicode="&#x109;" horiz-adv-x="572" 
d="M100 570l100 158h182l99 -158h-138l-53 88l-51 -88h-139zM290 -13q-126 0 -190.5 73.5t-64.5 188.5q0 117 65 190.5t190 73.5q107 0 175 -54t72 -150h-173q-2 35 -21.5 54t-52.5 19q-88 0 -88 -133q0 -130 88 -130q34 0 53.5 21t20.5 52h173q-4 -97 -72.5 -151
t-174.5 -54z" />
    <glyph glyph-name="Cdotaccent" unicode="&#x10a;" horiz-adv-x="722" 
d="M377 772q-38 0 -61.5 22.5t-23.5 58.5q0 35 24 57t61 22q36 0 59.5 -22.5t23.5 -56.5q0 -36 -23.5 -58.5t-59.5 -22.5zM377 -18q-87 0 -152.5 29t-104.5 80.5t-58.5 117.5t-19.5 144t19 143.5t58 117.5t104.5 81t152.5 29q134 0 218.5 -77.5t87.5 -203.5h-177
q-2 65 -37.5 102t-98.5 37q-36 0 -63.5 -12.5t-43.5 -32.5t-26 -50.5t-13.5 -61.5t-3.5 -71q0 -110 32 -169.5t119 -59.5q132 0 138 132h177q-1 -123 -89 -199t-219 -76z" />
    <glyph glyph-name="cdotaccent" unicode="&#x10b;" horiz-adv-x="572" 
d="M290 570q-37 0 -61.5 23.5t-24.5 58.5t24.5 59t61.5 24q36 0 60.5 -24t24.5 -59t-24.5 -58.5t-60.5 -23.5zM290 -13q-126 0 -190.5 73.5t-64.5 188.5q0 117 65 190.5t190 73.5q107 0 175 -54t72 -150h-173q-2 35 -21.5 54t-52.5 19q-88 0 -88 -133q0 -130 88 -130
q34 0 53.5 21t20.5 52h173q-4 -97 -72.5 -151t-174.5 -54z" />
    <glyph glyph-name="Ccaron" unicode="&#x10c;" horiz-adv-x="722" 
d="M183 914h140l52 -72l53 72h140l-103 -142h-178zM377 -18q-87 0 -152.5 29t-104.5 80.5t-58.5 117.5t-19.5 144t19 143.5t58 117.5t104.5 81t152.5 29q134 0 218.5 -77.5t87.5 -203.5h-177q-2 65 -37.5 102t-98.5 37q-36 0 -63.5 -12.5t-43.5 -32.5t-26 -50.5t-13.5 -61.5
t-3.5 -71q0 -110 32 -169.5t119 -59.5q132 0 138 132h177q-1 -123 -89 -199t-219 -76z" />
    <glyph glyph-name="ccaron" unicode="&#x10d;" horiz-adv-x="572" 
d="M481 728l-100 -158h-182l-99 158h138l52 -88l52 88h139zM290 -13q-126 0 -190.5 73.5t-64.5 188.5q0 117 65 190.5t190 73.5q107 0 175 -54t72 -150h-173q-2 35 -21.5 54t-52.5 19q-88 0 -88 -133q0 -130 88 -130q34 0 53.5 21t20.5 52h173q-4 -97 -72.5 -151t-174.5 -54
z" />
    <glyph glyph-name="Dcaron" unicode="&#x10e;" horiz-adv-x="724" 
d="M161 914h140l52 -72l53 72h140l-103 -142h-178zM77 0v706h274q88 0 153 -26.5t103 -75.5t56 -111.5t18 -139.5q0 -162 -79.5 -257.5t-250.5 -95.5h-274zM243 135h79q104 0 143.5 56.5t39.5 161.5t-39.5 161.5t-143.5 56.5h-79v-436z" />
    <glyph glyph-name="dcaron" unicode="&#x10f;" horiz-adv-x="725" 
d="M387 448v258h157v-706h-153v58q-50 -71 -145 -71q-107 0 -159 74t-52 188q0 115 52 189.5t159 74.5q92 0 141 -65zM614 706h132l-40 -172h-115zM389 233v34q0 115 -91 115q-54 0 -75 -34.5t-21 -98.5q0 -61 20 -95.5t76 -34.5q91 0 91 114z" />
    <glyph glyph-name="Dcroat" unicode="&#x110;" horiz-adv-x="724" 
d="M351 706q88 0 153 -26.5t103 -75.5t56 -111.5t18 -139.5q0 -162 -79.5 -257.5t-250.5 -95.5h-274v305h-56v105h56v296h274zM322 135q104 0 143.5 56.5t39.5 161.5t-39.5 161.5t-143.5 56.5h-79v-161h144v-105h-144v-170h79z" />
    <glyph glyph-name="dcroat" unicode="&#x111;" horiz-adv-x="608" 
d="M572 651v-91h-28v-560h-153v58q-50 -71 -145 -71q-107 0 -159 74t-52 188q0 115 52 189.5t159 74.5q92 0 141 -65v112h-181v91h181v55h157v-55h28zM389 233v34q0 115 -91 115q-54 0 -75 -34.5t-21 -98.5q0 -61 20 -95.5t76 -34.5q91 0 91 114z" />
    <glyph glyph-name="Emacron" unicode="&#x112;" horiz-adv-x="571" 
d="M141 794v100h314v-100h-314zM77 0v706h439v-135h-273v-145h270v-136h-270v-155h273v-135h-439z" />
    <glyph glyph-name="emacron" unicode="&#x113;" horiz-adv-x="582" 
d="M441 695v-99h-305v99h305zM296 106q65 0 83 48h161q-11 -79 -77.5 -123t-162.5 -44q-134 0 -199.5 72t-65.5 192q0 116 64 189t189 73q85 0 145.5 -35t87.5 -98q25 -58 25 -169h-348q3 -53 24 -79t74 -26zM291 399q-43 0 -64.5 -23.5t-26.5 -71.5h182q-5 48 -26 71.5
t-65 23.5z" />
    <glyph glyph-name="Ebreve" unicode="&#x114;" horiz-adv-x="571" 
d="M300 765q-83 0 -128 38t-50 111h109q7 -63 69 -63q32 0 48.5 14.5t24.5 48.5h102q-8 -149 -175 -149zM77 0v706h439v-135h-273v-145h270v-136h-270v-155h273v-135h-439z" />
    <glyph glyph-name="ebreve" unicode="&#x115;" horiz-adv-x="582" 
d="M290 562q-174 0 -183 166h112q4 -42 21 -60t50 -18q32 0 49 18t21 60h110q-8 -166 -180 -166zM296 106q65 0 83 48h161q-11 -79 -77.5 -123t-162.5 -44q-134 0 -199.5 72t-65.5 192q0 116 64 189t189 73q85 0 145.5 -35t87.5 -98q25 -58 25 -169h-348q3 -53 24 -79
t74 -26zM291 399q-43 0 -64.5 -23.5t-26.5 -71.5h182q-5 48 -26 71.5t-65 23.5z" />
    <glyph glyph-name="Edotaccent" unicode="&#x116;" horiz-adv-x="571" 
d="M299 772q-38 0 -61.5 22.5t-23.5 58.5q0 35 24 57t61 22q36 0 59.5 -22.5t23.5 -56.5q0 -36 -23.5 -58.5t-59.5 -22.5zM77 0v706h439v-135h-273v-145h270v-136h-270v-155h273v-135h-439z" />
    <glyph glyph-name="edotaccent" unicode="&#x117;" horiz-adv-x="582" 
d="M289 570q-37 0 -61.5 23.5t-24.5 58.5t24.5 59t61.5 24q36 0 60.5 -24t24.5 -59t-24.5 -58.5t-60.5 -23.5zM296 106q65 0 83 48h161q-11 -79 -77.5 -123t-162.5 -44q-134 0 -199.5 72t-65.5 192q0 116 64 189t189 73q85 0 145.5 -35t87.5 -98q25 -58 25 -169h-348
q3 -53 24 -79t74 -26zM291 399q-43 0 -64.5 -23.5t-26.5 -71.5h182q-5 48 -26 71.5t-65 23.5z" />
    <glyph glyph-name="Eogonek" unicode="&#x118;" horiz-adv-x="571" 
d="M478 -122q22 0 39 7v-86q-33 -13 -78 -13q-56 0 -89 24.5t-33 70.5q0 71 94 119h-334v706h439v-135h-273v-145h270v-136h-270v-155h273v-135q-37 -26 -55.5 -46.5t-18.5 -43.5q0 -32 36 -32z" />
    <glyph glyph-name="eogonek" unicode="&#x119;" horiz-adv-x="567" 
d="M296 106q66 0 83 48h161q-5 -38 -26 -69.5t-65 -70.5q-39 -35 -55 -56t-16 -43q0 -37 39 -37q20 0 37 7v-87q-39 -13 -79 -13q-55 0 -88.5 26.5t-33.5 74.5q0 59 57 101h-10q-134 0 -199.5 72t-65.5 192q0 116 64 189t189 73q85 0 145.5 -35t87.5 -98q25 -58 25 -169
h-348q3 -53 24 -79t74 -26zM291 399q-43 0 -64.5 -23.5t-26.5 -71.5h182q-5 48 -26 71.5t-65 23.5z" />
    <glyph glyph-name="Ecaron" unicode="&#x11a;" horiz-adv-x="571" 
d="M106 914h140l52 -72l53 72h140l-103 -142h-178zM77 0v706h439v-135h-273v-145h270v-136h-270v-155h273v-135h-439z" />
    <glyph glyph-name="ecaron" unicode="&#x11b;" horiz-adv-x="582" 
d="M379 570h-182l-99 158h138l52 -88l52 88h139zM296 106q65 0 83 48h161q-11 -79 -77.5 -123t-162.5 -44q-134 0 -199.5 72t-65.5 192q0 116 64 189t189 73q85 0 145.5 -35t87.5 -98q25 -58 25 -169h-348q3 -53 24 -79t74 -26zM291 399q-43 0 -64.5 -23.5t-26.5 -71.5h182
q-5 48 -26 71.5t-65 23.5z" />
    <glyph glyph-name="Gcircumflex" unicode="&#x11c;" horiz-adv-x="725" 
d="M375 844l-52 -72h-140l104 142h178l103 -142h-140zM375 385h308v-52q0 -73 -17 -134t-52 -111t-95.5 -78t-142.5 -28q-169 0 -251.5 104t-82.5 267q0 78 19.5 144t58.5 117.5t105 80.5t153 29q128 0 210.5 -71.5t89.5 -190.5h-167q-6 59 -41.5 89.5t-95.5 30.5
q-47 0 -79 -17.5t-48 -50.5t-22 -71t-6 -90q0 -55 6.5 -93.5t23.5 -71t49.5 -48.5t81.5 -16q136 0 143 142h-148v119z" />
    <glyph glyph-name="gcircumflex" unicode="&#x11d;" horiz-adv-x="607" 
d="M294 658l-51 -88h-139l100 158h182l99 -158h-138zM391 499h153v-475q0 -238 -250 -238q-103 0 -169 39t-78 116h166q17 -38 79 -38q99 0 99 104v65q-51 -79 -153 -79q-103 0 -153 74t-50 188t50 186t153 72q102 0 153 -79v65zM389 233v35q0 114 -94 114q-54 0 -73.5 -34
t-19.5 -95q0 -62 20 -97.5t74 -35.5q93 0 93 113z" />
    <glyph glyph-name="Gbreve" unicode="&#x11e;" horiz-adv-x="725" 
d="M378 765q-83 0 -128 38t-50 111h109q7 -63 69 -63q32 0 48.5 14.5t24.5 48.5h102q-8 -149 -175 -149zM375 385h308v-52q0 -73 -17 -134t-52 -111t-95.5 -78t-142.5 -28q-169 0 -251.5 104t-82.5 267q0 78 19.5 144t58.5 117.5t105 80.5t153 29q128 0 210.5 -71.5
t89.5 -190.5h-167q-6 59 -41.5 89.5t-95.5 30.5q-47 0 -79 -17.5t-48 -50.5t-22 -71t-6 -90q0 -55 6.5 -93.5t23.5 -71t49.5 -48.5t81.5 -16q136 0 143 142h-148v119z" />
    <glyph glyph-name="gbreve" unicode="&#x11f;" horiz-adv-x="607" 
d="M295 562q-174 0 -183 166h112q4 -42 21 -60t50 -18q32 0 49 18t21 60h110q-8 -166 -180 -166zM391 499h153v-475q0 -238 -250 -238q-103 0 -169 39t-78 116h166q17 -38 79 -38q99 0 99 104v65q-51 -79 -153 -79q-103 0 -153 74t-50 188t50 186t153 72q102 0 153 -79v65z
M389 233v35q0 114 -94 114q-54 0 -73.5 -34t-19.5 -95q0 -62 20 -97.5t74 -35.5q93 0 93 113z" />
    <glyph glyph-name="Gdotaccent" unicode="&#x120;" horiz-adv-x="725" 
d="M377 772q-38 0 -61.5 22.5t-23.5 58.5q0 35 24 57t61 22q36 0 59.5 -22.5t23.5 -56.5q0 -36 -23.5 -58.5t-59.5 -22.5zM375 385h308v-52q0 -73 -17 -134t-52 -111t-95.5 -78t-142.5 -28q-169 0 -251.5 104t-82.5 267q0 78 19.5 144t58.5 117.5t105 80.5t153 29
q128 0 210.5 -71.5t89.5 -190.5h-167q-6 59 -41.5 89.5t-95.5 30.5q-47 0 -79 -17.5t-48 -50.5t-22 -71t-6 -90q0 -55 6.5 -93.5t23.5 -71t49.5 -48.5t81.5 -16q136 0 143 142h-148v119z" />
    <glyph glyph-name="gdotaccent" unicode="&#x121;" horiz-adv-x="607" 
d="M294 570q-37 0 -61.5 23.5t-24.5 58.5t24.5 59t61.5 24q36 0 60.5 -24t24.5 -59t-24.5 -58.5t-60.5 -23.5zM391 499h153v-475q0 -238 -250 -238q-103 0 -169 39t-78 116h166q17 -38 79 -38q99 0 99 104v65q-51 -79 -153 -79q-103 0 -153 74t-50 188t50 186t153 72
q102 0 153 -79v65zM389 233v35q0 114 -94 114q-54 0 -73.5 -34t-19.5 -95q0 -62 20 -97.5t74 -35.5q93 0 93 113z" />
    <glyph glyph-name="uni0122" unicode="&#x122;" horiz-adv-x="725" 
d="M375 385h308v-52q0 -73 -17 -134t-52 -111t-95.5 -78t-142.5 -28q-169 0 -251.5 104t-82.5 267q0 78 19.5 144t58.5 117.5t105 80.5t153 29q128 0 210.5 -71.5t89.5 -190.5h-167q-6 59 -41.5 89.5t-95.5 30.5q-47 0 -79 -17.5t-48 -50.5t-22 -71t-6 -90q0 -55 6.5 -93.5
t23.5 -71t49.5 -48.5t81.5 -16q136 0 143 142h-148v119zM259 -200l38 148h161l-56 -148h-143z" />
    <glyph glyph-name="uni0123" unicode="&#x123;" horiz-adv-x="607" 
d="M384 718l-38 -148h-161l55 148h144zM391 499h153v-475q0 -238 -250 -238q-103 0 -169 39t-78 116h166q17 -38 79 -38q99 0 99 104v65q-51 -79 -153 -79q-103 0 -153 74t-50 188t50 186t153 72q102 0 153 -79v65zM389 233v35q0 114 -94 114q-54 0 -73.5 -34t-19.5 -95
q0 -62 20 -97.5t74 -35.5q93 0 93 113z" />
    <glyph glyph-name="Hcircumflex" unicode="&#x124;" horiz-adv-x="734" 
d="M175 772l104 142h178l103 -142h-140l-53 72l-52 -72h-140zM77 0v706h166v-279h248v279h166v-706h-166v287h-248v-287h-166z" />
    <glyph glyph-name="hcircumflex" unicode="&#x125;" horiz-adv-x="592" 
d="M297 844l-52 -72h-140l104 142h178l103 -142h-140zM366 513q80 0 123 -48t43 -138v-327h-157v292q0 47 -18 68.5t-57 21.5q-80 0 -80 -94v-288h-156v706h156v-267q51 74 146 74z" />
    <glyph glyph-name="Hbar" unicode="&#x126;" horiz-adv-x="734" 
d="M491 706h166v-706h-166v287h-248v-287h-166v706h166v-94h248v94zM243 427h248v90h-248v-90z" />
    <glyph glyph-name="hbar" unicode="&#x127;" horiz-adv-x="592" 
d="M366 513q80 0 123 -48t43 -138v-327h-157v292q0 47 -18 68.5t-57 21.5q-80 0 -80 -94v-288h-156v560h-41v91h41v55h156v-55h169v-91h-169v-121q51 74 146 74z" />
    <glyph glyph-name="Itilde" unicode="&#x128;" horiz-adv-x="320" 
d="M221 769q-33 0 -64 25q-33 24 -48 24q-25 0 -28 -47h-77q4 143 96 143q33 0 67 -28q24 -20 37 -20q15 0 21.5 10.5t10.5 37.5h80q-3 -75 -26 -110t-69 -35zM77 0v706h166v-706h-166z" />
    <glyph glyph-name="itilde" unicode="&#x129;" horiz-adv-x="284" 
d="M202 569q-39 0 -70 35q-21 21 -31 21q-23 0 -24 -54h-83q2 83 21 121t65 38q38 0 71 -35q18 -21 31 -21t18 13t6 41h84q-2 -84 -21 -121.5t-67 -37.5zM64 0v499h156v-499h-156z" />
    <glyph glyph-name="Imacron" unicode="&#x12a;" horiz-adv-x="320" 
d="M25 793v100h268v-100h-268zM77 0v706h166v-706h-166z" />
    <glyph glyph-name="imacron" unicode="&#x12b;" horiz-adv-x="284" 
d="M14 596v99h255v-99h-255zM64 0v499h156v-499h-156z" />
    <glyph glyph-name="Ibreve" unicode="&#x12c;" horiz-adv-x="320" 
d="M160 765q-76 0 -115.5 38t-39.5 111h105q3 -34 14 -48t36 -14q24 0 35 14t13 48h106q0 -73 -39 -111t-115 -38zM77 0v706h166v-706h-166z" />
    <glyph glyph-name="ibreve" unicode="&#x12d;" horiz-adv-x="284" 
d="M142 561q-145 0 -145 167h98q0 -44 11 -61t36 -17q24 0 35.5 17t11.5 61h98q-2 -167 -145 -167zM64 0v499h156v-499h-156z" />
    <glyph glyph-name="Iogonek" unicode="&#x12e;" horiz-adv-x="320" 
d="M215 -122q15 0 29 7v-87q-30 -12 -68 -12q-51 0 -81.5 22.5t-30.5 64.5q0 76 75 127h-62v706h166v-706q-54 -56 -54 -98q0 -24 26 -24z" />
    <glyph glyph-name="iogonek" unicode="&#x12f;" horiz-adv-x="284" 
d="M142 570q-37 0 -61.5 23.5t-24.5 58.5t24.5 59t61.5 24q36 0 60.5 -24t24.5 -59t-24.5 -58.5t-60.5 -23.5zM166 -98q0 -24 26 -24q15 0 29 7v-87q-30 -12 -68 -12q-51 0 -81.5 22.5t-30.5 64.5q0 76 75 127h-52v499h156v-499q-54 -56 -54 -98z" />
    <glyph glyph-name="Idotaccent" unicode="&#x130;" horiz-adv-x="320" 
d="M160 772q-38 0 -61.5 22.5t-23.5 58.5q0 35 24 57t61 22q36 0 59.5 -22.5t23.5 -56.5q0 -36 -23.5 -58.5t-59.5 -22.5zM77 0v706h166v-706h-166z" />
    <glyph glyph-name="dotlessi" unicode="&#x131;" horiz-adv-x="284" 
d="M64 0v499h156v-499h-156z" />
    <glyph glyph-name="IJ" unicode="&#x132;" horiz-adv-x="709" 
d="M77 0v706h166v-706h-166zM402 -3q-34 0 -62 4v150q16 -3 39 -3q57 0 79.5 24.5t22.5 87.5v446h166v-468q0 -123 -58 -182t-187 -59z" />
    <glyph glyph-name="ij" unicode="&#x133;" horiz-adv-x="568" 
d="M142 570q-37 0 -61.5 23.5t-24.5 58.5t24.5 59t61.5 24q36 0 61 -24t25 -59q0 -34 -25 -58t-61 -24zM426 570q-37 0 -61.5 23.5t-24.5 58.5t24.5 59t61.5 24q36 0 61 -24t25 -59q0 -34 -25 -58t-61 -24zM64 0v499h156v-499h-156zM335 -204q-46 0 -67 3v136q12 -2 32 -2
q48 0 48 50v516h156v-534q0 -89 -40 -129t-129 -40z" />
    <glyph glyph-name="Jcircumflex" unicode="&#x134;" horiz-adv-x="389" 
d="M73 772l83 142h175l85 -142h-131l-41 73l-40 -73h-131zM82 -3q-34 0 -62 4v150q16 -3 39 -3q57 0 79.5 24.5t22.5 87.5v446h166v-468q0 -123 -58 -182t-187 -59z" />
    <glyph glyph-name="jcircumflex" unicode="&#x135;" horiz-adv-x="284" 
d="M-8 570l75 158h150l74 -158h-112l-37 85l-38 -85h-112zM51 -204q-46 0 -67 3v136q12 -2 32 -2q48 0 48 50v516h156v-534q0 -89 -40 -129t-129 -40z" />
    <glyph glyph-name="uni0136" unicode="&#x136;" horiz-adv-x="691" 
d="M387 390l298 -390h-204l-238 320v-320h-166v706h166v-260l205 260h195zM230 -200l38 148h161l-56 -148h-143z" />
    <glyph glyph-name="uni0137" unicode="&#x137;" horiz-adv-x="558" 
d="M220 209v-209h-156v706h156v-371l134 164h196l-194 -226l217 -273h-203zM174 -200l38 148h161l-56 -148h-143z" />
    <glyph glyph-name="kgreenlandic" unicode="&#x138;" horiz-adv-x="558" 
d="M573 0h-203l-150 209v-209h-156v499h156v-164l134 164h196l-194 -226z" />
    <glyph glyph-name="Lacute" unicode="&#x139;" horiz-adv-x="487" 
d="M60 772l95 142h160l-110 -142h-145zM77 0v706h166v-561h223v-145h-389z" />
    <glyph glyph-name="lacute" unicode="&#x13a;" horiz-adv-x="284" 
d="M49 772l95 142h160l-110 -142h-145zM64 0v706h156v-706h-156z" />
    <glyph glyph-name="uni013B" unicode="&#x13b;" horiz-adv-x="487" 
d="M77 0v706h166v-561h223v-145h-389zM131 -200l38 148h161l-56 -148h-143z" />
    <glyph glyph-name="uni013C" unicode="&#x13c;" horiz-adv-x="284" 
d="M64 0v706h156v-706h-156zM25 -200l38 148h161l-56 -148h-143z" />
    <glyph glyph-name="Lcaron" unicode="&#x13d;" horiz-adv-x="487" 
d="M77 0v706h166v-561h223v-145h-389zM299 534l23 172h132l-40 -172h-115z" />
    <glyph glyph-name="lcaron" unicode="&#x13e;" horiz-adv-x="393" 
d="M64 0v706h156v-706h-156zM259 534l23 172h132l-40 -172h-115z" />
    <glyph glyph-name="Ldot" unicode="&#x13f;" horiz-adv-x="580" 
d="M77 0v706h166v-561h223v-145h-389zM450 318q-43 0 -70.5 27t-27.5 69t27.5 69.5t70.5 27.5t71 -27.5t28 -69.5t-28 -69t-71 -27z" />
    <glyph glyph-name="ldot" unicode="&#x140;" horiz-adv-x="477" 
d="M64 0v706h156v-706h-156zM381 240q-43 0 -71 27t-28 69t28 69t71 27t70.5 -27t27.5 -69t-27.5 -69t-70.5 -27z" />
    <glyph glyph-name="Lslash" unicode="&#x141;" horiz-adv-x="487" 
d="M243 145h223v-145h-389v272l-57 -37v123l57 38v310h166v-227l126 84v-125l-126 -84v-209z" />
    <glyph glyph-name="lslash" unicode="&#x142;" horiz-adv-x="300" 
d="M295 531v-130l-67 -48v-353h-156v278l-68 -45v129l68 45v299h156v-222z" />
    <glyph glyph-name="Nacute" unicode="&#x143;" horiz-adv-x="753" 
d="M284 772l95 142h160l-110 -142h-145zM77 0v706h164l274 -446v446h162v-706h-166l-273 447v-447h-161z" />
    <glyph glyph-name="nacute" unicode="&#x144;" horiz-adv-x="592" 
d="M462 727l-104 -157h-138l88 157h154zM366 513q80 0 123 -48t43 -138v-327h-157v292q0 47 -18 68.5t-57 21.5q-80 0 -80 -94v-288h-156v499h156v-60q51 74 146 74z" />
    <glyph glyph-name="uni0145" unicode="&#x145;" horiz-adv-x="753" 
d="M77 0v706h164l274 -446v446h162v-706h-166l-273 447v-447h-161zM257 -200l38 148h161l-56 -148h-143z" />
    <glyph glyph-name="uni0146" unicode="&#x146;" horiz-adv-x="592" 
d="M366 513q80 0 123 -48t43 -138v-327h-157v292q0 47 -18 68.5t-57 21.5q-80 0 -80 -94v-288h-156v499h156v-60q51 74 146 74zM183 -200l38 148h161l-56 -148h-143z" />
    <glyph glyph-name="Ncaron" unicode="&#x147;" horiz-adv-x="753" 
d="M184 914h140l52 -72l53 72h140l-103 -142h-178zM77 0v706h164l274 -446v446h162v-706h-166l-273 447v-447h-161z" />
    <glyph glyph-name="ncaron" unicode="&#x148;" horiz-adv-x="592" 
d="M401 570h-182l-99 158h138l52 -88l52 88h139zM366 513q80 0 123 -48t43 -138v-327h-157v292q0 47 -18 68.5t-57 21.5q-80 0 -80 -94v-288h-156v499h156v-60q51 74 146 74z" />
    <glyph glyph-name="napostrophe" unicode="&#x149;" horiz-adv-x="777" 
d="M104 706h163l-110 -282h-121zM551 513q80 0 123 -48t43 -138v-327h-157v292q0 47 -18 68.5t-56 21.5q-80 0 -80 -94v-288h-157v499h157v-59q51 73 145 73z" />
    <glyph glyph-name="Eng" unicode="&#x14a;" horiz-adv-x="753" 
d="M515 706h162v-745q0 -86 -41 -125.5t-130 -39.5q-37 0 -71 3v130q20 -2 29 -2q52 0 52 51v24l-278 445v-447h-161v706h164l274 -440v440z" />
    <glyph glyph-name="eng" unicode="&#x14b;" horiz-adv-x="592" 
d="M366 513q80 0 123 -48t43 -138v-361q0 -89 -40 -129.5t-128 -40.5q-36 0 -69 3v135q14 -2 33 -2q47 0 47 50v310q0 47 -18 68.5t-57 21.5q-80 0 -80 -94v-288h-156v499h156v-60q51 74 146 74z" />
    <glyph glyph-name="Omacron" unicode="&#x14c;" horiz-adv-x="754" 
d="M220 794v100h314v-100h-314zM377 -18q-87 0 -153.5 29.5t-105 82t-57.5 117.5t-19 142q0 78 19.5 143.5t58.5 117.5t104.5 81t152.5 29t153.5 -29.5t105 -81.5t57.5 -117t19 -143t-19 -144t-58 -117.5t-105 -80.5t-153 -29zM377 124q158 0 158 229t-158 229
q-48 0 -80.5 -18.5t-48.5 -52.5t-22.5 -71.5t-6.5 -86.5q0 -39 4 -70.5t14.5 -62t27.5 -51t45.5 -33t66.5 -12.5z" />
    <glyph glyph-name="omacron" unicode="&#x14d;" horiz-adv-x="588" 
d="M142 596v99h305v-99h-305zM294 -13q-128 0 -193.5 74.5t-65.5 189.5q0 116 66 189t193 73q129 0 194 -73.5t65 -188.5q0 -117 -65.5 -190.5t-193.5 -73.5zM294 119q55 0 73.5 35t18.5 97q0 63 -19 97t-73 34q-53 0 -72.5 -34t-19.5 -97q0 -64 20 -98t72 -34z" />
    <glyph glyph-name="Obreve" unicode="&#x14e;" horiz-adv-x="754" 
d="M379 765q-83 0 -128 38t-50 111h109q7 -63 69 -63q32 0 48.5 14.5t24.5 48.5h102q-8 -149 -175 -149zM377 -18q-87 0 -153.5 29.5t-105 82t-57.5 117.5t-19 142q0 78 19.5 143.5t58.5 117.5t104.5 81t152.5 29t153.5 -29.5t105 -81.5t57.5 -117t19 -143t-19 -144
t-58 -117.5t-105 -80.5t-153 -29zM377 124q158 0 158 229t-158 229q-48 0 -80.5 -18.5t-48.5 -52.5t-22.5 -71.5t-6.5 -86.5q0 -39 4 -70.5t14.5 -62t27.5 -51t45.5 -33t66.5 -12.5z" />
    <glyph glyph-name="obreve" unicode="&#x14f;" horiz-adv-x="588" 
d="M295 562q-174 0 -183 166h112q4 -42 21 -60t50 -18q32 0 49 18t21 60h110q-8 -166 -180 -166zM294 -13q-128 0 -193.5 74.5t-65.5 189.5q0 116 66 189t193 73q129 0 194 -73.5t65 -188.5q0 -117 -65.5 -190.5t-193.5 -73.5zM294 119q55 0 73.5 35t18.5 97q0 63 -19 97
t-73 34q-53 0 -72.5 -34t-19.5 -97q0 -64 20 -98t72 -34z" />
    <glyph glyph-name="Ohungarumlaut" unicode="&#x150;" horiz-adv-x="754" 
d="M221 772l94 142h132l-119 -142h-107zM401 772l93 142h132l-118 -142h-107zM377 -18q-87 0 -153.5 29.5t-105 82t-57.5 117.5t-19 142q0 78 19.5 143.5t58.5 117.5t104.5 81t152.5 29t153.5 -29.5t105 -81.5t57.5 -117t19 -143t-19 -144t-58 -117.5t-105 -80.5t-153 -29z
M377 124q158 0 158 229t-158 229q-48 0 -80.5 -18.5t-48.5 -52.5t-22.5 -71.5t-6.5 -86.5q0 -39 4 -70.5t14.5 -62t27.5 -51t45.5 -33t66.5 -12.5z" />
    <glyph glyph-name="ohungarumlaut" unicode="&#x151;" horiz-adv-x="588" 
d="M138 570l94 158h130l-119 -158h-105zM317 570l93 158h130l-118 -158h-105zM294 -13q-128 0 -193.5 74.5t-65.5 189.5q0 116 66 189t193 73q129 0 194 -73.5t65 -188.5q0 -117 -65.5 -190.5t-193.5 -73.5zM294 119q55 0 73.5 35t18.5 97q0 63 -19 97t-73 34
q-53 0 -72.5 -34t-19.5 -97q0 -64 20 -98t72 -34z" />
    <glyph glyph-name="OE" unicode="&#x152;" horiz-adv-x="1015" 
d="M960 571h-273v-145h270v-136h-270v-155h273v-135h-410v51q-74 -61 -189 -61q-84 0 -147 28t-99.5 79t-54.5 114.5t-18 141.5t18.5 142t55.5 114.5t99.5 78.5t145.5 28q115 0 189 -61v51h410v-135zM371 125q45 0 76.5 18t47.5 52t22.5 71.5t6.5 86.5q0 50 -6.5 88
t-22.5 71.5t-47 51.5t-77 18t-77.5 -18t-47 -52t-21.5 -71.5t-6 -87.5q0 -105 33 -166.5t119 -61.5z" />
    <glyph glyph-name="oe" unicode="&#x153;" horiz-adv-x="883" 
d="M608 106q55 0 70 48h164q-12 -79 -75 -123.5t-154 -44.5q-106 0 -168 57q-61 -56 -162 -56q-123 0 -185.5 74.5t-62.5 189.5q0 116 63 189t185 73q101 0 161 -55q60 55 157 55q160 0 220 -130q26 -57 26 -172h-324q3 -51 21.5 -78t63.5 -27zM604 400q-40 0 -58 -24
t-22 -71h160q-3 46 -20.5 70.5t-59.5 24.5zM283 119q47 0 63 35.5t16 96.5q0 62 -16 96.5t-63 34.5q-33 0 -52 -20.5t-24 -46.5t-5 -64q0 -132 81 -132z" />
    <glyph glyph-name="Racute" unicode="&#x154;" horiz-adv-x="660" 
d="M482 914l-110 -142h-145l95 142h160zM465 0l-183 277h-39v-277h-166v706h291q230 0 230 -207q0 -172 -141 -211l193 -288h-185zM243 581v-186h75q58 0 83.5 24t25.5 75q0 48 -26 67.5t-83 19.5h-75z" />
    <glyph glyph-name="racute" unicode="&#x155;" horiz-adv-x="405" 
d="M385 727l-104 -157h-138l88 157h154zM341 507q25 0 49 -7v-138q-20 5 -47 5q-123 0 -123 -151v-216h-156v499h154v-66q41 74 123 74z" />
    <glyph glyph-name="uni0156" unicode="&#x156;" horiz-adv-x="660" 
d="M457 288l193 -288h-185l-183 277h-39v-277h-166v706h291q230 0 230 -207q0 -172 -141 -211zM243 581v-186h75q58 0 83.5 24t25.5 75q0 48 -26 67.5t-83 19.5h-75zM233 -200l38 148h161l-56 -148h-143z" />
    <glyph glyph-name="uni0157" unicode="&#x157;" horiz-adv-x="405" 
d="M341 507q25 0 49 -7v-138q-20 5 -47 5q-123 0 -123 -151v-216h-156v499h154v-66q41 74 123 74zM25 -200l38 148h161l-56 -148h-143z" />
    <glyph glyph-name="Rcaron" unicode="&#x158;" horiz-adv-x="660" 
d="M410 772h-178l-104 142h140l52 -72l53 72h140zM465 0l-183 277h-39v-277h-166v706h291q230 0 230 -207q0 -172 -141 -211l193 -288h-185zM243 581v-186h75q58 0 83.5 24t25.5 75q0 48 -26 67.5t-83 19.5h-75z" />
    <glyph glyph-name="rcaron" unicode="&#x159;" horiz-adv-x="405" 
d="M323 570h-182l-99 158h138l52 -88l52 88h139zM218 433q41 74 123 74q25 0 49 -7v-138q-20 5 -47 5q-123 0 -123 -151v-216h-156v499h154v-66z" />
    <glyph glyph-name="Sacute" unicode="&#x15a;" horiz-adv-x="628" 
d="M221 772l95 142h160l-110 -142h-145zM313 -18q-142 0 -212.5 64.5t-70.5 170.5h185q0 -51 22.5 -79t78.5 -28q48 0 73 21.5t25 57.5q0 41 -37 63t-152 60q-90 30 -134.5 75t-44.5 121q0 97 69 156.5t194 59.5q126 0 191 -61t65 -164h-173q0 48 -19.5 75t-69.5 27
q-42 0 -64.5 -19.5t-22.5 -50.5q0 -37 36 -56.5t139 -50.5q108 -32 157 -77.5t49 -132.5q0 -109 -73.5 -170.5t-210.5 -61.5z" />
    <glyph glyph-name="sacute" unicode="&#x15b;" horiz-adv-x="504" 
d="M162 570l88 157h154l-104 -157h-138zM253 -17q-111 0 -165.5 48t-54.5 133h155q0 -73 63 -73q54 0 54 44q0 14 -6.5 24.5t-22.5 18.5t-30 12.5t-40 12.5q-78 23 -116.5 56t-38.5 98q0 74 52.5 115t148.5 41q98 0 148.5 -41.5t50.5 -117.5h-149q0 61 -53 61
q-23 0 -35.5 -10t-12.5 -25q0 -25 21.5 -38t83.5 -31q87 -25 126 -59.5t39 -100.5q0 -82 -57.5 -125t-160.5 -43z" />
    <glyph glyph-name="Scircumflex" unicode="&#x15c;" horiz-adv-x="628" 
d="M121 772l104 142h178l103 -142h-140l-53 72l-52 -72h-140zM313 -18q-142 0 -212.5 64.5t-70.5 170.5h185q0 -51 22.5 -79t78.5 -28q48 0 73 21.5t25 57.5q0 41 -37 63t-152 60q-90 30 -134.5 75t-44.5 121q0 97 69 156.5t194 59.5q126 0 191 -61t65 -164h-173
q0 48 -19.5 75t-69.5 27q-42 0 -64.5 -19.5t-22.5 -50.5q0 -37 36 -56.5t139 -50.5q108 -32 157 -77.5t49 -132.5q0 -109 -73.5 -170.5t-210.5 -61.5z" />
    <glyph glyph-name="scircumflex" unicode="&#x15d;" horiz-adv-x="504" 
d="M62 570l100 158h182l99 -158h-138l-53 88l-51 -88h-139zM253 -17q-111 0 -165.5 48t-54.5 133h155q0 -73 63 -73q54 0 54 44q0 14 -6.5 24.5t-22.5 18.5t-30 12.5t-40 12.5q-78 23 -116.5 56t-38.5 98q0 74 52.5 115t148.5 41q98 0 148.5 -41.5t50.5 -117.5h-149
q0 61 -53 61q-23 0 -35.5 -10t-12.5 -25q0 -25 21.5 -38t83.5 -31q87 -25 126 -59.5t39 -100.5q0 -82 -57.5 -125t-160.5 -43z" />
    <glyph glyph-name="Scedilla" unicode="&#x15e;" horiz-adv-x="628" 
d="M597 214q0 -100 -62 -160t-177 -70l-5 -20h7q46 0 72.5 -25.5t26.5 -66.5q0 -106 -152 -106q-53 0 -101 17l16 74q32 -14 72 -14q56 0 56 33q0 31 -59 31h-57l18 79q-111 13 -166.5 75t-55.5 156h185q0 -51 22.5 -79t78.5 -28q48 0 73 21.5t25 57.5q0 41 -37 63t-152 60
q-90 30 -134.5 75t-44.5 121q0 97 69 156.5t194 59.5q126 0 191 -61t65 -164h-173q0 48 -19.5 75t-69.5 27q-42 0 -64.5 -19.5t-22.5 -50.5q0 -37 36 -56.5t139 -50.5q108 -32 157 -77.5t49 -132.5z" />
    <glyph glyph-name="scedilla" unicode="&#x15f;" horiz-adv-x="504" 
d="M471 151q0 -73 -45 -115t-127 -51l-5 -21h7q46 0 72.5 -25.5t26.5 -66.5q0 -106 -152 -106q-53 0 -101 17l16 74q32 -14 72 -14q56 0 56 33q0 31 -59 31h-57l19 80q-161 25 -161 177h155q0 -73 63 -73q54 0 54 44q0 14 -6.5 24.5t-22.5 18.5t-30 12.5t-40 12.5
q-78 23 -116.5 56t-38.5 98q0 74 52.5 115t148.5 41q98 0 148.5 -41.5t50.5 -117.5h-149q0 61 -53 61q-23 0 -35.5 -10t-12.5 -25q0 -25 21.5 -38t83.5 -31q87 -25 126 -59.5t39 -100.5z" />
    <glyph glyph-name="Scaron" unicode="&#x160;" horiz-adv-x="628" 
d="M121 914h140l52 -72l53 72h140l-103 -142h-178zM313 -18q-142 0 -212.5 64.5t-70.5 170.5h185q0 -51 22.5 -79t78.5 -28q48 0 73 21.5t25 57.5q0 41 -37 63t-152 60q-90 30 -134.5 75t-44.5 121q0 97 69 156.5t194 59.5q126 0 191 -61t65 -164h-173q0 48 -19.5 75
t-69.5 27q-42 0 -64.5 -19.5t-22.5 -50.5q0 -37 36 -56.5t139 -50.5q108 -32 157 -77.5t49 -132.5q0 -109 -73.5 -170.5t-210.5 -61.5z" />
    <glyph glyph-name="scaron" unicode="&#x161;" horiz-adv-x="504" 
d="M443 728l-100 -158h-182l-99 158h138l52 -88l52 88h139zM253 -17q-111 0 -165.5 48t-54.5 133h155q0 -73 63 -73q54 0 54 44q0 14 -6.5 24.5t-22.5 18.5t-30 12.5t-40 12.5q-78 23 -116.5 56t-38.5 98q0 74 52.5 115t148.5 41q98 0 148.5 -41.5t50.5 -117.5h-149
q0 61 -53 61q-23 0 -35.5 -10t-12.5 -25q0 -25 21.5 -38t83.5 -31q87 -25 126 -59.5t39 -100.5q0 -82 -57.5 -125t-160.5 -43z" />
    <glyph glyph-name="uni0162" unicode="&#x162;" horiz-adv-x="559" 
d="M363 0h-34l-9 -36h7q46 0 72.5 -25.5t26.5 -66.5q0 -106 -152 -106q-53 0 -101 17l16 74q32 -14 72 -14q56 0 56 33q0 31 -59 31h-57l22 93h-26v571h-177v135h519v-135h-176v-571z" />
    <glyph glyph-name="uni0163" unicode="&#x163;" horiz-adv-x="372" 
d="M264 -36q46 0 72.5 -25.5t26.5 -66.5q0 -106 -152 -106q-53 0 -101 17l16 74q32 -14 72 -14q56 0 56 33q0 31 -59 31h-57l22 94q-44 14 -64 52t-20 105v217h-64v124h64v117h157v-117h111v-124h-111v-191q0 -35 14.5 -50t45.5 -15q23 0 50 6v-123q-43 -9 -79 -10l-7 -28h7
z" />
    <glyph glyph-name="Tcaron" unicode="&#x164;" horiz-adv-x="559" 
d="M87 914h140l52 -72l53 72h140l-103 -142h-178zM197 0v571h-177v135h519v-135h-176v-571h-166z" />
    <glyph glyph-name="tcaron" unicode="&#x165;" horiz-adv-x="422" 
d="M260 536l23 172h132l-40 -172h-115zM238 -9q-87 0 -124.5 38t-37.5 129v217h-64v124h64v117h157v-117h111v-124h-111v-191q0 -35 14.5 -50t45.5 -15q23 0 50 6v-123q-52 -11 -105 -11z" />
    <glyph glyph-name="Tbar" unicode="&#x166;" horiz-adv-x="559" 
d="M539 571h-176v-145h111v-100h-111v-326h-166v326h-111v100h111v145h-177v135h519v-135z" />
    <glyph glyph-name="tbar" unicode="&#x167;" horiz-adv-x="372" 
d="M345 211h-112v-27q0 -35 14.5 -50t45.5 -15q23 0 50 6v-123q-52 -11 -105 -11q-87 0 -124.5 38t-37.5 129v53h-64v98h64v66h-64v124h64v117h157v-117h111v-124h-111v-66h112v-98z" />
    <glyph glyph-name="Utilde" unicode="&#x168;" horiz-adv-x="690" 
d="M431 768q-38 0 -86 25q-48 24 -69 24q-33 0 -38 -48h-83q6 146 109 146q43 0 88 -29q33 -20 57 -20q19 0 27.5 11.5t14.5 37.5h85q-5 -147 -105 -147zM344 -18q-145 0 -214 66.5t-69 198.5v459h167v-447q0 -68 25.5 -101t90.5 -33q66 0 92 33t26 101v447h166v-459
q0 -132 -69.5 -198.5t-214.5 -66.5z" />
    <glyph glyph-name="utilde" unicode="&#x169;" horiz-adv-x="592" 
d="M233 624q-30 0 -32 -53h-89q2 81 27 120t76 39q37 0 84 -29q39 -26 59 -26q17 0 24 12.5t9 40.5h89q-2 -81 -27 -120t-77 -39q-42 0 -83 28q-41 27 -60 27zM372 499h156v-499h-156v60q-51 -74 -146 -74q-80 0 -123 48t-43 138v327h157v-292q0 -47 18 -68.5t57 -21.5
q80 0 80 94v288z" />
    <glyph glyph-name="Umacron" unicode="&#x16a;" horiz-adv-x="690" 
d="M188 794v100h314v-100h-314zM344 -18q-145 0 -214 66.5t-69 198.5v459h167v-447q0 -68 25.5 -101t90.5 -33q66 0 92 33t26 101v447h166v-459q0 -132 -69.5 -198.5t-214.5 -66.5z" />
    <glyph glyph-name="umacron" unicode="&#x16b;" horiz-adv-x="592" 
d="M449 695v-99h-305v99h305zM372 499h156v-499h-156v60q-51 -74 -146 -74q-80 0 -123 48t-43 138v327h157v-292q0 -47 18 -68.5t57 -21.5q80 0 80 94v288z" />
    <glyph glyph-name="Ubreve" unicode="&#x16c;" horiz-adv-x="690" 
d="M347 765q-83 0 -128 38t-50 111h109q7 -63 69 -63q32 0 48.5 14.5t24.5 48.5h102q-8 -149 -175 -149zM344 -18q-145 0 -214 66.5t-69 198.5v459h167v-447q0 -68 25.5 -101t90.5 -33q66 0 92 33t26 101v447h166v-459q0 -132 -69.5 -198.5t-214.5 -66.5z" />
    <glyph glyph-name="ubreve" unicode="&#x16d;" horiz-adv-x="592" 
d="M298 562q-174 0 -183 166h112q4 -42 21 -60t50 -18q32 0 49 18t21 60h110q-8 -166 -180 -166zM372 499h156v-499h-156v60q-51 -74 -146 -74q-80 0 -123 48t-43 138v327h157v-292q0 -47 18 -68.5t57 -21.5q80 0 80 94v288z" />
    <glyph glyph-name="Uring" unicode="&#x16e;" horiz-adv-x="690" 
d="M345 738q-60 0 -97.5 34.5t-37.5 89.5q0 56 37 90t98 34q62 0 99.5 -34t37.5 -90q0 -55 -38 -89.5t-99 -34.5zM345 815q23 0 36.5 13t13.5 34q0 22 -13.5 35.5t-36.5 13.5q-22 0 -35 -13.5t-13 -35.5q0 -21 13 -34t35 -13zM344 -18q-145 0 -214 66.5t-69 198.5v459h167
v-447q0 -68 25.5 -101t90.5 -33q66 0 92 33t26 101v447h166v-459q0 -132 -69.5 -198.5t-214.5 -66.5z" />
    <glyph glyph-name="uring" unicode="&#x16f;" horiz-adv-x="592" 
d="M295 549q-60 0 -97.5 34.5t-37.5 89.5q0 56 37 90t98 34q62 0 99.5 -34t37.5 -90q0 -55 -38 -89.5t-99 -34.5zM295 722q-22 0 -35 -13.5t-13 -35.5q0 -21 13 -34t35 -13q23 0 36.5 13t13.5 34q0 22 -13.5 35.5t-36.5 13.5zM372 499h156v-499h-156v60q-51 -74 -146 -74
q-80 0 -123 48t-43 138v327h157v-292q0 -47 18 -68.5t57 -21.5q80 0 80 94v288z" />
    <glyph glyph-name="Uhungarumlaut" unicode="&#x170;" horiz-adv-x="690" 
d="M189 772l94 142h132l-119 -142h-107zM369 772l93 142h132l-118 -142h-107zM344 -18q-145 0 -214 66.5t-69 198.5v459h167v-447q0 -68 25.5 -101t90.5 -33q66 0 92 33t26 101v447h166v-459q0 -132 -69.5 -198.5t-214.5 -66.5z" />
    <glyph glyph-name="uhungarumlaut" unicode="&#x171;" horiz-adv-x="592" 
d="M364 728l-119 -158h-105l94 158h130zM424 570h-105l93 158h130zM372 211v288h156v-499h-156v60q-51 -74 -146 -74q-80 0 -123 48t-43 138v327h157v-292q0 -47 18 -68.5t57 -21.5q80 0 80 94z" />
    <glyph glyph-name="Uogonek" unicode="&#x172;" horiz-adv-x="690" 
d="M462 706h166v-459q0 -87 -27 -143t-82 -94q-38 -28 -56.5 -50t-18.5 -47q0 -18 10.5 -28t26.5 -10q19 0 41 8v-85q-39 -13 -77 -13q-55 0 -88.5 26t-33.5 74q0 56 52 98q-10 -1 -31 -1q-145 0 -214 66.5t-69 198.5v459h167v-447q0 -68 25.5 -101t90.5 -33q66 0 92 33
t26 101v447z" />
    <glyph glyph-name="uogonek" unicode="&#x173;" horiz-adv-x="592" 
d="M490 -122q22 0 39 7v-86q-33 -13 -78 -13q-56 0 -89 24.5t-33 70.5q0 71 94 119h-51v60q-51 -74 -146 -74q-80 0 -123 48t-43 138v327h157v-292q0 -47 18 -68.5t57 -21.5q80 0 80 94v288h156v-499q-37 -26 -55.5 -46.5t-18.5 -43.5q0 -32 36 -32z" />
    <glyph glyph-name="Wcircumflex" unicode="&#x174;" horiz-adv-x="943" 
d="M472 844l-52 -72h-140l104 142h178l103 -142h-140zM774 706h164l-186 -706h-173l-107 474l-107 -474h-172l-188 706h164l113 -465l104 465h174l102 -463z" />
    <glyph glyph-name="wcircumflex" unicode="&#x175;" horiz-adv-x="829" 
d="M413 658l-51 -88h-139l100 158h182l99 -158h-138zM649 499h169l-173 -499h-150l-80 291l-82 -291h-151l-171 499h168l81 -295l88 295h130l89 -293z" />
    <glyph glyph-name="Ycircumflex" unicode="&#x176;" horiz-adv-x="612" 
d="M114 772l104 142h178l103 -142h-140l-53 72l-52 -72h-140zM223 0v303l-218 403h180l122 -241l122 241h178l-218 -403v-303h-166z" />
    <glyph glyph-name="ycircumflex" unicode="&#x177;" horiz-adv-x="559" 
d="M280 658l-51 -88h-139l100 158h182l99 -158h-138zM380 499h168l-271 -699h-159l77 201l-184 498h172l98 -327z" />
    <glyph glyph-name="Ydieresis" unicode="&#x178;" horiz-adv-x="612" 
d="M196 770q-34 0 -56.5 21.5t-22.5 53.5q0 33 22.5 54.5t56.5 21.5q33 0 56 -21.5t23 -54.5q0 -32 -23 -53.5t-56 -21.5zM417 770q-34 0 -56.5 21.5t-22.5 53.5q0 33 22.5 54.5t56.5 21.5t56.5 -21.5t22.5 -54.5q0 -32 -22.5 -53.5t-56.5 -21.5zM223 0v303l-218 403h180
l122 -241l122 241h178l-218 -403v-303h-166z" />
    <glyph glyph-name="Zacute" unicode="&#x179;" horiz-adv-x="614" 
d="M208 772l95 142h160l-110 -142h-145zM22 0l291 567h-274v139h529l-289 -567h303v-139h-560z" />
    <glyph glyph-name="zacute" unicode="&#x17a;" horiz-adv-x="480" 
d="M399 727l-104 -157h-138l88 157h154zM474 499l-222 -373h213v-126h-459l232 375h-210v124h446z" />
    <glyph glyph-name="Zdotaccent" unicode="&#x17b;" horiz-adv-x="614" 
d="M301 772q-38 0 -61.5 22.5t-23.5 58.5q0 35 24 57t61 22q36 0 59.5 -22.5t23.5 -56.5q0 -36 -23.5 -58.5t-59.5 -22.5zM22 0l291 567h-274v139h529l-289 -567h303v-139h-560z" />
    <glyph glyph-name="zdotaccent" unicode="&#x17c;" horiz-adv-x="480" 
d="M247 570q-37 0 -61.5 23.5t-24.5 58.5t24.5 59t61.5 24q36 0 60.5 -24t24.5 -59t-24.5 -58.5t-60.5 -23.5zM474 499l-222 -373h213v-126h-459l232 375h-210v124h446z" />
    <glyph glyph-name="Zcaron" unicode="&#x17d;" horiz-adv-x="614" 
d="M108 914h140l52 -72l53 72h140l-103 -142h-178zM22 0l291 567h-274v139h529l-289 -567h303v-139h-560z" />
    <glyph glyph-name="zcaron" unicode="&#x17e;" horiz-adv-x="480" 
d="M337 570h-182l-99 158h138l52 -88l52 88h139zM474 499l-222 -373h213v-126h-459l232 375h-210v124h446z" />
    <glyph glyph-name="uni018F" unicode="&#x18f;" horiz-adv-x="725" 
d="M348 724q87 0 152.5 -29t104.5 -80.5t58.5 -117.5t19.5 -144q0 -163 -82.5 -267t-251.5 -104q-82 0 -142.5 28t-95.5 78t-52 111t-17 134v52h463q-3 94 -36.5 145.5t-116.5 51.5q-61 0 -96.5 -30.5t-41.5 -89.5h-167q7 119 89.5 190.5t211.5 71.5zM345 124q74 0 110 36
t46 106h-299q7 -142 143 -142z" />
    <glyph glyph-name="florin" unicode="&#x192;" horiz-adv-x="402" 
d="M90 -8q-42 0 -74 8v124q25 -7 44 -7q65 0 65 64v181h-106v79h106v111q0 89 44.5 130t143.5 41q41 0 73 -8v-124q-18 7 -46 7q-62 0 -62 -69v-88h106v-79h-106v-200q0 -89 -44.5 -129.5t-143.5 -40.5z" />
    <glyph glyph-name="Aringacute" unicode="&#x1fa;" horiz-adv-x="699" 
d="M511 1194l-110 -142h-145l95 142h160zM348 738q-60 0 -97.5 34.5t-37.5 89.5q0 56 37 90t98 34q62 0 99.5 -34t37.5 -90q0 -55 -38 -89.5t-99 -34.5zM348 911q-22 0 -35 -13.5t-13 -35.5q0 -21 13 -34t35 -13q23 0 36.5 13t13.5 34q0 22 -13.5 35.5t-36.5 13.5zM521 0
l-40 137h-263l-40 -137h-173l219 706h251l219 -706h-173zM255 264h189l-94 319h-2z" />
    <glyph glyph-name="aringacute" unicode="&#x1fb;" horiz-adv-x="579" 
d="M437 1024l-104 -157h-138l88 157h154zM284 549q-60 0 -97.5 34.5t-37.5 89.5q0 56 37 90t98 34q62 0 99.5 -34t37.5 -90q0 -55 -38 -89.5t-99 -34.5zM284 722q-22 0 -35 -13.5t-13 -35.5q0 -21 13 -34t35 -13q23 0 36.5 13t13.5 34q0 22 -13.5 35.5t-36.5 13.5zM285 513
q130 0 182.5 -55t52.5 -168v-290h-159v58q-48 -71 -157 -71q-85 0 -128.5 41.5t-43.5 113.5q0 90 64 126.5t192 36.5h73v9q0 47 -15.5 68t-58.5 21q-75 0 -75 -64h-162q0 84 61 129t174 45zM269 103q92 0 92 105v5h-61q-53 0 -76.5 -12.5t-23.5 -43.5q0 -54 69 -54z" />
    <glyph glyph-name="AEacute" unicode="&#x1fc;" horiz-adv-x="846" 
d="M631 914l-110 -142h-145l95 142h160zM791 571h-253l17 -145h233v-136h-217l18 -155h202v-135h-355l-15 139h-194l-47 -139h-175l256 706h530v-135zM269 265h139l-33 311h-2z" />
    <glyph glyph-name="aeacute" unicode="&#x1fd;" horiz-adv-x="878" 
d="M601 727l-104 -157h-138l88 157h154zM605 106q55 0 69 48h165q-11 -79 -74.5 -123t-155.5 -44q-129 0 -192 84q-68 -84 -193 -84q-97 0 -144.5 41.5t-47.5 113.5q0 90 64 126.5t192 36.5h73v7q0 49 -14.5 70t-59.5 21q-41 0 -58 -16t-17 -48h-162q0 84 61 129t174 45
q114 0 166 -46q57 46 146 46q161 0 221 -130q25 -57 25 -170h-323q4 -53 23 -80t62 -27zM601 399q-39 0 -57 -23.5t-23 -70.5h158q-3 45 -20.5 69.5t-57.5 24.5zM361 208v6h-61q-49 0 -74.5 -12t-25.5 -45q0 -27 19.5 -40.5t50.5 -13.5q53 0 72 26.5t19 78.5z" />
    <glyph glyph-name="Oslashacute" unicode="&#x1fe;" horiz-adv-x="754" 
d="M539 914l-110 -142h-145l95 142h160zM761 706l-109 -117q60 -93 60 -236q0 -78 -19 -144t-58 -117.5t-105 -80.5t-153 -29q-141 0 -226 77l-55 -59h-103l109 117q-60 93 -60 236q0 78 19.5 143.5t58.5 117.5t104.5 81t152.5 29q142 0 227 -77l55 59h102zM377 582
q-48 0 -80.5 -18.5t-48.5 -52.5t-22.5 -71.5t-6.5 -86.5q0 -60 10 -107l261 287q-39 49 -113 49zM377 124q158 0 158 229q0 62 -11 106l-261 -286q38 -49 114 -49z" />
    <glyph glyph-name="oslashacute" unicode="&#x1ff;" horiz-adv-x="588" 
d="M446 727l-104 -157h-138l88 157h154zM560 499l-63 -70q56 -69 56 -178q0 -117 -65.5 -190.5t-193.5 -73.5q-93 0 -154 41l-26 -28h-88l66 72q-57 70 -57 179q0 116 66 189t193 73q92 0 154 -40l25 26h87zM294 382q-53 0 -72.5 -34t-19.5 -97q0 -32 4 -55l147 168
q-21 18 -59 18zM294 119q55 0 73.5 35t18.5 97q0 32 -4 55l-147 -168q22 -19 59 -19z" />
    <glyph glyph-name="uni0218" unicode="&#x218;" horiz-adv-x="628" 
d="M313 -18q-142 0 -212.5 64.5t-70.5 170.5h185q0 -51 22.5 -79t78.5 -28q48 0 73 21.5t25 57.5q0 41 -37 63t-152 60q-90 30 -134.5 75t-44.5 121q0 97 69 156.5t194 59.5q126 0 191 -61t65 -164h-173q0 48 -19.5 75t-69.5 27q-42 0 -64.5 -19.5t-22.5 -50.5
q0 -37 36 -56.5t139 -50.5q108 -32 157 -77.5t49 -132.5q0 -109 -73.5 -170.5t-210.5 -61.5zM197 -200l38 148h161l-56 -148h-143z" />
    <glyph glyph-name="uni0219" unicode="&#x219;" horiz-adv-x="504" 
d="M253 -17q-111 0 -165.5 48t-54.5 133h155q0 -73 63 -73q54 0 54 44q0 14 -6.5 24.5t-22.5 18.5t-30 12.5t-40 12.5q-78 23 -116.5 56t-38.5 98q0 74 52.5 115t148.5 41q98 0 148.5 -41.5t50.5 -117.5h-149q0 61 -53 61q-23 0 -35.5 -10t-12.5 -25q0 -25 21.5 -38
t83.5 -31q87 -25 126 -59.5t39 -100.5q0 -82 -57.5 -125t-160.5 -43zM138 -200l38 148h161l-56 -148h-143z" />
    <glyph glyph-name="uni021A" unicode="&#x21a;" horiz-adv-x="559" 
d="M197 0v571h-177v135h519v-135h-176v-571h-166zM165 -200l38 148h161l-56 -148h-143z" />
    <glyph glyph-name="uni021B" unicode="&#x21b;" horiz-adv-x="372" 
d="M238 -9q-87 0 -124.5 38t-37.5 129v217h-64v124h64v117h157v-117h111v-124h-111v-191q0 -35 14.5 -50t45.5 -15q23 0 50 6v-123q-52 -11 -105 -11zM102 -200l38 148h161l-56 -148h-143z" />
    <glyph glyph-name="uni0237" unicode="&#x237;" horiz-adv-x="284" 
d="M51 -204q-46 0 -67 3v136q12 -2 32 -2q48 0 48 50v516h156v-534q0 -89 -40 -129t-129 -40z" />
    <glyph glyph-name="uni0259" unicode="&#x259;" horiz-adv-x="582" 
d="M282 512q134 0 199.5 -72t65.5 -192q0 -116 -64 -189t-189 -73q-85 0 -145.5 35t-87.5 98q-25 58 -25 169h348q-3 53 -24 79t-74 26q-66 0 -82 -48h-162q11 79 77.5 123t162.5 44zM291 100q43 0 64 24t27 72h-182q5 -48 25.5 -72t65.5 -24z" />
    <glyph glyph-name="circumflex" unicode="&#x2c6;" horiz-adv-x="481" 
d="M50 570l100 158h182l99 -158h-138l-53 88l-51 -88h-139z" />
    <glyph glyph-name="caron" unicode="&#x2c7;" horiz-adv-x="481" 
d="M431 728l-100 -158h-182l-99 158h138l52 -88l52 88h139z" />
    <glyph glyph-name="uni02C9" unicode="&#x2c9;" horiz-adv-x="405" 
d="M50 596v99h305v-99h-305z" />
    <glyph glyph-name="breve" unicode="&#x2d8;" horiz-adv-x="463" 
d="M233 562q-174 0 -183 166h112q4 -42 21 -60t50 -18q32 0 49 18t21 60h110q-8 -166 -180 -166z" />
    <glyph glyph-name="dotaccent" unicode="&#x2d9;" horiz-adv-x="271" 
d="M136 570q-37 0 -61.5 23.5t-24.5 58.5t24.5 59t61.5 24q36 0 60.5 -24t24.5 -59t-24.5 -58.5t-60.5 -23.5z" />
    <glyph glyph-name="ring" unicode="&#x2da;" horiz-adv-x="372" 
d="M185 549q-60 0 -97.5 34.5t-37.5 89.5q0 56 37 90t98 34q62 0 99.5 -34t37.5 -90q0 -55 -38 -89.5t-99 -34.5zM185 626q23 0 36.5 13t13.5 34q0 22 -13.5 35.5t-36.5 13.5q-22 0 -35 -13.5t-13 -35.5q0 -21 13 -34t35 -13z" />
    <glyph glyph-name="ogonek" unicode="&#x2db;" horiz-adv-x="300" 
d="M172 -214q-56 0 -89 24.5t-33 70.5q0 73 98 121l101 -2q-37 -26 -55.5 -46.5t-18.5 -43.5q0 -32 36 -32q22 0 39 7v-86q-33 -13 -78 -13z" />
    <glyph glyph-name="tilde" unicode="&#x2dc;" horiz-adv-x="468" 
d="M314 569q-42 0 -83 28q-41 27 -60 27q-30 0 -32 -53h-89q2 81 27 120t76 39q37 0 84 -29q39 -26 59 -26q17 0 24 12.5t9 40.5h89q-2 -81 -27 -120t-77 -39z" />
    <glyph glyph-name="hungarumlaut" unicode="&#x2dd;" horiz-adv-x="502" 
d="M50 570l94 158h130l-119 -158h-105zM229 570l93 158h130l-118 -158h-105z" />
    <glyph glyph-name="gravecomb" unicode="&#x300;" 
d="M-50 570h-138l-104 157h154z" />
    <glyph glyph-name="acutecomb" unicode="&#x301;" 
d="M-292 570l88 157h154l-104 -157h-138z" />
    <glyph glyph-name="uni0302" unicode="&#x302;" 
d="M-431 570l100 158h182l99 -158h-138l-53 88l-51 -88h-139z" />
    <glyph glyph-name="tildecomb" unicode="&#x303;" 
d="M-154 569q-42 0 -83 28q-41 27 -60 27q-30 0 -32 -53h-89q2 81 27 120t76 39q37 0 84 -29q39 -26 59 -26q17 0 24 12.5t9 40.5h89q-2 -81 -27 -120t-77 -39z" />
    <glyph glyph-name="uni0304" unicode="&#x304;" 
d="M-355 596v99h305v-99h-305z" />
    <glyph glyph-name="uni0306" unicode="&#x306;" 
d="M-230 562q-174 0 -183 166h112q4 -42 21 -60t50 -18q32 0 49 18t21 60h110q-8 -166 -180 -166z" />
    <glyph glyph-name="uni0307" unicode="&#x307;" 
d="M-135 570q-37 0 -61.5 23.5t-24.5 58.5t24.5 59t61.5 24q36 0 60.5 -24t24.5 -59t-24.5 -58.5t-60.5 -23.5z" />
    <glyph glyph-name="uni0308" unicode="&#x308;" 
d="M-340 569q-35 0 -58.5 22t-23.5 55q0 34 23.5 56.5t58.5 22.5q34 0 57.5 -22.5t23.5 -56.5q0 -33 -23.5 -55t-57.5 -22zM-131 569q-35 0 -58.5 22t-23.5 55q0 34 23.5 56.5t58.5 22.5q34 0 57.5 -22.5t23.5 -56.5q0 -33 -23.5 -55t-57.5 -22z" />
    <glyph glyph-name="uni030A" unicode="&#x30a;" 
d="M-187 549q-60 0 -97.5 34.5t-37.5 89.5q0 56 37 90t98 34q62 0 99.5 -34t37.5 -90q0 -55 -38 -89.5t-99 -34.5zM-187 626q23 0 36.5 13t13.5 34q0 22 -13.5 35.5t-36.5 13.5q-22 0 -35 -13.5t-13 -35.5q0 -21 13 -34t35 -13z" />
    <glyph glyph-name="uni030B" unicode="&#x30b;" 
d="M-452 570l94 158h130l-119 -158h-105zM-273 570l93 158h130l-118 -158h-105z" />
    <glyph glyph-name="uni030C" unicode="&#x30c;" 
d="M-50 728l-100 -158h-182l-99 158h138l52 -88l52 88h139z" />
    <glyph glyph-name="uni0312" unicode="&#x312;" 
d="M-50 718l-38 -148h-161l55 148h144z" />
    <glyph glyph-name="uni0326" unicode="&#x326;" 
d="M-249 -200l38 148h161l-56 -148h-143z" />
    <glyph glyph-name="uni0327" unicode="&#x327;" 
d="M-149 -36q46 0 72.5 -25.5t26.5 -66.5q0 -106 -152 -106q-53 0 -101 17l16 74q32 -14 72 -14q56 0 56 33q0 31 -59 31h-57l23 98h106l-10 -41h7z" />
    <glyph glyph-name="uni0328" unicode="&#x328;" 
d="M-128 -214q-56 0 -89 24.5t-33 70.5q0 73 98 121l101 -2q-37 -26 -55.5 -46.5t-18.5 -43.5q0 -32 36 -32q22 0 39 7v-86q-33 -13 -78 -13z" />
    <glyph glyph-name="uni0335" unicode="&#x335;" 
d="M-383 287v98h333v-98h-333z" />
    <glyph glyph-name="uni0336" unicode="&#x336;" 
d="M-339 581v95h339v-95h-339z" />
    <glyph glyph-name="uni0337" unicode="&#x337;" 
d="M-135 305v132l135 94v-130zM-291 233v129l136 90v-130z" />
    <glyph glyph-name="uni0338" unicode="&#x338;" 
d="M-574 0l137 151v-4l233 267l-1 2l78 83h87l-137 -151v5l-233 -267l1 -2l-77 -84h-88z" />
    <glyph glyph-name="uni0394" unicode="&#x394;" horiz-adv-x="699" 
d="M475 706l219 -706h-689l219 706h251zM216 129h267l-133 453h-2z" />
    <glyph glyph-name="uni0394" unicode="&#x3b4;" horiz-adv-x="699" 
d="M475 706l219 -706h-689l219 706h251zM216 129h267l-133 453h-2z" />
    <glyph glyph-name="uni03A9" unicode="&#x3a9;" horiz-adv-x="725" 
d="M527 171v-48h139v-123h-265v268q59 8 86 54.5t27 112.5q0 163 -152 163q-79 0 -115 -44.5t-36 -118.5q0 -67 28 -112.5t86 -54.5v-268h-265v123h137v49q-79 33 -117 102.5t-38 160.5q0 135 80 212t240 77q162 0 241.5 -77t79.5 -212q0 -201 -156 -264z" />
    <glyph glyph-name="uni03A9" unicode="&#x3c9;" horiz-adv-x="725" 
d="M527 171v-48h139v-123h-265v268q59 8 86 54.5t27 112.5q0 163 -152 163q-79 0 -115 -44.5t-36 -118.5q0 -67 28 -112.5t86 -54.5v-268h-265v123h137v49q-79 33 -117 102.5t-38 160.5q0 135 80 212t240 77q162 0 241.5 -77t79.5 -212q0 -201 -156 -264z" />
    <glyph glyph-name="uni03BC" unicode="&#x3bc;" horiz-adv-x="595" 
d="M377 499h154v-499h-151v66q-43 -79 -131 -79q-24 0 -42 6q9 -62 9 -131v-64h-152v701h152v-288q0 -52 18.5 -74t58.5 -22q84 0 84 98v286z" />
    <glyph glyph-name="pi" unicode="&#x3c0;" horiz-adv-x="710" 
d="M574 -9q-87 0 -124.5 38t-37.5 129v217h-114v-375h-156v375h-86v124h598v-124h-85v-191q0 -35 14.5 -50t45.5 -15q7 0 25 2v-123q-36 -7 -80 -7z" />
    <glyph glyph-name="Wgrave" unicode="&#x1e80;" horiz-adv-x="943" 
d="M566 772h-145l-110 142h160zM774 706h164l-186 -706h-173l-107 474l-107 -474h-172l-188 706h164l113 -465l104 465h174l102 -463z" />
    <glyph glyph-name="wgrave" unicode="&#x1e81;" horiz-adv-x="829" 
d="M503 570h-138l-104 157h154zM649 499h169l-173 -499h-150l-80 291l-82 -291h-151l-171 499h168l81 -295l88 295h130l89 -293z" />
    <glyph glyph-name="Wacute" unicode="&#x1e82;" horiz-adv-x="943" 
d="M635 914l-110 -142h-145l95 142h160zM774 706h164l-186 -706h-173l-107 474l-107 -474h-172l-188 706h164l113 -465l104 465h174l102 -463z" />
    <glyph glyph-name="wacute" unicode="&#x1e83;" horiz-adv-x="829" 
d="M565 727l-104 -157h-138l88 157h154zM649 499h169l-173 -499h-150l-80 291l-82 -291h-151l-171 499h168l81 -295l88 295h130l89 -293z" />
    <glyph glyph-name="Wdieresis" unicode="&#x1e84;" horiz-adv-x="943" 
d="M362 770q-34 0 -56.5 21.5t-22.5 53.5q0 33 22.5 54.5t56.5 21.5q33 0 56 -21.5t23 -54.5q0 -32 -23 -53.5t-56 -21.5zM583 770q-34 0 -56.5 21.5t-22.5 53.5q0 33 22.5 54.5t56.5 21.5t56.5 -21.5t22.5 -54.5q0 -32 -22.5 -53.5t-56.5 -21.5zM774 706h164l-186 -706
h-173l-107 474l-107 -474h-172l-188 706h164l113 -465l104 465h174l102 -463z" />
    <glyph glyph-name="wdieresis" unicode="&#x1e85;" horiz-adv-x="829" 
d="M309 569q-35 0 -58.5 22t-23.5 55q0 34 23.5 56.5t58.5 22.5q34 0 57.5 -22.5t23.5 -56.5q0 -33 -23.5 -55t-57.5 -22zM518 569q-35 0 -58.5 22t-23.5 55q0 34 23.5 56.5t58.5 22.5q34 0 57.5 -22.5t23.5 -56.5q0 -33 -23.5 -55t-57.5 -22zM649 499h169l-173 -499h-150
l-80 291l-82 -291h-151l-171 499h168l81 -295l88 295h130l89 -293z" />
    <glyph glyph-name="uni1E9E" unicode="&#x1e9e;" horiz-adv-x="684" 
d="M528 420q64 -21 95 -74.5t31 -123.5q0 -103 -64.5 -164.5t-189.5 -61.5q-51 0 -96 8v136q23 -4 57 -4q122 0 122 95q0 101 -114 101q-10 0 -30 -2v3l90 234h-186v-567h-166v706h559v-5z" />
    <glyph glyph-name="Ygrave" unicode="&#x1ef2;" horiz-adv-x="612" 
d="M400 772h-145l-110 142h160zM223 0v303l-218 403h180l122 -241l122 241h178l-218 -403v-303h-166z" />
    <glyph glyph-name="ygrave" unicode="&#x1ef3;" horiz-adv-x="559" 
d="M371 570h-138l-104 157h154zM380 499h168l-271 -699h-159l77 201l-184 498h172l98 -327z" />
    <glyph glyph-name="uni2009" unicode="&#x2009;" horiz-adv-x="74" 
 />
    <glyph glyph-name="uni2011" unicode="&#x2011;" horiz-adv-x="410" 
d="M56 228v132h298v-132h-298z" />
    <glyph glyph-name="endash" unicode="&#x2013;" horiz-adv-x="502" 
d="M56 230v132h390v-132h-390z" />
    <glyph glyph-name="emdash" unicode="&#x2014;" horiz-adv-x="970" 
d="M56 230v132h858v-132h-858z" />
    <glyph glyph-name="quoteleft" unicode="&#x2018;" horiz-adv-x="303" 
d="M267 706l-68 -282h-163l110 282h121z" />
    <glyph glyph-name="quoteright" unicode="&#x2019;" horiz-adv-x="303" 
d="M36 424l68 282h163l-110 -282h-121z" />
    <glyph glyph-name="quotesinglbase" unicode="&#x201a;" horiz-adv-x="303" 
d="M36 -136l68 282h163l-110 -282h-121z" />
    <glyph glyph-name="quotedblleft" unicode="&#x201c;" horiz-adv-x="530" 
d="M267 706l-68 -282h-163l110 282h121zM494 706l-68 -282h-163l110 282h121z" />
    <glyph glyph-name="quotedblright" unicode="&#x201d;" horiz-adv-x="530" 
d="M36 424l68 282h163l-110 -282h-121zM263 424l68 282h163l-110 -282h-121z" />
    <glyph glyph-name="quotedblbase" unicode="&#x201e;" horiz-adv-x="530" 
d="M36 -136l68 282h163l-110 -282h-121zM263 -136l68 282h163l-110 -282h-121z" />
    <glyph glyph-name="dagger" unicode="&#x2020;" horiz-adv-x="445" 
d="M412 555v-141h-109v-414h-161v414h-109v141h109v151h161v-151h109z" />
    <glyph glyph-name="daggerdbl" unicode="&#x2021;" horiz-adv-x="445" 
d="M412 428h-109v-150h109v-141h-109v-137h-161v137h-109v141h109v150h-109v141h109v137h161v-137h109v-141z" />
    <glyph glyph-name="bullet" unicode="&#x2022;" horiz-adv-x="461" 
d="M232 212q-66 0 -107 41t-41 107q0 67 40 106.5t108 39.5q65 0 105.5 -39.5t40.5 -106.5q0 -66 -40.5 -107t-105.5 -41z" />
    <glyph glyph-name="ellipsis" unicode="&#x2026;" horiz-adv-x="901" 
d="M163 -18q-43 0 -70.5 27t-27.5 70q0 42 27.5 69t70.5 27t70.5 -27t27.5 -69q0 -43 -27.5 -70t-70.5 -27zM450 -18q-43 0 -70.5 27t-27.5 70q0 42 27.5 69t70.5 27t70.5 -27t27.5 -69q0 -43 -27.5 -70t-70.5 -27zM738 -18q-43 0 -70.5 27t-27.5 70q0 42 27.5 69t70.5 27
t71 -27t28 -69q0 -43 -27.5 -70t-71.5 -27z" />
    <glyph glyph-name="perthousand" unicode="&#x2030;" horiz-adv-x="1148" 
d="M185 389q-150 0 -150 163q0 75 36 119t114 44q148 0 148 -163t-148 -163zM97 0l474 706h112l-474 -706h-112zM185 476q29 0 38 18t9 58q0 41 -9.5 58.5t-37.5 17.5q-30 0 -38.5 -18t-8.5 -58q0 -27 2.5 -41t13 -24.5t31.5 -10.5zM596 -8q-150 0 -150 164q0 75 36 118.5
t114 43.5q148 0 148 -162q0 -164 -148 -164zM965 -8q-150 0 -150 164q0 75 36 118.5t114 43.5q148 0 148 -162q0 -164 -148 -164zM596 80q29 0 38 18t9 58q0 41 -9.5 58.5t-37.5 17.5q-30 0 -38.5 -18.5t-8.5 -57.5q0 -28 2.5 -42t13 -24t31.5 -10zM965 80q29 0 38 18t9 58
q0 41 -9.5 58.5t-37.5 17.5q-30 0 -38.5 -18.5t-8.5 -57.5q0 -28 2.5 -42t13 -24t31.5 -10z" />
    <glyph glyph-name="guilsinglleft" unicode="&#x2039;" horiz-adv-x="343" 
d="M164 124l-143 166l143 164h161l-144 -164l144 -166h-161z" />
    <glyph glyph-name="guilsinglright" unicode="&#x203a;" horiz-adv-x="343" 
d="M178 124h-161l144 166l-144 164h161l143 -164z" />
    <glyph glyph-name="fraction" unicode="&#x2044;" horiz-adv-x="226" 
d="M-146 0l417 706h101l-417 -706h-101z" />
    <glyph glyph-name="uni2070" unicode="&#x2070;" horiz-adv-x="441" 
d="M221 427q-181 0 -181 205t181 205q180 0 180 -205t-180 -205zM221 533q15 0 25 4.5t15.5 11t8 21.5t3 26.5t0.5 35.5q0 56 -9 77.5t-43 21.5q-15 0 -25 -4.5t-15.5 -11t-8 -21.5t-3 -26.5t-0.5 -35.5q0 -57 8.5 -78t43.5 -21z" />
    <glyph glyph-name="uni2074" unicode="&#x2074;" horiz-adv-x="430" 
d="M239 438v69h-236v2l142 317h212v-218h59v-101h-59v-69h-118zM167 608h72v179z" />
    <glyph glyph-name="uni2075" unicode="&#x2075;" horiz-adv-x="393" 
d="M197 427q-85 0 -129 40t-44 111l118 -1q0 -57 53 -57q47 0 47 45q0 58 -123 58q-40 0 -77 -5l38 208h266l-14 -89h-153l-8 -47q25 5 55 5q71 0 107 -35t36 -92q0 -65 -45.5 -103t-126.5 -38z" />
    <glyph glyph-name="uni2076" unicode="&#x2076;" horiz-adv-x="431" 
d="M260 692q67 0 104.5 -33t37.5 -88q0 -63 -47 -103.5t-131 -40.5q-190 0 -190 203q0 207 191 207q141 0 167 -123h-115q-12 34 -51 34q-69 0 -69 -92q34 36 103 36zM222 517q24 0 36.5 12.5t12.5 32.5q0 46 -49 46q-50 0 -50 -46q0 -45 50 -45z" />
    <glyph glyph-name="uni2077" unicode="&#x2077;" horiz-adv-x="378" 
d="M47 438l129 280h-154v108h343l-180 -388h-138z" />
    <glyph glyph-name="uni2078" unicode="&#x2078;" horiz-adv-x="396" 
d="M298 647q73 -18 73 -94q0 -62 -45 -94t-128 -32t-128.5 32t-45.5 94q0 76 75 94q-32 10 -49 32.5t-17 52.5q0 48 45 76.5t120 28.5t120.5 -28.5t45.5 -76.5q0 -30 -17.5 -52.5t-48.5 -32.5zM198 761q-45 0 -45 -39q0 -38 45 -38t45 38q0 39 -45 39zM198 514q50 0 50 43
q0 42 -50 42q-49 0 -49 -42q0 -43 49 -43z" />
    <glyph glyph-name="uni2079" unicode="&#x2079;" horiz-adv-x="431" 
d="M207 837q190 0 190 -203q0 -207 -190 -207q-142 0 -168 123h115q12 -34 51 -34q69 0 69 92q-34 -36 -103 -36q-67 0 -104.5 33t-37.5 88q0 63 47 103.5t131 40.5zM209 656q50 0 50 46q0 45 -50 45q-24 0 -36.5 -12.5t-12.5 -32.5q0 -46 49 -46z" />
    <glyph glyph-name="uni207A" unicode="&#x207a;" horiz-adv-x="360" 
d="M327 676v-86h-104v-95h-87v95h-102v86h102v95h87v-95h104z" />
    <glyph glyph-name="uni207B" unicode="&#x207b;" horiz-adv-x="360" 
d="M34 590v86h293v-86h-293z" />
    <glyph glyph-name="uni207C" unicode="&#x207c;" horiz-adv-x="358" 
d="M34 652v73h290v-73h-290zM34 541v75h290v-75h-290z" />
    <glyph glyph-name="uni207D" unicode="&#x207d;" horiz-adv-x="266" 
d="M143 358q-80 130 -80 274q0 81 19.5 144.5t60.5 130.5h97q-82 -137 -82 -275q0 -137 82 -274h-97z" />
    <glyph glyph-name="uni207E" unicode="&#x207e;" horiz-adv-x="266" 
d="M124 358h-98q82 137 82 274q0 138 -82 275h98q41 -67 60.5 -130.5t19.5 -144.5q0 -144 -80 -274z" />
    <glyph glyph-name="uni207F" unicode="&#x207f;" horiz-adv-x="402" 
d="M254 752q49 0 76.5 -28.5t27.5 -80.5v-205h-117v178q0 36 -37 36q-39 0 -39 -40v-174h-118v305h118v-32q34 41 89 41z" />
    <glyph glyph-name="uni2080" unicode="&#x2080;" horiz-adv-x="441" 
d="M221 -131q-181 0 -181 205t181 205q180 0 180 -205t-180 -205zM221 -25q15 0 25 4.5t15.5 11t8 21.5t3 26.5t0.5 35.5q0 56 -9 77.5t-43 21.5q-15 0 -25 -4.5t-15.5 -11t-8 -21.5t-3 -26.5t-0.5 -35.5q0 -57 8.5 -78t43.5 -21z" />
    <glyph glyph-name="uni2081" unicode="&#x2081;" horiz-adv-x="291" 
d="M92 -120v278h-70l20 110h175v-388h-125z" />
    <glyph glyph-name="uni2082" unicode="&#x2082;" horiz-adv-x="388" 
d="M15 -120v6l179 191q26 29 35 43t9 28q0 36 -42 36q-48 0 -48 -49h-120q0 66 42.5 105t125.5 39q79 0 120.5 -33.5t41.5 -95.5q0 -50 -39 -89q-37 -37 -84 -73h127v-108h-347z" />
    <glyph glyph-name="uni2083" unicode="&#x2083;" horiz-adv-x="376" 
d="M280 82q71 -20 71 -93q0 -57 -44 -88.5t-125 -31.5q-89 0 -127 39.5t-38 117.5l109 -1q0 -63 52 -63q48 0 48 42q0 37 -57 37h-12v75h12q53 0 53 36q0 34 -42 34q-46 0 -46 -47h-110q0 67 43 103.5t122 36.5q72 0 112.5 -31t40.5 -84q0 -58 -62 -82z" />
    <glyph glyph-name="uni2084" unicode="&#x2084;" horiz-adv-x="430" 
d="M239 -120v69h-236v2l142 317h212v-218h59v-101h-59v-69h-118zM167 50h72v179z" />
    <glyph glyph-name="uni2085" unicode="&#x2085;" horiz-adv-x="393" 
d="M197 -131q-85 0 -129 40t-44 111l118 -1q0 -57 53 -57q47 0 47 45q0 58 -123 58q-40 0 -77 -5l38 208h266l-14 -89h-153l-8 -47q25 5 55 5q71 0 107 -35t36 -92q0 -65 -45.5 -103t-126.5 -38z" />
    <glyph glyph-name="uni2086" unicode="&#x2086;" horiz-adv-x="431" 
d="M260 134q67 0 104.5 -33t37.5 -88q0 -63 -47 -103.5t-131 -40.5q-190 0 -190 203q0 207 191 207q141 0 167 -123h-115q-12 34 -51 34q-69 0 -69 -92q34 36 103 36zM222 -41q24 0 36.5 12.5t12.5 32.5q0 46 -49 46q-50 0 -50 -46q0 -45 50 -45z" />
    <glyph glyph-name="uni2087" unicode="&#x2087;" horiz-adv-x="378" 
d="M47 -120l129 280h-154v108h343l-180 -388h-138z" />
    <glyph glyph-name="uni2088" unicode="&#x2088;" horiz-adv-x="396" 
d="M298 89q73 -18 73 -94q0 -62 -45 -94t-128 -32t-128.5 32t-45.5 94q0 76 75 94q-32 10 -49 32.5t-17 52.5q0 48 45 76.5t120 28.5t120.5 -28.5t45.5 -76.5q0 -30 -17.5 -52.5t-48.5 -32.5zM198 203q-45 0 -45 -39q0 -38 45 -38t45 38q0 39 -45 39zM198 -44q50 0 50 43
q0 42 -50 42q-49 0 -49 -42q0 -43 49 -43z" />
    <glyph glyph-name="uni2089" unicode="&#x2089;" horiz-adv-x="431" 
d="M208 279q189 0 189 -203q0 -207 -190 -207q-141 0 -167 123h114q14 -34 51 -34q69 0 69 92q-34 -36 -102 -36t-105 33t-37 88q0 63 46.5 103.5t131.5 40.5zM210 98q49 0 49 46q0 45 -49 45q-25 0 -37.5 -12.5t-12.5 -32.5q0 -46 50 -46z" />
    <glyph glyph-name="uni208A" unicode="&#x208a;" horiz-adv-x="360" 
d="M327 118v-86h-104v-95h-87v95h-102v86h102v95h87v-95h104z" />
    <glyph glyph-name="uni208B" unicode="&#x208b;" horiz-adv-x="360" 
d="M34 32v86h293v-86h-293z" />
    <glyph glyph-name="uni208C" unicode="&#x208c;" horiz-adv-x="358" 
d="M34 94v73h290v-73h-290zM34 -17v75h290v-75h-290z" />
    <glyph glyph-name="uni208D" unicode="&#x208d;" horiz-adv-x="266" 
d="M143 -200q-80 130 -80 274q0 81 19.5 144.5t60.5 130.5h97q-82 -137 -82 -275q0 -137 82 -274h-97z" />
    <glyph glyph-name="uni208E" unicode="&#x208e;" horiz-adv-x="266" 
d="M124 -200h-98q82 137 82 274q0 138 -82 275h98q41 -67 60.5 -130.5t19.5 -144.5q0 -144 -80 -274z" />
    <glyph glyph-name="uni2099" unicode="&#x2099;" horiz-adv-x="402" 
d="M254 194q49 0 76.5 -28.5t27.5 -80.5v-205h-117v178q0 36 -37 36q-39 0 -39 -40v-174h-118v305h118v-32q34 41 89 41z" />
    <glyph glyph-name="Euro" unicode="&#x20ac;" horiz-adv-x="758" 
d="M544 257h177q-1 -123 -89 -199t-219 -76q-141 0 -222 73t-104 197h-53v72h45q-1 10 -1 29q0 23 1 35h-45v73h54q24 120 104.5 191.5t219.5 71.5q134 0 218.5 -77.5t87.5 -203.5h-177q-2 65 -37.5 102t-98.5 37q-114 0 -140 -121h195v-73h-204q-1 -11 -1 -34q0 -20 1 -30
h204v-72h-197q25 -127 143 -127q132 0 138 132z" />
    <glyph glyph-name="uni20B9" unicode="&#x20b9;" horiz-adv-x="680" 
d="M663 706v-78h-160q41 -41 49 -119h111v-79h-111q-16 -163 -185 -178l219 -252h-194l-294 348h178q54 0 80.5 20.5t32.5 61.5h-327v79h325q-14 76 -104 76h-222v121h602z" />
    <glyph glyph-name="uni20BA" unicode="&#x20ba;" horiz-adv-x="620" 
d="M444 308h155q0 -150 -64 -229t-219 -79h-211v249l-71 -32v84l71 32v80l-71 -32v84l71 33v208h164v-142l170 77v-83l-170 -78v-80l170 78v-85l-170 -78v-177h29q87 0 116.5 42.5t29.5 127.5z" />
    <glyph glyph-name="uni20BC" unicode="&#x20bc;" horiz-adv-x="846" 
d="M506 611q145 -7 204.5 -76.5t59.5 -206.5v-328h-167v335q0 67 -20 103.5t-77 42.5v-481h-166v481q-56 -6 -76.5 -42.5t-20.5 -103.5v-335h-166v328q0 137 59 206.5t204 76.5v95h166v-95z" />
    <glyph glyph-name="uni2113" unicode="&#x2113;" horiz-adv-x="506" 
d="M229 193q7 -41 32.5 -58t75.5 -17q52 0 102 19v-124q-62 -22 -138 -22q-215 0 -231 186q-16 -1 -48 -1v111q31 0 46 1v171q0 135 48 195.5t156 60.5q109 0 156.5 -53t47.5 -168q0 -129 -58 -201.5t-189 -99.5zM226 516v-206q52 20 71.5 62t19.5 122q0 67 -11 89.5
t-35 22.5t-34.5 -19.5t-10.5 -70.5z" />
    <glyph glyph-name="uni2117" unicode="&#x2117;" horiz-adv-x="807" 
d="M404 -18q-89 0 -159.5 30.5t-114 83t-66 118t-22.5 139.5q0 157 96 264t267 107q115 0 198 -52t122.5 -134.5t39.5 -184.5q0 -101 -39 -183.5t-122.5 -135t-199.5 -52.5zM404 46q72 0 128.5 25.5t91 68.5t52 96.5t17.5 113.5q0 135 -73.5 222.5t-213.5 87.5
q-143 0 -218 -87.5t-75 -218.5q0 -83 30.5 -151t98 -112.5t162.5 -44.5zM247 121v466h201q106 0 140 -75q13 -33 13 -74q0 -44 -13 -76q-34 -74 -140 -74h-71v-167h-130zM377 385h40q34 0 44 23q6 8 6 30q0 19 -6 29q-9 22 -44 22h-40v-104z" />
    <glyph glyph-name="trademark" unicode="&#x2122;" horiz-adv-x="697" 
d="M75 396v226h-63v84h225v-84h-61v-226h-101zM269 396v310h119l73 -171l73 171h117v-310h-96v171l-73 -171h-43l-74 171v-171h-96z" />
    <glyph glyph-name="uni2126" unicode="&#x2126;" horiz-adv-x="725" 
d="M527 171v-48h139v-123h-265v268q59 8 86 54.5t27 112.5q0 163 -152 163q-79 0 -115 -44.5t-36 -118.5q0 -67 28 -112.5t86 -54.5v-268h-265v123h137v49q-79 33 -117 102.5t-38 160.5q0 135 80 212t240 77q162 0 241.5 -77t79.5 -212q0 -201 -156 -264z" />
    <glyph glyph-name="estimated" unicode="&#x212e;" horiz-adv-x="858" 
d="M435 -11q-100 0 -186 42.5t-139.5 121.5t-53.5 177q0 145 110.5 243t268.5 98q156 0 267 -99.5t111 -247.5h-608q-10 0 -10 -11v-197q47 -51 110 -78.5t130 -27.5q73 0 139 32.5t113 88.5h57q-56 -68 -138 -105t-171 -37zM205 347h461q9 0 9 11v184q-44 51 -108 79.5
t-132 28.5q-70 0 -133 -28.5t-107 -78.5v-185q0 -11 10 -11z" />
    <glyph glyph-name="partialdiff" unicode="&#x2202;" horiz-adv-x="632" 
d="M311 724q66 0 117 -19t84 -51.5t54.5 -79t30 -98t8.5 -112.5q0 -81 -16.5 -147.5t-51 -120.5t-96 -84t-145.5 -30q-134 0 -204 71t-70 185q0 105 58.5 167t171.5 62q130 0 187 -87v2q0 215 -134 215q-86 0 -105 -79h-160q15 97 86 151.5t185 54.5zM305 114q57 0 84.5 33
t27.5 84q0 54 -29 86.5t-85 32.5t-83 -32.5t-27 -84.5q0 -53 27.5 -86t84.5 -33z" />
    <glyph glyph-name="uni2206" unicode="&#x2206;" horiz-adv-x="699" 
d="M475 706l219 -706h-689l219 706h251zM216 129h267l-133 453h-2z" />
    <glyph glyph-name="product" unicode="&#x220f;" horiz-adv-x="742" 
d="M77 -201v907h588v-907h-167v769h-255v-769h-166z" />
    <glyph glyph-name="summation" unicode="&#x2211;" horiz-adv-x="620" 
d="M32 -200l227 472l-221 434h481v-137h-224l145 -297l-153 -335h251v-137h-506z" />
    <glyph glyph-name="minus" unicode="&#x2212;" horiz-adv-x="593" 
d="M56 233v122h481v-122h-481z" />
    <glyph glyph-name="uni2215" unicode="&#x2215;" horiz-adv-x="593" 
d="M131 0l294 706h142l-294 -706h-142z" />
    <glyph glyph-name="uni2219" unicode="&#x2219;" horiz-adv-x="593" 
d="M297 272q-43 0 -71 27t-28 69t28 69.5t71 27.5t70.5 -27.5t27.5 -69.5t-27.5 -69t-70.5 -27z" />
    <glyph glyph-name="radical" unicode="&#x221a;" horiz-adv-x="741" 
d="M563 706h173l-294 -908h-175l-160 432l-97 -29v156l213 55l132 -405z" />
    <glyph glyph-name="infinity" unicode="&#x221e;" horiz-adv-x="830" 
d="M600 466q94 0 144.5 -62t50.5 -154t-49.5 -154.5t-145.5 -62.5q-108 0 -185 106q-79 -106 -185 -106q-96 0 -145.5 62.5t-49.5 154.5t50.5 154t144.5 62q108 0 185 -106q77 106 185 106zM246 170q49 0 94 80q-44 78 -94 78q-32 0 -47.5 -21.5t-15.5 -56.5t16.5 -57.5
t46.5 -22.5zM584 170q30 0 46.5 22.5t16.5 57.5t-15.5 56.5t-47.5 21.5q-50 0 -94 -78q45 -80 94 -80z" />
    <glyph glyph-name="integral" unicode="&#x222b;" horiz-adv-x="401" 
d="M84 -207q-52 0 -84 6l25 133q14 -1 33 -1q46 0 51 49l42 559q7 88 50.5 130.5t131.5 42.5q37 0 68 -6l-28 -137q-12 2 -20 2q-40 0 -45 -50l-44 -559q-7 -88 -49.5 -128.5t-130.5 -40.5z" />
    <glyph glyph-name="approxequal" unicode="&#x2248;" horiz-adv-x="593" 
d="M391 311q-38 0 -102 31q-44 22 -64 22q-38 0 -43 -51h-103q8 166 122 166q38 0 104 -31q42 -22 62 -22q39 0 42 49h105q-9 -164 -123 -164zM391 110q-38 0 -102 31q-48 22 -64 22q-38 0 -43 -51h-103q8 165 122 165q44 0 104 -30q44 -23 62 -23q39 0 42 51h105
q-5 -83 -34 -124t-89 -41z" />
    <glyph glyph-name="notequal" unicode="&#x2260;" horiz-adv-x="593" 
d="M537 333h-161l-52 -78h213v-122h-283l-67 -102h-83l65 102h-113v122h184l52 78h-236v122h306l66 102h84l-65 -102h90v-122z" />
    <glyph glyph-name="lessequal" unicode="&#x2264;" horiz-adv-x="593" 
d="M537 556v-126l-390 -64l390 -64v-125l-481 94v190zM56 32v124h481v-124h-481z" />
    <glyph glyph-name="greaterequal" unicode="&#x2265;" horiz-adv-x="593" 
d="M56 556l481 -95v-190l-481 -94v125l390 64l-390 64v126zM56 32v124h481v-124h-481z" />
    <glyph glyph-name="lozenge" unicode="&#x25ca;" horiz-adv-x="574" 
d="M197 -201l-177 454l177 453h181l176 -453l-176 -454h-181zM288 -45l106 298l-106 296l-106 -296z" />
    <glyph glyph-name="uniFB00" unicode="&#xfb00;" horiz-adv-x="718" 
d="M74 0v375h-58v124h58v49q0 92 44.5 133.5t144.5 41.5q43 0 75 -8v-127q-23 7 -45 7q-62 0 -62 -65v-31h104v-124h-104v-375h-157zM438 0v375h-58v124h58v49q0 92 44.5 133.5t144.5 41.5q43 0 75 -8v-127q-23 7 -45 7q-62 0 -62 -65v-31h104v-124h-104v-375h-157z" />
    <glyph glyph-name="fi" unicode="&#xfb01;" horiz-adv-x="638" 
d="M496 570q-37 0 -61.5 23.5t-24.5 58.5t24.5 59t61.5 24q36 0 61 -24t25 -59q0 -34 -25 -58t-61 -24zM74 0v375h-58v124h58v49q0 92 44.5 133.5t144.5 41.5q43 0 75 -8v-127q-23 7 -45 7q-62 0 -62 -65v-31h104v-124h-104v-375h-157zM418 0v499h156v-499h-156z" />
    <glyph glyph-name="fl" unicode="&#xfb02;" horiz-adv-x="638" 
d="M74 0v375h-58v124h58v49q0 92 44.5 133.5t144.5 41.5q43 0 75 -8v-127q-23 7 -45 7q-62 0 -62 -65v-31h104v-124h-104v-375h-157zM418 0v706h156v-706h-156z" />
    <glyph glyph-name="uniFB03" unicode="&#xfb03;" horiz-adv-x="1002" 
d="M860 570q-37 0 -61.5 23.5t-24.5 58.5t24.5 59t61.5 24q36 0 61 -24t25 -59q0 -34 -25 -58t-61 -24zM74 0v375h-58v124h58v49q0 92 44.5 133.5t144.5 41.5q43 0 75 -8v-127q-23 7 -45 7q-62 0 -62 -65v-31h104v-124h-104v-375h-157zM438 0v375h-58v124h58v49
q0 92 44.5 133.5t144.5 41.5q43 0 75 -8v-127q-23 7 -45 7q-62 0 -62 -65v-31h104v-124h-104v-375h-157zM781 0v499h157v-499h-157z" />
    <glyph glyph-name="uniFB04" unicode="&#xfb04;" horiz-adv-x="1002" 
d="M74 0v375h-58v124h58v49q0 92 44.5 133.5t144.5 41.5q43 0 75 -8v-127q-23 7 -45 7q-62 0 -62 -65v-31h104v-124h-104v-375h-157zM438 0v375h-58v124h58v49q0 92 44.5 133.5t144.5 41.5q43 0 75 -8v-127q-23 7 -45 7q-62 0 -62 -65v-31h104v-124h-104v-375h-157zM781 0
v706h157v-706h-157z" />
    <glyph glyph-name="uniFEFF" unicode="&#xfeff;" 
 />
    <glyph glyph-name="uni00A40301" horiz-adv-x="389" 
d="M151 772l95 142h160l-110 -142h-145zM82 -3q-34 0 -62 4v150q16 -3 39 -3q57 0 79.5 24.5t22.5 87.5v446h166v-468q0 -123 -58 -182t-187 -59z" />
    <glyph glyph-name="M.ss01" horiz-adv-x="860" 
d="M77 0v706h206l151 -260l147 260h203v-706h-162v506l-155 -271h-72l-157 271v-506h-161z" />
    <glyph glyph-name="Q.ss02" horiz-adv-x="754" 
d="M712 353q0 -111 -38.5 -197t-117.5 -132l66 -123l-146 -68l-74 150q-8 -1 -25 -1q-87 0 -153.5 29.5t-105 82t-57.5 117.5t-19 142q0 78 19.5 143.5t58.5 117.5t104.5 81t152.5 29t153.5 -29.5t105 -81.5t57.5 -117t19 -143zM219 353q0 -39 4 -70.5t14.5 -62t27.5 -51
t45.5 -33t66.5 -12.5q158 0 158 229t-158 229q-48 0 -80.5 -18.5t-48.5 -52.5t-22.5 -71.5t-6.5 -86.5z" />
    <glyph glyph-name="Oslash.ss04" horiz-adv-x="754" 
d="M736 704l-88 -108q64 -96 64 -243q0 -78 -19 -144t-58 -117.5t-105 -80.5t-153 -29q-89 0 -159 32l-79 -104l-118 91l87 107q-66 95 -66 245q0 78 19.5 143.5t58.5 117.5t104.5 81t152.5 29q91 0 162 -33l80 104zM377 124q158 0 158 229t-158 229q-48 0 -80.5 -18.5
t-48.5 -52.5t-22.5 -71.5t-6.5 -86.5q0 -39 4 -70.5t14.5 -62t27.5 -51t45.5 -33t66.5 -12.5z" />
    <glyph glyph-name="i.loclTRK" horiz-adv-x="284" 
d="M142 570q-37 0 -61.5 23.5t-24.5 58.5t24.5 59t61.5 24q36 0 60.5 -24t24.5 -59t-24.5 -58.5t-60.5 -23.5zM64 0v499h156v-499h-156z" />
    <glyph glyph-name="uni006A0301" horiz-adv-x="284" 
d="M56 570l72 157h153l-92 -157h-133zM51 -204q-46 0 -67 3v136q12 -2 32 -2q48 0 48 50v516h156v-534q0 -89 -40 -129t-129 -40z" />
    <glyph glyph-name="oslash.ss04" horiz-adv-x="588" 
d="M492 435q61 -70 61 -184q0 -117 -65.5 -190.5t-193.5 -73.5q-50 0 -89 12l-50 -81l-114 65l56 82q-62 71 -62 186q0 116 66 189t193 73q51 0 90 -12l50 79l113 -65zM294 119q55 0 73.5 35t18.5 97q0 63 -19 97t-73 34q-53 0 -72.5 -34t-19.5 -97q0 -64 20 -98t72 -34z
" />
    <glyph glyph-name="f_i" horiz-adv-x="638" 
d="M496 570q-37 0 -61.5 23.5t-24.5 58.5t24.5 59t61.5 24q36 0 61 -24t25 -59q0 -34 -25 -58t-61 -24zM74 0v375h-58v124h58v49q0 92 44.5 133.5t144.5 41.5q43 0 75 -8v-127q-23 7 -45 7q-62 0 -62 -65v-31h104v-124h-104v-375h-157zM418 0v499h156v-499h-156z" />
    <glyph glyph-name="f_l" horiz-adv-x="638" 
d="M74 0v375h-58v124h58v49q0 92 44.5 133.5t144.5 41.5q43 0 75 -8v-127q-23 7 -45 7q-62 0 -62 -65v-31h104v-124h-104v-375h-157zM418 0v706h156v-706h-156z" />
    <glyph glyph-name="a.sc" horiz-adv-x="623" 
d="M451 0l-30 101h-219l-30 -101h-167l185 590h243l185 -590h-167zM238 224h147l-73 245h-2z" />
    <glyph glyph-name="aacute.sc" horiz-adv-x="623" 
d="M463 817l-104 -157h-138l88 157h154zM451 0l-30 101h-219l-30 -101h-167l185 590h243l185 -590h-167zM238 224h147l-73 245h-2z" />
    <glyph glyph-name="abreve.sc" horiz-adv-x="623" 
d="M313 652q-174 0 -183 166h112q4 -42 21 -60t50 -18q32 0 49 18t21 60h110q-8 -166 -180 -166zM451 0l-30 101h-219l-30 -101h-167l185 590h243l185 -590h-167zM238 224h147l-73 245h-2z" />
    <glyph glyph-name="acircumflex.sc" horiz-adv-x="623" 
d="M311 748l-51 -88h-139l100 158h182l99 -158h-138zM451 0l-30 101h-219l-30 -101h-167l185 590h243l185 -590h-167zM238 224h147l-73 245h-2z" />
    <glyph glyph-name="adieresis.sc" horiz-adv-x="623" 
d="M207 659q-35 0 -58.5 22t-23.5 55q0 34 23.5 56.5t58.5 22.5q34 0 57.5 -22.5t23.5 -56.5q0 -33 -23.5 -55t-57.5 -22zM416 659q-35 0 -58.5 22t-23.5 55q0 34 23.5 56.5t58.5 22.5q34 0 57.5 -22.5t23.5 -56.5q0 -33 -23.5 -55t-57.5 -22zM451 0l-30 101h-219l-30 -101
h-167l185 590h243l185 -590h-167zM238 224h147l-73 245h-2z" />
    <glyph glyph-name="agrave.sc" horiz-adv-x="623" 
d="M401 660h-138l-104 157h154zM451 0l-30 101h-219l-30 -101h-167l185 590h243l185 -590h-167zM238 224h147l-73 245h-2z" />
    <glyph glyph-name="amacron.sc" horiz-adv-x="623" 
d="M464 785v-99h-305v99h305zM451 0l-30 101h-219l-30 -101h-167l185 590h243l185 -590h-167zM238 224h147l-73 245h-2z" />
    <glyph glyph-name="aogonek.sc" horiz-adv-x="623" 
d="M580 -122q22 0 39 7v-86q-33 -13 -78 -13q-56 0 -89 24.5t-33 70.5q0 71 94 119h-62l-30 101h-219l-30 -101h-167l185 590h243l185 -590q-37 -26 -55.5 -46.5t-18.5 -43.5q0 -32 36 -32zM238 224h147l-73 245h-2z" />
    <glyph glyph-name="aring.sc" horiz-adv-x="623" 
d="M310 639q-60 0 -97.5 34.5t-37.5 89.5q0 56 37 90t98 34q62 0 99.5 -34t37.5 -90q0 -55 -38 -89.5t-99 -34.5zM310 812q-22 0 -35 -13.5t-13 -35.5q0 -21 13 -34t35 -13q23 0 36.5 13t13.5 34q0 22 -13.5 35.5t-36.5 13.5zM451 0l-30 101h-219l-30 -101h-167l185 590h243
l185 -590h-167zM238 224h147l-73 245h-2z" />
    <glyph glyph-name="aringacute.sc" horiz-adv-x="623" 
d="M463 1114l-104 -157h-138l88 157h154zM310 639q-60 0 -97.5 34.5t-37.5 89.5q0 56 37 90t98 34q62 0 99.5 -34t37.5 -90q0 -55 -38 -89.5t-99 -34.5zM310 812q-22 0 -35 -13.5t-13 -35.5q0 -21 13 -34t35 -13q23 0 36.5 13t13.5 34q0 22 -13.5 35.5t-36.5 13.5zM451 0
l-30 101h-219l-30 -101h-167l185 590h243l185 -590h-167zM238 224h147l-73 245h-2z" />
    <glyph glyph-name="atilde.sc" horiz-adv-x="623" 
d="M248 714q-30 0 -32 -53h-89q2 81 27 120t76 39q37 0 84 -29q39 -26 59 -26q17 0 24 12.5t9 40.5h89q-2 -81 -27 -120t-77 -39q-42 0 -83 28q-41 27 -60 27zM451 0l-30 101h-219l-30 -101h-167l185 590h243l185 -590h-167zM238 224h147l-73 245h-2z" />
    <glyph glyph-name="ae.sc" horiz-adv-x="753" 
d="M698 457h-210l11 -92h196v-133h-180l12 -100h171v-132h-319l-11 103h-160l-35 -103h-168l215 590h478v-133zM249 225h106l-25 236h-2z" />
    <glyph glyph-name="aeacute.sc" horiz-adv-x="753" 
d="M564 817l-104 -157h-138l88 157h154zM698 457h-210l11 -92h196v-133h-180l12 -100h171v-132h-319l-11 103h-160l-35 -103h-168l215 590h478v-133zM249 225h106l-25 236h-2z" />
    <glyph glyph-name="b.sc" horiz-adv-x="579" 
d="M428 318q121 -38 121 -150q0 -77 -51.5 -122.5t-150.5 -45.5h-270v590h272q89 0 134 -41t45 -104q0 -98 -100 -127zM237 482v-121h49q77 0 77 61q0 60 -79 60h-47zM284 110q95 0 95 68q0 74 -93 74h-49v-142h47z" />
    <glyph glyph-name="c.sc" horiz-adv-x="644" 
d="M336 -16q-148 0 -221 86.5t-73 224.5q0 137 73 223.5t220 86.5q118 0 192 -67t77 -174h-171q-1 48 -28 75t-76 27q-36 0 -60 -13t-35.5 -38t-16 -53t-4.5 -66q0 -85 24 -128.5t92 -43.5q101 0 106 93h171q-1 -103 -78.5 -168t-191.5 -65z" />
    <glyph glyph-name="cacute.sc" horiz-adv-x="644" 
d="M245 660l88 157h154l-104 -157h-138zM336 -16q-148 0 -221 86.5t-73 224.5q0 137 73 223.5t220 86.5q118 0 192 -67t77 -174h-171q-1 48 -28 75t-76 27q-36 0 -60 -13t-35.5 -38t-16 -53t-4.5 -66q0 -85 24 -128.5t92 -43.5q101 0 106 93h171q-1 -103 -78.5 -168
t-191.5 -65z" />
    <glyph glyph-name="ccaron.sc" horiz-adv-x="644" 
d="M526 818l-100 -158h-182l-99 158h138l52 -88l52 88h139zM336 -16q-148 0 -221 86.5t-73 224.5q0 137 73 223.5t220 86.5q118 0 192 -67t77 -174h-171q-1 48 -28 75t-76 27q-36 0 -60 -13t-35.5 -38t-16 -53t-4.5 -66q0 -85 24 -128.5t92 -43.5q101 0 106 93h171
q-1 -103 -78.5 -168t-191.5 -65z" />
    <glyph glyph-name="ccedilla.sc" horiz-adv-x="644" 
d="M606 217q-1 -92 -65 -155t-162 -75l-5 -23h7q46 0 72.5 -25.5t26.5 -66.5q0 -106 -152 -106q-53 0 -101 17l16 74q32 -14 72 -14q56 0 56 33q0 31 -59 31h-57l19 82q-116 18 -174 101t-58 205q0 137 73 223.5t220 86.5q118 0 192 -67t77 -174h-171q-1 48 -28 75t-76 27
q-36 0 -60 -13t-35.5 -38t-16 -53t-4.5 -66q0 -85 24 -128.5t92 -43.5q101 0 106 93h171z" />
    <glyph glyph-name="ccircumflex.sc" horiz-adv-x="644" 
d="M145 660l100 158h182l99 -158h-138l-53 88l-51 -88h-139zM336 -16q-148 0 -221 86.5t-73 224.5q0 137 73 223.5t220 86.5q118 0 192 -67t77 -174h-171q-1 48 -28 75t-76 27q-36 0 -60 -13t-35.5 -38t-16 -53t-4.5 -66q0 -85 24 -128.5t92 -43.5q101 0 106 93h171
q-1 -103 -78.5 -168t-191.5 -65z" />
    <glyph glyph-name="cdotaccent.sc" horiz-adv-x="644" 
d="M336 660q-37 0 -61.5 23.5t-24.5 58.5t24.5 59t61.5 24q36 0 60.5 -24t24.5 -59t-24.5 -58.5t-60.5 -23.5zM336 -16q-148 0 -221 86.5t-73 224.5q0 137 73 223.5t220 86.5q118 0 192 -67t77 -174h-171q-1 48 -28 75t-76 27q-36 0 -60 -13t-35.5 -38t-16 -53t-4.5 -66
q0 -85 24 -128.5t92 -43.5q101 0 106 93h171q-1 -103 -78.5 -168t-191.5 -65z" />
    <glyph glyph-name="d.sc" horiz-adv-x="653" 
d="M77 0v590h247q148 0 217.5 -80.5t69.5 -214.5q0 -135 -69.5 -215t-217.5 -80h-247zM237 132h58q84 0 115 42t31 121t-31.5 120.5t-114.5 41.5h-58v-325z" />
    <glyph glyph-name="eth.sc" horiz-adv-x="653" 
d="M324 590q148 0 217.5 -80.5t69.5 -214.5q0 -135 -69.5 -215t-217.5 -80h-247v254h-50v98h50v238h247zM295 132q84 0 115 42t31 121t-31.5 120.5t-114.5 41.5h-58v-105h123v-98h-123v-122h58z" />
    <glyph glyph-name="dcaron.sc" horiz-adv-x="653" 
d="M515 818l-100 -158h-182l-99 158h138l52 -88l52 88h139zM77 0v590h247q148 0 217.5 -80.5t69.5 -214.5q0 -135 -69.5 -215t-217.5 -80h-247zM237 132h58q84 0 115 42t31 121t-31.5 120.5t-114.5 41.5h-58v-325z" />
    <glyph glyph-name="dcroat.sc" horiz-adv-x="653" 
d="M324 590q148 0 217.5 -80.5t69.5 -214.5q0 -135 -69.5 -215t-217.5 -80h-247v254h-50v98h50v238h247zM295 132q84 0 115 42t31 121t-31.5 120.5t-114.5 41.5h-58v-105h123v-98h-123v-122h58z" />
    <glyph glyph-name="e.sc" horiz-adv-x="520" 
d="M77 0v590h388v-133h-228v-93h225v-132h-225v-100h228v-132h-388z" />
    <glyph glyph-name="eacute.sc" horiz-adv-x="520" 
d="M183 660l88 157h154l-104 -157h-138zM77 0v590h388v-133h-228v-93h225v-132h-225v-100h228v-132h-388z" />
    <glyph glyph-name="ebreve.sc" horiz-adv-x="520" 
d="M274 652q-174 0 -183 166h112q4 -42 21 -60t50 -18q32 0 49 18t21 60h110q-8 -166 -180 -166zM77 0v590h388v-133h-228v-93h225v-132h-225v-100h228v-132h-388z" />
    <glyph glyph-name="ecaron.sc" horiz-adv-x="520" 
d="M463 818l-100 -158h-182l-99 158h138l52 -88l52 88h139zM77 0v590h388v-133h-228v-93h225v-132h-225v-100h228v-132h-388z" />
    <glyph glyph-name="ecircumflex.sc" horiz-adv-x="520" 
d="M82 660l100 158h182l99 -158h-138l-53 88l-51 -88h-139zM77 0v590h388v-133h-228v-93h225v-132h-225v-100h228v-132h-388z" />
    <glyph glyph-name="edieresis.sc" horiz-adv-x="520" 
d="M168 659q-35 0 -58.5 22t-23.5 55q0 34 23.5 56.5t58.5 22.5q34 0 57.5 -22.5t23.5 -56.5q0 -33 -23.5 -55t-57.5 -22zM377 659q-35 0 -58.5 22t-23.5 55q0 34 23.5 56.5t58.5 22.5q34 0 57.5 -22.5t23.5 -56.5q0 -33 -23.5 -55t-57.5 -22zM77 0v590h388v-133h-228v-93
h225v-132h-225v-100h228v-132h-388z" />
    <glyph glyph-name="edotaccent.sc" horiz-adv-x="520" 
d="M273 660q-37 0 -61.5 23.5t-24.5 58.5t24.5 59t61.5 24q36 0 60.5 -24t24.5 -59t-24.5 -58.5t-60.5 -23.5zM77 0v590h388v-133h-228v-93h225v-132h-225v-100h228v-132h-388z" />
    <glyph glyph-name="egrave.sc" horiz-adv-x="520" 
d="M362 660h-138l-104 157h154zM77 0v590h388v-133h-228v-93h225v-132h-225v-100h228v-132h-388z" />
    <glyph glyph-name="emacron.sc" horiz-adv-x="520" 
d="M120 686v99h305v-99h-305zM77 0v590h388v-133h-228v-93h225v-132h-225v-100h228v-132h-388z" />
    <glyph glyph-name="eogonek.sc" horiz-adv-x="520" 
d="M427 -122q22 0 39 7v-86q-33 -13 -78 -13q-56 0 -89 24.5t-33 70.5q0 71 94 119h-283v590h388v-133h-228v-93h225v-132h-225v-100h228v-132q-37 -26 -55.5 -46.5t-18.5 -43.5q0 -32 36 -32z" />
    <glyph glyph-name="uni0259.sc" horiz-adv-x="626" 
d="M301 605q96 0 161 -43.5t93.5 -112t28.5 -156.5q0 -65 -16.5 -119.5t-49.5 -97.5t-88.5 -67.5t-128.5 -24.5q-90 0 -150 42.5t-84.5 107t-24.5 146.5v44h371q-3 69 -26.5 106.5t-82.5 37.5q-87 0 -97 -87h-161q7 102 77.5 163t177.5 61zM297 121q91 0 110 85h-210
q10 -85 100 -85z" />
    <glyph glyph-name="f.sc" horiz-adv-x="484" 
d="M77 0v590h365v-133h-205v-93h203v-132h-203v-232h-160z" />
    <glyph glyph-name="g.sc" horiz-adv-x="646" 
d="M330 327h274v-45q0 -134 -65 -216t-204 -82q-76 0 -133.5 24.5t-91.5 68t-51 98.5t-17 120q0 137 73.5 223.5t221.5 86.5q111 0 183.5 -61t79.5 -161h-161q-11 88 -106 88q-38 0 -63.5 -13t-38 -38.5t-17 -54.5t-4.5 -70q0 -90 26 -133t103 -43q57 0 82 22.5t28 70.5
h-119v115z" />
    <glyph glyph-name="gbreve.sc" horiz-adv-x="646" 
d="M337 652q-174 0 -183 166h112q4 -42 21 -60t50 -18q32 0 49 18t21 60h110q-8 -166 -180 -166zM330 327h274v-45q0 -134 -65 -216t-204 -82q-76 0 -133.5 24.5t-91.5 68t-51 98.5t-17 120q0 137 73.5 223.5t221.5 86.5q111 0 183.5 -61t79.5 -161h-161q-11 88 -106 88
q-38 0 -63.5 -13t-38 -38.5t-17 -54.5t-4.5 -70q0 -90 26 -133t103 -43q57 0 82 22.5t28 70.5h-119v115z" />
    <glyph glyph-name="gcircumflex.sc" horiz-adv-x="646" 
d="M335 748l-51 -88h-139l100 158h182l99 -158h-138zM330 327h274v-45q0 -134 -65 -216t-204 -82q-76 0 -133.5 24.5t-91.5 68t-51 98.5t-17 120q0 137 73.5 223.5t221.5 86.5q111 0 183.5 -61t79.5 -161h-161q-11 88 -106 88q-38 0 -63.5 -13t-38 -38.5t-17 -54.5t-4.5 -70
q0 -90 26 -133t103 -43q57 0 82 22.5t28 70.5h-119v115z" />
    <glyph glyph-name="uni0123.sc" horiz-adv-x="646" 
d="M330 327h274v-45q0 -134 -65 -216t-204 -82q-76 0 -133.5 24.5t-91.5 68t-51 98.5t-17 120q0 137 73.5 223.5t221.5 86.5q111 0 183.5 -61t79.5 -161h-161q-11 88 -106 88q-38 0 -63.5 -13t-38 -38.5t-17 -54.5t-4.5 -70q0 -90 26 -133t103 -43q57 0 82 22.5t28 70.5
h-119v115zM218 -200l38 148h161l-56 -148h-143z" />
    <glyph glyph-name="gdotaccent.sc" horiz-adv-x="646" 
d="M336 660q-37 0 -61.5 23.5t-24.5 58.5t24.5 59t61.5 24q36 0 60.5 -24t24.5 -59t-24.5 -58.5t-60.5 -23.5zM330 327h274v-45q0 -134 -65 -216t-204 -82q-76 0 -133.5 24.5t-91.5 68t-51 98.5t-17 120q0 137 73.5 223.5t221.5 86.5q111 0 183.5 -61t79.5 -161h-161
q-11 88 -106 88q-38 0 -63.5 -13t-38 -38.5t-17 -54.5t-4.5 -70q0 -90 26 -133t103 -43q57 0 82 22.5t28 70.5h-119v115z" />
    <glyph glyph-name="h.sc" horiz-adv-x="672" 
d="M77 0v590h160v-225h197v225h161v-590h-161v228h-197v-228h-160z" />
    <glyph glyph-name="hbar.sc" horiz-adv-x="672" 
d="M434 590h161v-590h-161v228h-197v-228h-160v590h160v-70h197v70zM237 365h197v60h-197v-60z" />
    <glyph glyph-name="hcircumflex.sc" horiz-adv-x="672" 
d="M146 660l100 158h182l99 -158h-138l-53 88l-51 -88h-139zM77 0v590h160v-225h197v225h161v-590h-161v228h-197v-228h-160z" />
    <glyph glyph-name="i.sc" horiz-adv-x="314" 
d="M77 0v590h160v-590h-160z" />
    <glyph glyph-name="dotlessi.sc" horiz-adv-x="314" 
d="M77 0v590h160v-590h-160z" />
    <glyph glyph-name="iacute.sc" horiz-adv-x="314" 
d="M71 660l72 157h153l-92 -157h-133zM77 0v590h160v-590h-160z" />
    <glyph glyph-name="ibreve.sc" horiz-adv-x="314" 
d="M157 651q-145 0 -145 167h98q0 -44 11 -61t36 -17q24 0 35.5 17t11.5 61h98q-2 -167 -145 -167zM77 0v590h160v-590h-160z" />
    <glyph glyph-name="icircumflex.sc" horiz-adv-x="314" 
d="M7 660l75 158h150l74 -158h-112l-37 85l-38 -85h-112zM77 0v590h160v-590h-160z" />
    <glyph glyph-name="idieresis.sc" horiz-adv-x="314" 
d="M79 666q-31 0 -49.5 20t-18.5 54t18.5 54t49.5 20t49.5 -20t18.5 -54t-18.5 -54t-49.5 -20zM233 666q-31 0 -49.5 20t-18.5 54t18.5 54t49.5 20t49.5 -20t18.5 -54t-18.5 -54t-49.5 -20zM77 0v590h160v-590h-160z" />
    <glyph glyph-name="i.sc.loclTRK" horiz-adv-x="314" 
d="M157 660q-37 0 -61.5 23.5t-24.5 58.5t24.5 59t61.5 24q36 0 60.5 -24t24.5 -59t-24.5 -58.5t-60.5 -23.5zM77 0v590h160v-590h-160z" />
    <glyph glyph-name="igrave.sc" horiz-adv-x="314" 
d="M242 660h-132l-93 157h153zM77 0v590h160v-590h-160z" />
    <glyph glyph-name="ij.sc" horiz-adv-x="671" 
d="M77 0v590h160v-590h-160zM387 -3q-29 0 -53 4v146q18 -2 32 -2q46 0 64 18t18 66v361h161v-382q0 -108 -52.5 -159.5t-169.5 -51.5z" />
    <glyph glyph-name="imacron.sc" horiz-adv-x="314" 
d="M29 686v99h255v-99h-255zM77 0v590h160v-590h-160z" />
    <glyph glyph-name="iogonek.sc" horiz-adv-x="314" 
d="M209 -122q15 0 29 7v-87q-30 -12 -68 -12q-51 0 -81.5 22.5t-30.5 64.5q0 76 75 127h-56v590h160v-590q-54 -56 -54 -98q0 -24 26 -24z" />
    <glyph glyph-name="itilde.sc" horiz-adv-x="314" 
d="M217 659q-39 0 -70 35q-21 21 -31 21q-22 0 -24 -54h-83q2 83 21 121t65 38q38 0 71 -35q18 -21 31 -21q23 0 24 54h84q-2 -84 -21 -121.5t-67 -37.5zM77 0v590h160v-590h-160z" />
    <glyph glyph-name="j.sc" horiz-adv-x="357" 
d="M73 -3q-29 0 -53 4v146q18 -2 32 -2q46 0 64 18t18 66v361h161v-382q0 -108 -52.5 -159.5t-169.5 -51.5z" />
    <glyph glyph-name="uni006A0301.sc" horiz-adv-x="357" 
d="M129 660l72 157h153l-92 -157h-133zM73 -3q-29 0 -53 4v146q18 -2 32 -2q46 0 64 18t18 66v361h161v-382q0 -108 -52.5 -159.5t-169.5 -51.5z" />
    <glyph glyph-name="jcircumflex.sc" horiz-adv-x="357" 
d="M65 660l75 158h150l74 -158h-112l-37 85l-38 -85h-112zM73 -3q-29 0 -53 4v146q18 -2 32 -2q46 0 64 18t18 66v361h161v-382q0 -108 -52.5 -159.5t-169.5 -51.5z" />
    <glyph glyph-name="k.sc" horiz-adv-x="635" 
d="M629 0h-198l-194 260v-260h-160v590h160v-210l167 210h188l-216 -263z" />
    <glyph glyph-name="uni0137.sc" horiz-adv-x="635" 
d="M376 327l253 -327h-198l-194 260v-260h-160v590h160v-210l167 210h188zM204 -200l38 148h161l-56 -148h-143z" />
    <glyph glyph-name="kgreenlandic.sc" horiz-adv-x="635" 
d="M629 0h-198l-194 260v-260h-160v590h160v-210l167 210h188l-216 -263z" />
    <glyph glyph-name="l.sc" horiz-adv-x="440" 
d="M77 0v590h160v-448h182v-142h-342z" />
    <glyph glyph-name="lacute.sc" horiz-adv-x="440" 
d="M94 660l88 157h154l-104 -157h-138zM77 0v590h160v-448h182v-142h-342z" />
    <glyph glyph-name="lcaron.sc" horiz-adv-x="440" 
d="M77 0v590h160v-448h182v-142h-342zM272 418l23 172h132l-40 -172h-115z" />
    <glyph glyph-name="uni013C.sc" horiz-adv-x="440" 
d="M77 0v590h160v-448h182v-142h-342zM134 -200l38 148h161l-56 -148h-143z" />
    <glyph glyph-name="ldot.sc" horiz-adv-x="528" 
d="M77 0v590h160v-448h182v-142h-342zM409 274q-43 0 -70.5 27t-27.5 69t27.5 69t70.5 27t70.5 -27t27.5 -69t-27.5 -69t-70.5 -27z" />
    <glyph glyph-name="lslash.sc" horiz-adv-x="440" 
d="M237 142h182v-142h-342v213l-60 -39v123l60 40v253h160v-174l129 86v-125l-129 -86v-149z" />
    <glyph glyph-name="m.sc" horiz-adv-x="817" 
d="M77 0v590h186l146 -327l146 327h185v-590h-152v329l-145 -329h-70l-145 329v-329h-151z" />
    <glyph glyph-name="n.sc" horiz-adv-x="687" 
d="M77 0v590h158l220 -334v334h155v-590h-159l-219 335v-335h-155z" />
    <glyph glyph-name="nacute.sc" horiz-adv-x="687" 
d="M254 660l88 157h154l-104 -157h-138zM77 0v590h158l220 -334v334h155v-590h-159l-219 335v-335h-155z" />
    <glyph glyph-name="napostrophe.sc" horiz-adv-x="904" 
d="M36 424l68 282h163l-110 -282h-121zM310 0v590h158l220 -334v334h156v-590h-159l-219 335v-335h-156z" />
    <glyph glyph-name="ncaron.sc" horiz-adv-x="687" 
d="M535 818l-100 -158h-182l-99 158h138l52 -88l52 88h139zM77 0v590h158l220 -334v334h155v-590h-159l-219 335v-335h-155z" />
    <glyph glyph-name="uni0146.sc" horiz-adv-x="687" 
d="M77 0v590h158l220 -334v334h155v-590h-159l-219 335v-335h-155zM225 -200l38 148h161l-56 -148h-143z" />
    <glyph glyph-name="eng.sc" horiz-adv-x="687" 
d="M455 590h155v-613q0 -77 -37 -112.5t-119 -35.5q-34 0 -65 3v127q16 -2 25 -2q42 0 42 36v10l-224 332v-335h-155v590h158l220 -332v332z" />
    <glyph glyph-name="ntilde.sc" horiz-adv-x="687" 
d="M424 659q-42 0 -83 28q-41 27 -60 27q-30 0 -32 -53h-89q2 81 27 120t76 39q37 0 84 -29q39 -26 59 -26q17 0 24 12.5t9 40.5h89q-2 -81 -27 -120t-77 -39zM77 0v590h158l220 -334v334h155v-590h-159l-219 335v-335h-155z" />
    <glyph glyph-name="o.sc" horiz-adv-x="673" 
d="M336 -16q-148 0 -221 87t-73 224t73.5 223.5t220.5 86.5q149 0 221.5 -87t72.5 -223q0 -89 -29 -157t-96.5 -111t-168.5 -43zM336 123q124 0 124 172q0 171 -124 171q-71 0 -97 -46t-26 -125q0 -37 5.5 -65.5t18 -54t38 -39t61.5 -13.5z" />
    <glyph glyph-name="oacute.sc" horiz-adv-x="673" 
d="M246 660l88 157h154l-104 -157h-138zM336 -16q-148 0 -221 87t-73 224t73.5 223.5t220.5 86.5q149 0 221.5 -87t72.5 -223q0 -89 -29 -157t-96.5 -111t-168.5 -43zM336 123q124 0 124 172q0 171 -124 171q-71 0 -97 -46t-26 -125q0 -37 5.5 -65.5t18 -54t38 -39
t61.5 -13.5z" />
    <glyph glyph-name="obreve.sc" horiz-adv-x="673" 
d="M338 652q-174 0 -183 166h112q4 -42 21 -60t50 -18q32 0 49 18t21 60h110q-8 -166 -180 -166zM336 -16q-148 0 -221 87t-73 224t73.5 223.5t220.5 86.5q149 0 221.5 -87t72.5 -223q0 -89 -29 -157t-96.5 -111t-168.5 -43zM336 123q124 0 124 172q0 171 -124 171
q-71 0 -97 -46t-26 -125q0 -37 5.5 -65.5t18 -54t38 -39t61.5 -13.5z" />
    <glyph glyph-name="ocircumflex.sc" horiz-adv-x="673" 
d="M146 660l100 158h182l99 -158h-138l-53 88l-51 -88h-139zM336 -16q-148 0 -221 87t-73 224t73.5 223.5t220.5 86.5q149 0 221.5 -87t72.5 -223q0 -89 -29 -157t-96.5 -111t-168.5 -43zM336 123q124 0 124 172q0 171 -124 171q-71 0 -97 -46t-26 -125q0 -37 5.5 -65.5
t18 -54t38 -39t61.5 -13.5z" />
    <glyph glyph-name="odieresis.sc" horiz-adv-x="673" 
d="M232 659q-35 0 -58.5 22t-23.5 55q0 34 23.5 56.5t58.5 22.5q34 0 57.5 -22.5t23.5 -56.5q0 -33 -23.5 -55t-57.5 -22zM441 659q-35 0 -58.5 22t-23.5 55q0 34 23.5 56.5t58.5 22.5q34 0 57.5 -22.5t23.5 -56.5q0 -33 -23.5 -55t-57.5 -22zM336 -16q-148 0 -221 87
t-73 224t73.5 223.5t220.5 86.5q149 0 221.5 -87t72.5 -223q0 -89 -29 -157t-96.5 -111t-168.5 -43zM336 123q124 0 124 172q0 171 -124 171q-71 0 -97 -46t-26 -125q0 -37 5.5 -65.5t18 -54t38 -39t61.5 -13.5z" />
    <glyph glyph-name="ograve.sc" horiz-adv-x="673" 
d="M426 660h-138l-104 157h154zM336 -16q-148 0 -221 87t-73 224t73.5 223.5t220.5 86.5q149 0 221.5 -87t72.5 -223q0 -89 -29 -157t-96.5 -111t-168.5 -43zM336 123q124 0 124 172q0 171 -124 171q-71 0 -97 -46t-26 -125q0 -37 5.5 -65.5t18 -54t38 -39t61.5 -13.5z" />
    <glyph glyph-name="ohungarumlaut.sc" horiz-adv-x="673" 
d="M180 660l94 158h130l-119 -158h-105zM359 660l93 158h130l-118 -158h-105zM336 -16q-148 0 -221 87t-73 224t73.5 223.5t220.5 86.5q149 0 221.5 -87t72.5 -223q0 -89 -29 -157t-96.5 -111t-168.5 -43zM336 123q124 0 124 172q0 171 -124 171q-71 0 -97 -46t-26 -125
q0 -37 5.5 -65.5t18 -54t38 -39t61.5 -13.5z" />
    <glyph glyph-name="omacron.sc" horiz-adv-x="673" 
d="M184 686v99h305v-99h-305zM336 -16q-148 0 -221 87t-73 224t73.5 223.5t220.5 86.5q149 0 221.5 -87t72.5 -223q0 -89 -29 -157t-96.5 -111t-168.5 -43zM336 123q124 0 124 172q0 171 -124 171q-71 0 -97 -46t-26 -125q0 -37 5.5 -65.5t18 -54t38 -39t61.5 -13.5z" />
    <glyph glyph-name="oslash.sc" horiz-adv-x="673" 
d="M650 590l-80 -88q60 -79 60 -207q0 -89 -29 -157t-96.5 -111t-168.5 -43q-109 0 -181 51l-32 -35h-100l79 87q-60 80 -60 208q0 137 73.5 223.5t220.5 86.5q109 0 181 -51l34 36h99zM336 466q-71 0 -97 -46t-26 -125q0 -47 8 -80l195 224q-30 27 -80 27zM336 123
q124 0 124 172q0 47 -8 79l-196 -223q28 -28 80 -28z" />
    <glyph glyph-name="oslashacute.sc" horiz-adv-x="673" 
d="M488 817l-104 -157h-138l88 157h154zM650 590l-80 -88q60 -79 60 -207q0 -89 -29 -157t-96.5 -111t-168.5 -43q-109 0 -181 51l-32 -35h-100l79 87q-60 80 -60 208q0 137 73.5 223.5t220.5 86.5q109 0 181 -51l34 36h99zM336 466q-71 0 -97 -46t-26 -125q0 -47 8 -80
l195 224q-30 27 -80 27zM336 123q124 0 124 172q0 47 -8 79l-196 -223q28 -28 80 -28z" />
    <glyph glyph-name="otilde.sc" horiz-adv-x="673" 
d="M416 659q-42 0 -83 28q-41 27 -60 27q-30 0 -32 -53h-89q2 81 27 120t76 39q37 0 84 -29q39 -26 59 -26q17 0 24 12.5t9 40.5h89q-2 -81 -27 -120t-77 -39zM336 -16q-148 0 -221 87t-73 224t73.5 223.5t220.5 86.5q149 0 221.5 -87t72.5 -223q0 -89 -29 -157t-96.5 -111
t-168.5 -43zM336 123q124 0 124 172q0 171 -124 171q-71 0 -97 -46t-26 -125q0 -37 5.5 -65.5t18 -54t38 -39t61.5 -13.5z" />
    <glyph glyph-name="oe.sc" horiz-adv-x="892" 
d="M838 457h-228v-92h226v-133h-226v-100h228v-132h-359v37q-61 -45 -157 -45q-143 0 -211.5 83t-68.5 220q0 135 69.5 218.5t210.5 83.5q96 0 157 -44v37h359v-133zM332 123q69 0 94.5 46t25.5 126q0 38 -5 66.5t-17 53.5t-37 38t-61 13q-69 0 -94 -45.5t-25 -125.5
q0 -51 8.5 -86.5t36 -60.5t74.5 -25z" />
    <glyph glyph-name="p.sc" horiz-adv-x="556" 
d="M77 0v590h259q106 0 152.5 -47.5t46.5 -134.5q0 -191 -199 -191h-99v-217h-160zM237 337h50q44 0 63 16t19 52q0 34 -19 49t-63 15h-50v-132z" />
    <glyph glyph-name="thorn.sc" horiz-adv-x="556" 
d="M77 0v590h160v-79h83q215 0 215 -204q0 -215 -215 -215h-83v-92h-160zM237 219h41q50 0 70.5 21.5t20.5 66.5q0 40 -20 58t-71 18h-41v-164z" />
    <glyph glyph-name="q.sc" horiz-adv-x="673" 
d="M630 295q0 -178 -111 -259l66 -95l-115 -73l-75 120q-25 -4 -59 -4q-148 0 -221 87t-73 224t73.5 223.5t220.5 86.5q149 0 221.5 -87t72.5 -223zM213 295q0 -153 96 -170l-18 29l101 66l38 -55q30 43 30 130q0 171 -124 171q-71 0 -97 -46t-26 -125z" />
    <glyph glyph-name="r.sc" horiz-adv-x="595" 
d="M406 0l-148 219h-21v-219h-160v590h262q199 0 199 -179q0 -142 -112 -179l159 -232h-179zM237 468v-136h52q45 0 64.5 18t19.5 57q0 35 -20 48t-64 13h-52z" />
    <glyph glyph-name="racute.sc" horiz-adv-x="595" 
d="M445 817l-104 -157h-138l88 157h154zM406 0l-148 219h-21v-219h-160v590h262q199 0 199 -179q0 -142 -112 -179l159 -232h-179zM237 468v-136h52q45 0 64.5 18t19.5 57q0 35 -20 48t-64 13h-52z" />
    <glyph glyph-name="rcaron.sc" horiz-adv-x="595" 
d="M383 660h-182l-99 158h138l52 -88l52 88h139zM406 0l-148 219h-21v-219h-160v590h262q199 0 199 -179q0 -142 -112 -179l159 -232h-179zM237 468v-136h52q45 0 64.5 18t19.5 57q0 35 -20 48t-64 13h-52z" />
    <glyph glyph-name="uni0157.sc" horiz-adv-x="595" 
d="M426 232l159 -232h-179l-148 219h-21v-219h-160v590h262q199 0 199 -179q0 -142 -112 -179zM237 468v-136h52q45 0 64.5 18t19.5 57q0 35 -20 48t-64 13h-52zM202 -200l38 148h161l-56 -148h-143z" />
    <glyph glyph-name="s.sc" horiz-adv-x="560" 
d="M279 -16q-123 0 -186 53t-63 139h180q0 -68 72 -68q71 0 71 51q0 28 -30 44.5t-130 50.5q-74 25 -111.5 63.5t-37.5 100.5q0 85 61 136t172 51q110 0 167.5 -49.5t57.5 -135.5h-167q0 32 -13.5 49t-50.5 17q-63 0 -63 -44q0 -24 30 -38.5t117 -40.5q92 -27 133.5 -66
t41.5 -112q0 -95 -65 -148t-186 -53z" />
    <glyph glyph-name="sacute.sc" horiz-adv-x="560" 
d="M191 660l88 157h154l-104 -157h-138zM279 -16q-123 0 -186 53t-63 139h180q0 -68 72 -68q71 0 71 51q0 28 -30 44.5t-130 50.5q-74 25 -111.5 63.5t-37.5 100.5q0 85 61 136t172 51q110 0 167.5 -49.5t57.5 -135.5h-167q0 32 -13.5 49t-50.5 17q-63 0 -63 -44
q0 -24 30 -38.5t117 -40.5q92 -27 133.5 -66t41.5 -112q0 -95 -65 -148t-186 -53z" />
    <glyph glyph-name="scaron.sc" horiz-adv-x="560" 
d="M472 818l-100 -158h-182l-99 158h138l52 -88l52 88h139zM279 -16q-123 0 -186 53t-63 139h180q0 -68 72 -68q71 0 71 51q0 28 -30 44.5t-130 50.5q-74 25 -111.5 63.5t-37.5 100.5q0 85 61 136t172 51q110 0 167.5 -49.5t57.5 -135.5h-167q0 32 -13.5 49t-50.5 17
q-63 0 -63 -44q0 -24 30 -38.5t117 -40.5q92 -27 133.5 -66t41.5 -112q0 -95 -65 -148t-186 -53z" />
    <glyph glyph-name="scedilla.sc" horiz-adv-x="560" 
d="M530 185q0 -85 -53 -137t-152 -62l-5 -22h7q46 0 72.5 -25.5t26.5 -66.5q0 -106 -152 -106q-53 0 -101 17l16 74q32 -14 72 -14q56 0 56 33q0 31 -59 31h-57l19 81q-94 12 -142 62.5t-48 125.5h180q0 -68 72 -68q71 0 71 51q0 28 -30 44.5t-130 50.5q-74 25 -111.5 63.5
t-37.5 100.5q0 85 61 136t172 51q110 0 167.5 -49.5t57.5 -135.5h-167q0 32 -13.5 49t-50.5 17q-63 0 -63 -44q0 -24 30 -38.5t117 -40.5q92 -27 133.5 -66t41.5 -112z" />
    <glyph glyph-name="scircumflex.sc" horiz-adv-x="560" 
d="M91 660l100 158h182l99 -158h-138l-53 88l-51 -88h-139zM279 -16q-123 0 -186 53t-63 139h180q0 -68 72 -68q71 0 71 51q0 28 -30 44.5t-130 50.5q-74 25 -111.5 63.5t-37.5 100.5q0 85 61 136t172 51q110 0 167.5 -49.5t57.5 -135.5h-167q0 32 -13.5 49t-50.5 17
q-63 0 -63 -44q0 -24 30 -38.5t117 -40.5q92 -27 133.5 -66t41.5 -112q0 -95 -65 -148t-186 -53z" />
    <glyph glyph-name="uni0219.sc" horiz-adv-x="560" 
d="M279 -16q-123 0 -186 53t-63 139h180q0 -68 72 -68q71 0 71 51q0 28 -30 44.5t-130 50.5q-74 25 -111.5 63.5t-37.5 100.5q0 85 61 136t172 51q110 0 167.5 -49.5t57.5 -135.5h-167q0 32 -13.5 49t-50.5 17q-63 0 -63 -44q0 -24 30 -38.5t117 -40.5q92 -27 133.5 -66
t41.5 -112q0 -95 -65 -148t-186 -53zM164 -200l38 148h161l-56 -148h-143z" />
    <glyph glyph-name="germandbls.sc" horiz-adv-x="618" 
d="M489 353q50 -21 74.5 -65t24.5 -99q0 -87 -56.5 -140t-165.5 -53q-40 0 -82 7v133q13 -3 43 -3q95 0 95 66q0 72 -88 72q-6 0 -24 -2v3l67 181h-140v-453h-160v590h498v-5z" />
    <glyph glyph-name="t.sc" horiz-adv-x="491" 
d="M165 0v457h-145v133h450v-133h-144v-457h-161z" />
    <glyph glyph-name="tbar.sc" horiz-adv-x="491" 
d="M470 457h-144v-100h86v-98h-86v-259h-161v259h-86v98h86v100h-145v133h450v-133z" />
    <glyph glyph-name="tcaron.sc" horiz-adv-x="491" 
d="M436 818l-100 -158h-182l-99 158h138l52 -88l52 88h139zM165 0v457h-145v133h450v-133h-144v-457h-161z" />
    <glyph glyph-name="uni0163.sc" horiz-adv-x="491" 
d="M326 0h-33l-9 -36h7q46 0 72.5 -25.5t26.5 -66.5q0 -106 -152 -106q-53 0 -101 17l16 74q32 -14 72 -14q56 0 56 33q0 31 -59 31h-57l22 93h-22v457h-145v133h450v-133h-144v-457z" />
    <glyph glyph-name="uni021B.sc" horiz-adv-x="491" 
d="M165 0v457h-145v133h450v-133h-144v-457h-161zM129 -200l38 148h161l-56 -148h-143z" />
    <glyph glyph-name="u.sc" horiz-adv-x="629" 
d="M314 -16q-253 0 -253 231v375h162v-363q0 -52 19.5 -77.5t71.5 -25.5q53 0 73 25.5t20 77.5v363h160v-375q0 -231 -253 -231z" />
    <glyph glyph-name="uacute.sc" horiz-adv-x="629" 
d="M226 660l88 157h154l-104 -157h-138zM314 -16q-253 0 -253 231v375h162v-363q0 -52 19.5 -77.5t71.5 -25.5q53 0 73 25.5t20 77.5v363h160v-375q0 -231 -253 -231z" />
    <glyph glyph-name="ubreve.sc" horiz-adv-x="629" 
d="M317 652q-174 0 -183 166h112q4 -42 21 -60t50 -18q32 0 49 18t21 60h110q-8 -166 -180 -166zM314 -16q-253 0 -253 231v375h162v-363q0 -52 19.5 -77.5t71.5 -25.5q53 0 73 25.5t20 77.5v363h160v-375q0 -231 -253 -231z" />
    <glyph glyph-name="ucircumflex.sc" horiz-adv-x="629" 
d="M125 660l100 158h182l99 -158h-138l-53 88l-51 -88h-139zM314 -16q-253 0 -253 231v375h162v-363q0 -52 19.5 -77.5t71.5 -25.5q53 0 73 25.5t20 77.5v363h160v-375q0 -231 -253 -231z" />
    <glyph glyph-name="udieresis.sc" horiz-adv-x="629" 
d="M212 659q-35 0 -58.5 22t-23.5 55q0 34 23.5 56.5t58.5 22.5q34 0 57.5 -22.5t23.5 -56.5q0 -33 -23.5 -55t-57.5 -22zM421 659q-35 0 -58.5 22t-23.5 55q0 34 23.5 56.5t58.5 22.5q34 0 57.5 -22.5t23.5 -56.5q0 -33 -23.5 -55t-57.5 -22zM314 -16q-253 0 -253 231v375
h162v-363q0 -52 19.5 -77.5t71.5 -25.5q53 0 73 25.5t20 77.5v363h160v-375q0 -231 -253 -231z" />
    <glyph glyph-name="ugrave.sc" horiz-adv-x="629" 
d="M406 660h-138l-104 157h154zM314 -16q-253 0 -253 231v375h162v-363q0 -52 19.5 -77.5t71.5 -25.5q53 0 73 25.5t20 77.5v363h160v-375q0 -231 -253 -231z" />
    <glyph glyph-name="uhungarumlaut.sc" horiz-adv-x="629" 
d="M160 660l94 158h130l-119 -158h-105zM339 660l93 158h130l-118 -158h-105zM314 -16q-253 0 -253 231v375h162v-363q0 -52 19.5 -77.5t71.5 -25.5q53 0 73 25.5t20 77.5v363h160v-375q0 -231 -253 -231z" />
    <glyph glyph-name="umacron.sc" horiz-adv-x="629" 
d="M163 686v99h305v-99h-305zM314 -16q-253 0 -253 231v375h162v-363q0 -52 19.5 -77.5t71.5 -25.5q53 0 73 25.5t20 77.5v363h160v-375q0 -231 -253 -231z" />
    <glyph glyph-name="uogonek.sc" horiz-adv-x="629" 
d="M407 590h160v-375q0 -139 -97 -207q-37 -26 -55.5 -46.5t-18.5 -43.5q0 -32 36 -32q22 0 39 7v-86q-33 -13 -78 -13q-56 0 -89 24.5t-33 70.5q0 55 55 95h-12q-253 0 -253 231v375h162v-363q0 -52 19.5 -77.5t71.5 -25.5q53 0 73 25.5t20 77.5v363z" />
    <glyph glyph-name="uring.sc" horiz-adv-x="629" 
d="M315 639q-60 0 -97.5 34.5t-37.5 89.5q0 56 37 90t98 34q62 0 99.5 -34t37.5 -90q0 -55 -38 -89.5t-99 -34.5zM315 716q23 0 36.5 13t13.5 34q0 22 -13.5 35.5t-36.5 13.5q-22 0 -35 -13.5t-13 -35.5q0 -21 13 -34t35 -13zM314 -16q-253 0 -253 231v375h162v-363
q0 -52 19.5 -77.5t71.5 -25.5q53 0 73 25.5t20 77.5v363h160v-375q0 -231 -253 -231z" />
    <glyph glyph-name="utilde.sc" horiz-adv-x="629" 
d="M396 659q-42 0 -83 28q-41 27 -60 27q-30 0 -32 -53h-89q2 81 27 120t76 39q37 0 84 -29q39 -26 59 -26q17 0 24 12.5t9 40.5h89q-2 -81 -27 -120t-77 -39zM314 -16q-253 0 -253 231v375h162v-363q0 -52 19.5 -77.5t71.5 -25.5q53 0 73 25.5t20 77.5v363h160v-375
q0 -231 -253 -231z" />
    <glyph glyph-name="v.sc" horiz-adv-x="605" 
d="M432 590h168l-217 -590h-160l-218 590h169l129 -392z" />
    <glyph glyph-name="w.sc" horiz-adv-x="829" 
d="M665 590h158l-159 -590h-166l-83 363l-84 -363h-165l-161 590h158l88 -353l80 353h168l79 -352z" />
    <glyph glyph-name="wacute.sc" horiz-adv-x="829" 
d="M567 817l-104 -157h-138l88 157h154zM665 590h158l-159 -590h-166l-83 363l-84 -363h-165l-161 590h158l88 -353l80 353h168l79 -352z" />
    <glyph glyph-name="wcircumflex.sc" horiz-adv-x="829" 
d="M414 748l-51 -88h-139l100 158h182l99 -158h-138zM665 590h158l-159 -590h-166l-83 363l-84 -363h-165l-161 590h158l88 -353l80 353h168l79 -352z" />
    <glyph glyph-name="wdieresis.sc" horiz-adv-x="829" 
d="M310 659q-35 0 -58.5 22t-23.5 55q0 34 23.5 56.5t58.5 22.5q34 0 57.5 -22.5t23.5 -56.5q0 -33 -23.5 -55t-57.5 -22zM519 659q-35 0 -58.5 22t-23.5 55q0 34 23.5 56.5t58.5 22.5q34 0 57.5 -22.5t23.5 -56.5q0 -33 -23.5 -55t-57.5 -22zM665 590h158l-159 -590h-166
l-83 363l-84 -363h-165l-161 590h158l88 -353l80 353h168l79 -352z" />
    <glyph glyph-name="wgrave.sc" horiz-adv-x="829" 
d="M505 660h-138l-104 157h154zM665 590h158l-159 -590h-166l-83 363l-84 -363h-165l-161 590h158l88 -353l80 353h168l79 -352z" />
    <glyph glyph-name="x.sc" horiz-adv-x="635" 
d="M5 0l216 319l-189 271h187l100 -151l99 151h187l-188 -276l213 -314h-189l-122 185l-124 -185h-190z" />
    <glyph glyph-name="y.sc" horiz-adv-x="543" 
d="M191 0v253l-186 337h173l94 -179l94 179h172l-187 -337v-253h-160z" />
    <glyph glyph-name="yacute.sc" horiz-adv-x="543" 
d="M182 660l88 157h154l-104 -157h-138zM191 0v253l-186 337h173l94 -179l94 179h172l-187 -337v-253h-160z" />
    <glyph glyph-name="ycircumflex.sc" horiz-adv-x="543" 
d="M81 660l100 158h182l99 -158h-138l-53 88l-51 -88h-139zM191 0v253l-186 337h173l94 -179l94 179h172l-187 -337v-253h-160z" />
    <glyph glyph-name="ydieresis.sc" horiz-adv-x="543" 
d="M167 659q-35 0 -58.5 22t-23.5 55q0 34 23.5 56.5t58.5 22.5q34 0 57.5 -22.5t23.5 -56.5q0 -33 -23.5 -55t-57.5 -22zM376 659q-35 0 -58.5 22t-23.5 55q0 34 23.5 56.5t58.5 22.5q34 0 57.5 -22.5t23.5 -56.5q0 -33 -23.5 -55t-57.5 -22zM191 0v253l-186 337h173
l94 -179l94 179h172l-187 -337v-253h-160z" />
    <glyph glyph-name="ygrave.sc" horiz-adv-x="543" 
d="M362 660h-138l-104 157h154zM191 0v253l-186 337h173l94 -179l94 179h172l-187 -337v-253h-160z" />
    <glyph glyph-name="z.sc" horiz-adv-x="548" 
d="M22 0l236 453h-221v137h466l-233 -454h246v-136h-494z" />
    <glyph glyph-name="zacute.sc" horiz-adv-x="548" 
d="M178 660l88 157h154l-104 -157h-138zM22 0l236 453h-221v137h466l-233 -454h246v-136h-494z" />
    <glyph glyph-name="zcaron.sc" horiz-adv-x="548" 
d="M459 818l-100 -158h-182l-99 158h138l52 -88l52 88h139zM22 0l236 453h-221v137h466l-233 -454h246v-136h-494z" />
    <glyph glyph-name="zdotaccent.sc" horiz-adv-x="548" 
d="M268 660q-37 0 -61.5 23.5t-24.5 58.5t24.5 59t61.5 24q36 0 60.5 -24t24.5 -59t-24.5 -58.5t-60.5 -23.5zM22 0l236 453h-221v137h466l-233 -454h246v-136h-494z" />
    <glyph glyph-name="m.sc.ss01" horiz-adv-x="784" 
d="M77 0v590h198l121 -200l116 200h196v-590h-157v393l-124 -210h-69l-126 210v-393h-155z" />
    <glyph glyph-name="q.sc.ss02" horiz-adv-x="673" 
d="M630 295q0 -192 -126 -269l56 -100l-141 -67l-63 125h-20q-148 0 -221 87t-73 224t73.5 223.5t220.5 86.5q149 0 221.5 -87t72.5 -223zM213 295q0 -37 5.5 -65.5t18 -54t38 -39t61.5 -13.5q124 0 124 172q0 171 -124 171q-71 0 -97 -46t-26 -125z" />
    <glyph glyph-name="oslash.sc.ss04" horiz-adv-x="673" 
d="M642 600l-72 -97q60 -80 60 -208q0 -89 -29 -157t-96.5 -111t-168.5 -43q-72 0 -124 21l-64 -92l-116 78l71 95q-61 80 -61 209q0 137 73.5 223.5t220.5 86.5q71 0 125 -21l67 93zM336 123q124 0 124 172q0 171 -124 171q-71 0 -97 -46t-26 -125q0 -37 5.5 -65.5t18 -54
t38 -39t61.5 -13.5z" />
    <glyph glyph-name="A.subs" horiz-adv-x="435" 
d="M303 -120l-16 57h-139l-16 -57h-128l121 388h185l121 -388h-128zM176 32h83l-41 144h-1z" />
    <glyph glyph-name="B.subs" horiz-adv-x="411" 
d="M306 92q81 -30 81 -100q0 -51 -35 -81.5t-100 -30.5h-195v388h196q59 0 89.5 -27t30.5 -68q0 -62 -67 -81zM181 190v-69h21q50 0 50 36q0 33 -51 33h-20zM201 -42q62 0 62 43q0 46 -61 46h-21v-89h20z" />
    <glyph glyph-name="C.subs" horiz-adv-x="445" 
d="M233 -131q-100 0 -151 57t-51 148t50.5 148t150.5 57q79 0 130 -46t53 -117h-130q0 26 -15.5 41.5t-42.5 15.5q-40 0 -52.5 -25t-12.5 -73q0 -51 12.5 -75t52.5 -24q57 0 60 49h130q-1 -68 -54 -112t-130 -44z" />
    <glyph glyph-name="D.subs" horiz-adv-x="460" 
d="M57 -120v388h176q100 0 147.5 -53t47.5 -141q0 -89 -47.5 -141.5t-147.5 -52.5h-176zM181 -19h30q50 0 68 23.5t18 69.5t-18 70t-68 24h-30v-187z" />
    <glyph glyph-name="E.subs" horiz-adv-x="366" 
d="M57 -120v388h268v-94h-144v-51h143v-94h-143v-54h144v-95h-268z" />
    <glyph glyph-name="F.subs" horiz-adv-x="341" 
d="M57 -120v388h252v-94h-128v-58h126v-94h-126v-142h-124z" />
    <glyph glyph-name="G.subs" horiz-adv-x="446" 
d="M225 99h189v-29q0 -87 -44.5 -144t-137.5 -57q-101 0 -151 57.5t-50 147.5t50.5 147.5t150.5 57.5q76 0 126 -41t54 -107h-123q-6 46 -60 46q-41 0 -54 -25.5t-13 -77.5q0 -56 14 -80.5t59 -24.5q54 0 61 44h-71v86z" />
    <glyph glyph-name="H.subs" horiz-adv-x="479" 
d="M57 -120v388h124v-141h116v141h124v-388h-124v142h-116v-142h-124z" />
    <glyph glyph-name="I.subs" horiz-adv-x="239" 
d="M57 -120v388h124v-388h-124z" />
    <glyph glyph-name="J.subs" horiz-adv-x="255" 
d="M51 -122q-12 0 -36 2v113q5 -1 18 -1q30 0 41 10t11 39v227h124v-244q0 -73 -38 -109.5t-120 -36.5z" />
    <glyph glyph-name="K.subs" horiz-adv-x="456" 
d="M452 -120h-151l-120 163v-163h-124v388h124v-130l103 130h144l-142 -172z" />
    <glyph glyph-name="L.subs" horiz-adv-x="308" 
d="M57 -120v388h124v-279h112v-109h-236z" />
    <glyph glyph-name="M.subs" horiz-adv-x="575" 
d="M57 -120v388h137l94 -197l94 197h135v-388h-116v201l-93 -201h-41l-94 201v-201h-116z" />
    <glyph glyph-name="N.subs" horiz-adv-x="488" 
d="M57 -120v388h121l133 -201v201h119v-388h-121l-132 202v-202h-120z" />
    <glyph glyph-name="O.subs" horiz-adv-x="466" 
d="M233 -131q-101 0 -151.5 57.5t-50.5 147.5q0 91 51 148t151 57t150.5 -57.5t50.5 -147.5t-50.5 -147.5t-150.5 -57.5zM233 -25q71 0 71 99t-71 99q-43 0 -57 -26t-14 -73t14.5 -73t56.5 -26z" />
    <glyph glyph-name="P.subs" horiz-adv-x="393" 
d="M57 -120v388h185q135 0 135 -122q0 -133 -135 -133h-61v-133h-124zM181 96h22q52 0 52 46q0 43 -52 43h-22v-89z" />
    <glyph glyph-name="Q.subs" horiz-adv-x="466" 
d="M434 74q0 -111 -70 -166l42 -59l-79 -49l-46 73q-20 -4 -48 -4q-101 0 -151.5 57.5t-50.5 147.5q0 91 51 148t151 57t150.5 -57.5t50.5 -147.5zM162 74q0 -89 55 -98l-12 19l67 44l21 -29q11 23 11 64q0 99 -71 99q-43 0 -57 -26t-14 -73z" />
    <glyph glyph-name="R.subs" horiz-adv-x="419" 
d="M274 -120l-90 134h-3v-134h-124v388h185q135 0 135 -121q0 -93 -66 -120l100 -147h-137zM204 185h-23v-93h23q24 0 35 10.5t11 36.5q0 25 -11 35.5t-35 10.5z" />
    <glyph glyph-name="S.subs" horiz-adv-x="391" 
d="M195 -131q-84 0 -128 34t-44 90h137q0 -30 38 -30q33 0 33 23q0 14 -18 24.5t-75 30.5q-54 19 -79.5 45.5t-25.5 68.5q0 56 42.5 90t118.5 34q75 0 115 -31.5t40 -87.5h-129q0 29 -32 29q-30 0 -30 -21q0 -12 16.5 -21.5t67.5 -24.5q62 -19 94 -47.5t32 -77.5
q0 -59 -45.5 -93.5t-127.5 -34.5z" />
    <glyph glyph-name="T.subs" horiz-adv-x="335" 
d="M106 -120v288h-91v100h305v-100h-90v-288h-124z" />
    <glyph glyph-name="U.subs" horiz-adv-x="446" 
d="M222 -131q-176 0 -176 158v241h124v-231q0 -31 11 -46t41 -15q32 0 43.5 15t11.5 46v231h122v-241q0 -158 -177 -158z" />
    <glyph glyph-name="V.subs" horiz-adv-x="421" 
d="M289 268h128l-145 -388h-122l-146 388h130l78 -236z" />
    <glyph glyph-name="W.subs" horiz-adv-x="568" 
d="M443 268h121l-105 -388h-127l-47 214l-48 -214h-126l-107 388h121l53 -217l47 217h120l46 -217z" />
    <glyph glyph-name="X.subs" horiz-adv-x="441" 
d="M4 -120l142 211l-124 177h143l56 -84l57 84h142l-123 -181l140 -207h-144l-72 108l-72 -108h-145z" />
    <glyph glyph-name="Y.subs" horiz-adv-x="376" 
d="M126 -120v166l-122 222h132l53 -100l53 100h130l-122 -222v-166h-124z" />
    <glyph glyph-name="Z.subs" horiz-adv-x="379" 
d="M16 -120l143 284h-133v104h321l-142 -284h150v-104h-339z" />
    <glyph glyph-name="a.subs" horiz-adv-x="391" 
d="M191 194q86 0 120.5 -34t34.5 -106v-174h-117v30q-31 -38 -96 -38q-54 0 -81.5 25.5t-27.5 69.5q0 57 41.5 80t125.5 23h38v4q0 21 -7.5 31t-29.5 10q-34 0 -36 -24h-121q6 103 156 103zM183 -47q46 0 46 50v5h-30q-27 0 -38.5 -6t-11.5 -22q0 -27 34 -27z" />
    <glyph glyph-name="b.subs" horiz-adv-x="408" 
d="M249 194q68 0 100.5 -45.5t32.5 -117.5q0 -69 -33 -114t-100 -45q-58 0 -88 37v-29h-114v424h118v-143q30 33 84 33zM209 -30q30 0 39 15.5t9 45.5q0 32 -9.5 47.5t-38.5 15.5q-46 0 -46 -51v-22q0 -51 46 -51z" />
    <glyph glyph-name="c.subs" horiz-adv-x="383" 
d="M193 -128q-82 0 -124.5 44.5t-42.5 114.5q0 73 42.5 118t124.5 45q71 0 115.5 -34t47.5 -95h-128q-3 29 -35 29q-25 0 -34 -16t-9 -47t9 -46t34 -15q16 0 25.5 9.5t9.5 21.5h128q-3 -62 -47.5 -95.5t-115.5 -33.5z" />
    <glyph glyph-name="d.subs" horiz-adv-x="408" 
d="M243 304h118v-424h-114v29q-30 -37 -88 -37q-67 0 -100 45t-33 114q0 72 32.5 117.5t100.5 45.5q53 0 84 -33v143zM245 21v22q0 51 -46 51q-29 0 -38.5 -15.5t-9.5 -47.5q0 -15 1.5 -24t5.5 -18.5t14.5 -14t26.5 -4.5q46 0 46 51z" />
    <glyph glyph-name="e.subs" horiz-adv-x="386" 
d="M196 -50q38 0 41 25h120q-3 -48 -48 -75.5t-110 -27.5q-87 0 -130 43t-43 118q0 72 41.5 116.5t123.5 44.5q56 0 96.5 -22.5t57.5 -62.5q15 -35 15 -106h-212q2 -27 12.5 -40t35.5 -13zM193 115q-22 0 -32 -11t-12 -36h90q-3 24 -13.5 35.5t-32.5 11.5z" />
    <glyph glyph-name="f.subs" horiz-adv-x="235" 
d="M45 -120v210h-33v95h33v18q0 60 29.5 86.5t98.5 26.5q30 0 50 -6v-85q-16 4 -28 4q-34 0 -34 -30v-14h60v-95h-60v-210h-116z" />
    <glyph glyph-name="g.subs" horiz-adv-x="408" 
d="M247 185h114v-285q0 -149 -165 -149q-66 0 -110 25t-53 74h124q10 -21 37 -21q49 0 49 49v37q-31 -39 -90 -39q-65 0 -96 45.5t-31 114.5q0 70 31.5 114t95.5 44q61 0 94 -44v35zM242 21v23q0 50 -47 50q-28 0 -36 -14.5t-8 -44.5q0 -32 8.5 -48t36.5 -16q46 0 46 50z
" />
    <glyph glyph-name="h.subs" horiz-adv-x="402" 
d="M254 194q49 0 76.5 -28.5t27.5 -80.5v-205h-117v178q0 36 -37 36q-39 0 -39 -40v-174h-118v424h118v-151q34 41 89 41z" />
    <glyph glyph-name="i.subs" horiz-adv-x="212" 
d="M105 214q-26 0 -43.5 16.5t-17.5 41.5t17.5 42t43.5 17t43.5 -17t17.5 -42t-17.5 -41.5t-43.5 -16.5zM47 -120v305h117v-305h-117z" />
    <glyph glyph-name="j.subs" horiz-adv-x="212" 
d="M106 214q-26 0 -43.5 16.5t-17.5 41.5t17.5 42t43.5 17t43.5 -17t17.5 -42t-17.5 -41.5t-43.5 -16.5zM49 -242q-26 0 -47 3v102q7 -2 20 -2q25 0 25 24v300h118v-315q0 -59 -27.5 -85.5t-88.5 -26.5z" />
    <glyph glyph-name="k.subs" horiz-adv-x="385" 
d="M396 -120h-151l-80 115v-115h-118v424h118v-211l71 92h146l-116 -140z" />
    <glyph glyph-name="l.subs" horiz-adv-x="212" 
d="M47 -120v424h117v-424h-117z" />
    <glyph glyph-name="m.subs" horiz-adv-x="585" 
d="M440 194q101 0 101 -111v-203h-117v176q0 38 -35 38q-37 0 -37 -43v-171h-116v176q0 38 -36 38q-35 0 -35 -43v-171h-118v305h118v-32q32 41 90 41q68 0 88 -46q34 46 97 46z" />
    <glyph glyph-name="n.subs" horiz-adv-x="402" 
d="M254 194q49 0 76.5 -28.5t27.5 -80.5v-205h-117v178q0 36 -37 36q-39 0 -39 -40v-174h-118v305h118v-32q34 41 89 41z" />
    <glyph glyph-name="o.subs" horiz-adv-x="392" 
d="M196 -128q-84 0 -127 45t-43 116q0 72 43 116.5t127 44.5q85 0 127.5 -45t42.5 -116q0 -73 -43 -117t-127 -44zM196 -30q20 0 31 9.5t13 21t2 32.5q0 32 -8.5 46.5t-37.5 14.5q-28 0 -36.5 -14.5t-8.5 -46.5q0 -33 8.5 -48t36.5 -15z" />
    <glyph glyph-name="p.subs" horiz-adv-x="408" 
d="M249 194q68 0 100.5 -45.5t32.5 -115.5t-33 -115.5t-100 -45.5q-55 0 -84 32v-145h-118v426h114v-29q31 38 88 38zM209 -28q30 0 39 15.5t9 45.5q0 31 -9.5 46t-38.5 15q-46 0 -46 -50v-21q0 -51 46 -51z" />
    <glyph glyph-name="q.subs" horiz-adv-x="408" 
d="M247 185h114v-426h-118v146q-29 -33 -84 -33q-67 0 -100 45.5t-33 115.5t32.5 115.5t100.5 45.5q57 0 88 -38v29zM199 -28q46 0 46 51v21q0 50 -46 50q-29 0 -38.5 -15t-9.5 -46q0 -15 1.5 -24t5.5 -18.5t14.5 -14t26.5 -4.5z" />
    <glyph glyph-name="r.subs" horiz-adv-x="282" 
d="M239 190q19 0 32 -5v-104q-10 3 -30 3q-76 0 -76 -92v-112h-118v305h116v-39q28 44 76 44z" />
    <glyph glyph-name="s.subs" horiz-adv-x="339" 
d="M169 -132q-72 0 -108 29.5t-36 81.5h116q0 -30 27 -30q22 0 22 15q0 11 -12 17.5t-44 15.5q-50 14 -74 35t-24 61q0 49 35 75t99 26q63 0 97 -25.5t34 -72.5h-111q0 25 -23 25q-19 0 -19 -15q0 -9 11.5 -14.5t49.5 -16.5q55 -16 80 -37.5t25 -61.5q0 -54 -38.5 -81
t-106.5 -27z" />
    <glyph glyph-name="t.subs" horiz-adv-x="247" 
d="M154 -126q-58 0 -83 24t-25 83v109h-37v95h37v70h117v-70h63v-95h-63v-89q0 -31 33 -31q13 0 29 3v-92q-39 -7 -71 -7z" />
    <glyph glyph-name="u.subs" horiz-adv-x="402" 
d="M237 185h118v-305h-118v32q-33 -41 -89 -41q-50 0 -77 28t-27 80v206h117v-178q0 -37 37 -37q39 0 39 41v174z" />
    <glyph glyph-name="v.subs" horiz-adv-x="371" 
d="M117 -120l-109 305h127l51 -167l50 167h127l-109 -305h-137z" />
    <glyph glyph-name="w.subs" horiz-adv-x="548" 
d="M413 185h126l-110 -305h-111l-45 152l-44 -152h-112l-109 305h125l42 -152l50 152h95l50 -153z" />
    <glyph glyph-name="x.subs" horiz-adv-x="391" 
d="M5 -120l120 158l-116 147h140l47 -70l47 70h138l-114 -147l119 -158h-137l-53 75l-54 -75h-137z" />
    <glyph glyph-name="y.subs" horiz-adv-x="369" 
d="M237 185h124l-166 -425h-119l48 120l-116 305h128l51 -174z" />
    <glyph glyph-name="z.subs" horiz-adv-x="317" 
d="M313 185l-126 -211h118v-94h-301l133 210h-119v95h295z" />
    <glyph glyph-name="A.sups" horiz-adv-x="435" 
d="M303 438l-16 57h-139l-16 -57h-128l121 388h185l121 -388h-128zM176 590h83l-41 144h-1z" />
    <glyph glyph-name="B.sups" horiz-adv-x="411" 
d="M306 650q81 -30 81 -100q0 -51 -35 -81.5t-100 -30.5h-195v388h196q59 0 89.5 -27t30.5 -68q0 -62 -67 -81zM181 748v-69h21q50 0 50 36q0 33 -51 33h-20zM201 516q62 0 62 43q0 46 -61 46h-21v-89h20z" />
    <glyph glyph-name="C.sups" horiz-adv-x="445" 
d="M233 427q-100 0 -151 57t-51 148t50.5 148t150.5 57q79 0 130 -46t53 -117h-130q0 26 -15.5 41.5t-42.5 15.5q-40 0 -52.5 -25t-12.5 -73q0 -51 12.5 -75t52.5 -24q57 0 60 49h130q-1 -68 -54 -112t-130 -44z" />
    <glyph glyph-name="D.sups" horiz-adv-x="460" 
d="M57 438v388h176q100 0 147.5 -53t47.5 -141q0 -89 -47.5 -141.5t-147.5 -52.5h-176zM181 539h30q50 0 68 23.5t18 69.5t-18 70t-68 24h-30v-187z" />
    <glyph glyph-name="E.sups" horiz-adv-x="366" 
d="M57 438v388h268v-94h-144v-51h143v-94h-143v-54h144v-95h-268z" />
    <glyph glyph-name="F.sups" horiz-adv-x="341" 
d="M57 438v388h252v-94h-128v-58h126v-94h-126v-142h-124z" />
    <glyph glyph-name="G.sups" horiz-adv-x="446" 
d="M225 657h189v-29q0 -87 -44.5 -144t-137.5 -57q-101 0 -151 57.5t-50 147.5t50.5 147.5t150.5 57.5q76 0 126 -41t54 -107h-123q-6 46 -60 46q-41 0 -54 -25.5t-13 -77.5q0 -56 14 -80.5t59 -24.5q54 0 61 44h-71v86z" />
    <glyph glyph-name="H.sups" horiz-adv-x="479" 
d="M57 438v388h124v-141h116v141h124v-388h-124v142h-116v-142h-124z" />
    <glyph glyph-name="I.sups" horiz-adv-x="239" 
d="M57 438v388h124v-388h-124z" />
    <glyph glyph-name="J.sups" horiz-adv-x="255" 
d="M51 436q-12 0 -36 2v113q5 -1 18 -1q30 0 41 10t11 39v227h124v-244q0 -73 -38 -109.5t-120 -36.5z" />
    <glyph glyph-name="K.sups" horiz-adv-x="456" 
d="M452 438h-151l-120 163v-163h-124v388h124v-130l103 130h144l-142 -172z" />
    <glyph glyph-name="L.sups" horiz-adv-x="308" 
d="M57 438v388h124v-279h112v-109h-236z" />
    <glyph glyph-name="M.sups" horiz-adv-x="575" 
d="M57 438v388h137l94 -197l94 197h135v-388h-116v201l-93 -201h-41l-94 201v-201h-116z" />
    <glyph glyph-name="N.sups" horiz-adv-x="488" 
d="M57 438v388h121l133 -201v201h119v-388h-121l-132 202v-202h-120z" />
    <glyph glyph-name="O.sups" horiz-adv-x="466" 
d="M233 427q-101 0 -151.5 57.5t-50.5 147.5q0 91 51 148t151 57t150.5 -57.5t50.5 -147.5t-50.5 -147.5t-150.5 -57.5zM233 533q71 0 71 99t-71 99q-43 0 -57 -26t-14 -73t14.5 -73t56.5 -26z" />
    <glyph glyph-name="P.sups" horiz-adv-x="393" 
d="M57 438v388h185q135 0 135 -122q0 -133 -135 -133h-61v-133h-124zM181 654h22q52 0 52 46q0 43 -52 43h-22v-89z" />
    <glyph glyph-name="Q.sups" horiz-adv-x="466" 
d="M434 632q0 -111 -70 -166l42 -59l-79 -49l-46 73q-20 -4 -48 -4q-101 0 -151.5 57.5t-50.5 147.5q0 91 51 148t151 57t150.5 -57.5t50.5 -147.5zM162 632q0 -89 55 -98l-12 19l67 44l21 -29q11 23 11 64q0 99 -71 99q-43 0 -57 -26t-14 -73z" />
    <glyph glyph-name="R.sups" horiz-adv-x="419" 
d="M274 438l-90 134h-3v-134h-124v388h185q135 0 135 -121q0 -93 -66 -120l100 -147h-137zM204 743h-23v-93h23q24 0 35 10.5t11 36.5q0 25 -11 35.5t-35 10.5z" />
    <glyph glyph-name="S.sups" horiz-adv-x="391" 
d="M195 427q-84 0 -128 34t-44 90h137q0 -30 38 -30q33 0 33 23q0 14 -18 24.5t-75 30.5q-54 19 -79.5 45.5t-25.5 68.5q0 56 42.5 90t118.5 34q75 0 115 -31.5t40 -87.5h-129q0 29 -32 29q-30 0 -30 -21q0 -12 16.5 -21.5t67.5 -24.5q62 -19 94 -47.5t32 -77.5
q0 -59 -45.5 -93.5t-127.5 -34.5z" />
    <glyph glyph-name="T.sups" horiz-adv-x="335" 
d="M106 438v288h-91v100h305v-100h-90v-288h-124z" />
    <glyph glyph-name="U.sups" horiz-adv-x="446" 
d="M222 427q-176 0 -176 158v241h124v-231q0 -31 11 -46t41 -15q32 0 43.5 15t11.5 46v231h122v-241q0 -158 -177 -158z" />
    <glyph glyph-name="V.sups" horiz-adv-x="421" 
d="M289 826h128l-145 -388h-122l-146 388h130l78 -236z" />
    <glyph glyph-name="W.sups" horiz-adv-x="568" 
d="M443 826h121l-105 -388h-127l-47 214l-48 -214h-126l-107 388h121l53 -217l47 217h120l46 -217z" />
    <glyph glyph-name="X.sups" horiz-adv-x="441" 
d="M4 438l142 211l-124 177h143l56 -84l57 84h142l-123 -181l140 -207h-144l-72 108l-72 -108h-145z" />
    <glyph glyph-name="Y.sups" horiz-adv-x="376" 
d="M126 438v166l-122 222h132l53 -100l53 100h130l-122 -222v-166h-124z" />
    <glyph glyph-name="Z.sups" horiz-adv-x="379" 
d="M16 438l143 284h-133v104h321l-142 -284h150v-104h-339z" />
    <glyph glyph-name="a.sups" horiz-adv-x="391" 
d="M191 752q86 0 120.5 -34t34.5 -106v-174h-117v30q-31 -38 -96 -38q-54 0 -81.5 25.5t-27.5 69.5q0 57 41.5 80t125.5 23h38v4q0 21 -7.5 31t-29.5 10q-34 0 -36 -24h-121q6 103 156 103zM183 511q46 0 46 50v5h-30q-27 0 -38.5 -6t-11.5 -22q0 -27 34 -27z" />
    <glyph glyph-name="b.sups" horiz-adv-x="408" 
d="M249 752q68 0 100.5 -45.5t32.5 -117.5q0 -69 -33 -114t-100 -45q-58 0 -88 37v-29h-114v424h118v-143q30 33 84 33zM209 528q30 0 39 15.5t9 45.5q0 32 -9.5 47.5t-38.5 15.5q-46 0 -46 -51v-22q0 -51 46 -51z" />
    <glyph glyph-name="c.sups" horiz-adv-x="383" 
d="M193 430q-82 0 -124.5 44.5t-42.5 114.5q0 73 42.5 118t124.5 45q71 0 115.5 -34t47.5 -95h-128q-3 29 -35 29q-25 0 -34 -16t-9 -47t9 -46t34 -15q16 0 25.5 9.5t9.5 21.5h128q-3 -62 -47.5 -95.5t-115.5 -33.5z" />
    <glyph glyph-name="d.sups" horiz-adv-x="408" 
d="M243 862h118v-424h-114v29q-30 -37 -88 -37q-67 0 -100 45t-33 114q0 72 32.5 117.5t100.5 45.5q54 0 84 -33v143zM245 579v22q0 51 -46 51q-29 0 -38.5 -15.5t-9.5 -47.5q0 -30 9 -45.5t39 -15.5q46 0 46 51z" />
    <glyph glyph-name="e.sups" horiz-adv-x="386" 
d="M196 508q38 0 41 25h120q-3 -48 -48 -75.5t-110 -27.5q-87 0 -130 43t-43 118q0 72 41.5 116.5t123.5 44.5q56 0 96.5 -22.5t57.5 -62.5q15 -35 15 -106h-212q2 -27 12.5 -40t35.5 -13zM193 673q-22 0 -32 -11t-12 -36h90q-3 24 -13.5 35.5t-32.5 11.5z" />
    <glyph glyph-name="f.sups" horiz-adv-x="235" 
d="M45 438v210h-33v95h33v18q0 60 29.5 86.5t98.5 26.5q30 0 50 -6v-85q-16 4 -28 4q-34 0 -34 -30v-14h60v-95h-60v-210h-116z" />
    <glyph glyph-name="g.sups" horiz-adv-x="408" 
d="M247 743h114v-285q0 -149 -165 -149q-66 0 -110 25t-53 74h124q10 -21 37 -21q49 0 49 49v37q-31 -39 -90 -39q-65 0 -96 45.5t-31 114.5q0 70 31.5 114t95.5 44q61 0 94 -44v35zM242 579v23q0 50 -47 50q-28 0 -36 -14.5t-8 -44.5q0 -32 8.5 -48t36.5 -16q46 0 46 50z
" />
    <glyph glyph-name="h.sups" horiz-adv-x="402" 
d="M254 752q49 0 76.5 -28.5t27.5 -80.5v-205h-117v178q0 36 -37 36q-39 0 -39 -40v-174h-118v424h118v-151q34 41 89 41z" />
    <glyph glyph-name="i.sups" horiz-adv-x="212" 
d="M105 772q-26 0 -43.5 16.5t-17.5 41.5t17.5 42t43.5 17t43.5 -17t17.5 -42t-17.5 -41.5t-43.5 -16.5zM47 438v305h117v-305h-117z" />
    <glyph glyph-name="j.sups" horiz-adv-x="212" 
d="M106 772q-26 0 -43.5 16.5t-17.5 41.5t17.5 42t43.5 17t43.5 -17t17.5 -42t-17.5 -41.5t-43.5 -16.5zM49 316q-26 0 -47 3v102q7 -2 20 -2q25 0 25 24v300h118v-315q0 -59 -27.5 -85.5t-88.5 -26.5z" />
    <glyph glyph-name="k.sups" horiz-adv-x="385" 
d="M396 438h-151l-80 115v-115h-118v424h118v-211l71 92h146l-116 -140z" />
    <glyph glyph-name="l.sups" horiz-adv-x="212" 
d="M47 438v424h117v-424h-117z" />
    <glyph glyph-name="m.sups" horiz-adv-x="585" 
d="M440 752q101 0 101 -111v-203h-117v176q0 38 -35 38q-37 0 -37 -43v-171h-116v176q0 38 -36 38q-35 0 -35 -43v-171h-118v305h118v-32q32 41 90 41q68 0 88 -46q34 46 97 46z" />
    <glyph glyph-name="n.sups" horiz-adv-x="402" 
d="M254 752q49 0 76.5 -28.5t27.5 -80.5v-205h-117v178q0 36 -37 36q-39 0 -39 -40v-174h-118v305h118v-32q34 41 89 41z" />
    <glyph glyph-name="o.sups" horiz-adv-x="392" 
d="M196 430q-84 0 -127 45t-43 116q0 72 43 116.5t127 44.5q85 0 127.5 -45t42.5 -116q0 -73 -43 -117t-127 -44zM196 528q20 0 31 9.5t13 21t2 32.5q0 32 -8.5 46.5t-37.5 14.5q-28 0 -36.5 -14.5t-8.5 -46.5q0 -33 8.5 -48t36.5 -15z" />
    <glyph glyph-name="p.sups" horiz-adv-x="408" 
d="M249 752q68 0 100.5 -45.5t32.5 -115.5t-33 -115.5t-100 -45.5q-55 0 -84 32v-145h-118v426h114v-29q31 38 88 38zM209 530q30 0 39 15.5t9 45.5q0 31 -9.5 46t-38.5 15q-46 0 -46 -50v-21q0 -51 46 -51z" />
    <glyph glyph-name="q.sups" horiz-adv-x="408" 
d="M247 743h114v-426h-118v145q-29 -32 -84 -32q-67 0 -100 45.5t-33 115.5t32.5 115.5t100.5 45.5q57 0 88 -38v29zM199 530q46 0 46 51v21q0 50 -46 50q-29 0 -38.5 -15t-9.5 -46q0 -30 9 -45.5t39 -15.5z" />
    <glyph glyph-name="r.sups" horiz-adv-x="282" 
d="M239 748q19 0 32 -5v-104q-10 3 -30 3q-76 0 -76 -92v-112h-118v305h116v-39q28 44 76 44z" />
    <glyph glyph-name="s.sups" horiz-adv-x="339" 
d="M169 426q-72 0 -108 29.5t-36 81.5h116q0 -30 27 -30q22 0 22 15q0 11 -12 17.5t-44 15.5q-50 14 -74 35t-24 61q0 49 35 75t99 26q63 0 97 -25.5t34 -72.5h-111q0 25 -23 25q-19 0 -19 -15q0 -9 11.5 -14.5t49.5 -16.5q55 -16 80 -37.5t25 -61.5q0 -54 -38.5 -81
t-106.5 -27z" />
    <glyph glyph-name="t.sups" horiz-adv-x="247" 
d="M154 432q-58 0 -83 24t-25 83v109h-37v95h37v70h117v-70h63v-95h-63v-89q0 -31 33 -31q13 0 29 3v-92q-38 -7 -71 -7z" />
    <glyph glyph-name="u.sups" horiz-adv-x="402" 
d="M237 743h118v-305h-118v32q-33 -41 -89 -41q-50 0 -77 28t-27 80v206h117v-178q0 -37 37 -37q39 0 39 41v174z" />
    <glyph glyph-name="v.sups" horiz-adv-x="371" 
d="M117 438l-109 305h127l51 -167l50 167h127l-109 -305h-137z" />
    <glyph glyph-name="w.sups" horiz-adv-x="548" 
d="M413 743h126l-110 -305h-111l-45 152l-44 -152h-112l-109 305h125l42 -152l50 152h95l50 -153z" />
    <glyph glyph-name="x.sups" horiz-adv-x="391" 
d="M5 438l120 158l-116 147h140l47 -70l47 70h138l-114 -147l119 -158h-137l-53 75l-54 -75h-137z" />
    <glyph glyph-name="y.sups" horiz-adv-x="369" 
d="M237 743h124l-166 -425h-119l48 120l-116 305h128l51 -174z" />
    <glyph glyph-name="z.sups" horiz-adv-x="317" 
d="M313 743l-126 -211h118v-94h-301l133 210h-119v95h295z" />
    <glyph glyph-name="zero.lf" horiz-adv-x="684" 
d="M341 -18q-291 0 -291 371t291 371q292 0 292 -371t-292 -371zM341 126q29 0 50 7t34 23.5t20.5 32.5t10.5 47t4 53t1 64q0 50 -1.5 77.5t-7.5 60.5t-18.5 49.5t-35.5 28t-57 11.5q-29 0 -49.5 -7t-33.5 -23.5t-20.5 -32.5t-10.5 -47t-4 -53t-1 -64q0 -50 1 -77t7.5 -60.5
t18.5 -50t35 -28t57 -11.5z" />
    <glyph glyph-name="one.lf" horiz-adv-x="397" 
d="M142 0v557h-114l32 149h245v-706h-163z" />
    <glyph glyph-name="two.lf" horiz-adv-x="598" 
d="M19 0v3l285 342q45 52 63.5 85.5t18.5 67.5q0 39 -22.5 63t-68.5 24q-99 0 -99 -127h-159q0 124 64 195t198 71q126 0 192 -62.5t66 -166.5q0 -51 -17 -91.5t-59 -87.5q-71 -78 -169 -173h253v-143h-546z" />
    <glyph glyph-name="three.lf" horiz-adv-x="599" 
d="M431 371q132 -36 132 -173q0 -96 -67 -156t-201 -60q-151 0 -212.5 70t-61.5 207h156q0 -69 23.5 -106t86.5 -37q104 0 104 98q0 52 -30.5 76t-93.5 24h-22v110h21q116 0 116 86q0 91 -96 91q-94 0 -100 -101h-153q0 109 68 166.5t196 57.5q121 0 185 -55.5t64 -143.5
q0 -115 -115 -154z" />
    <glyph glyph-name="four.lf" horiz-adv-x="679" 
d="M661 283v-137h-95v-146h-162v146h-400v3l263 557h299v-423h95zM240 283h164v368h-1z" />
    <glyph glyph-name="five.lf" horiz-adv-x="598" 
d="M304 -18q-148 0 -210.5 70.5t-62.5 199.5h158q0 -66 23.5 -101t81.5 -35q104 0 104 110q0 72 -49.5 104t-150.5 32q-71 0 -134 -11l59 355h420l-30 -140h-259l-19 -110q40 10 89 10q121 0 182 -66t61 -173q0 -110 -66 -177.5t-197 -67.5z" />
    <glyph glyph-name="six.lf" horiz-adv-x="670" 
d="M403 467q115 0 172.5 -63t57.5 -166q0 -114 -72.5 -185t-207.5 -71q-83 0 -143.5 28.5t-94.5 80t-49.5 114t-15.5 140.5q0 81 16 147t50 119.5t95 83t144 29.5q113 0 183.5 -54.5t84.5 -151.5h-158q-20 80 -109 80q-141 0 -141 -216q59 85 188 85zM351 114q57 0 85 33
t28 85q0 53 -28 85.5t-84 32.5q-58 0 -86.5 -33.5t-28.5 -85.5t29 -84.5t85 -32.5z" />
    <glyph glyph-name="seven.lf" horiz-adv-x="578" 
d="M78 0l243 557h-294v149h535l-301 -706h-183z" />
    <glyph glyph-name="eight.lf" horiz-adv-x="638" 
d="M467 382q68 -19 101.5 -68t33.5 -113q0 -101 -73 -160t-210 -59q-139 0 -210.5 59.5t-71.5 159.5q0 66 34 114.5t101 66.5q-56 15 -87 57t-31 97q0 87 69.5 137.5t195.5 50.5q125 0 195 -50t70 -138q0 -57 -30.5 -98t-86.5 -56zM319 615q-51 0 -76 -25t-25 -67
q0 -44 26.5 -68.5t74.5 -24.5q50 0 75.5 26t25.5 67q0 42 -26 67t-75 25zM319 106q54 0 82.5 28t28.5 74q0 45 -28.5 75t-82.5 30q-53 0 -82 -29t-29 -75q0 -48 28.5 -75.5t82.5 -27.5z" />
    <glyph glyph-name="nine.lf" horiz-adv-x="666" 
d="M316 726q84 0 144.5 -28.5t94 -80t49 -114t15.5 -140.5q0 -81 -15.5 -147t-49.5 -119.5t-95 -83t-144 -29.5q-113 0 -183.5 54.5t-84.5 151.5h158q20 -80 109 -80q141 0 141 216q-59 -85 -188 -85q-115 0 -172.5 63t-57.5 166q0 114 72.5 185t206.5 71zM317 358
q59 0 87.5 33.5t28.5 85.5t-29 84.5t-85 32.5q-57 0 -85 -33t-28 -85q0 -53 28 -85.5t83 -32.5z" />
    <glyph glyph-name="zero.dnom" horiz-adv-x="441" 
d="M221 -11q-181 0 -181 205t181 205q180 0 180 -205t-180 -205zM221 95q15 0 25 4.5t15.5 11t8 21.5t3 26.5t0.5 35.5q0 56 -9 77.5t-43 21.5q-15 0 -25 -4.5t-15.5 -11t-8 -21.5t-3 -26.5t-0.5 -35.5q0 -57 8.5 -78t43.5 -21z" />
    <glyph glyph-name="one.dnom" horiz-adv-x="291" 
d="M92 0v278h-70l20 110h175v-388h-125z" />
    <glyph glyph-name="two.dnom" horiz-adv-x="388" 
d="M15 0v6l179 191q26 29 35 43t9 28q0 36 -42 36q-48 0 -48 -49h-120q0 66 42.5 105t125.5 39q79 0 120.5 -33.5t41.5 -95.5q0 -50 -39 -89q-37 -37 -84 -73h127v-108h-347z" />
    <glyph glyph-name="three.dnom" horiz-adv-x="376" 
d="M280 202q71 -20 71 -93q0 -57 -44 -88.5t-125 -31.5q-89 0 -127 39.5t-38 117.5l109 -1q0 -63 52 -63q48 0 48 42q0 37 -57 37h-12v75h12q53 0 53 36q0 34 -42 34q-46 0 -46 -47h-110q0 67 43 103.5t122 36.5q72 0 112.5 -31t40.5 -84q0 -58 -62 -82z" />
    <glyph glyph-name="four.dnom" horiz-adv-x="430" 
d="M239 0v69h-236v2l142 317h212v-218h59v-101h-59v-69h-118zM167 170h72v179z" />
    <glyph glyph-name="five.dnom" horiz-adv-x="393" 
d="M197 -11q-85 0 -129 40t-44 111l118 -1q0 -57 53 -57q47 0 47 45q0 58 -123 58q-40 0 -77 -5l38 208h266l-14 -89h-153l-8 -47q25 5 55 5q71 0 107 -35t36 -92q0 -65 -45.5 -103t-126.5 -38z" />
    <glyph glyph-name="six.dnom" horiz-adv-x="431" 
d="M260 254q67 0 104.5 -33t37.5 -88q0 -63 -47 -103.5t-131 -40.5q-190 0 -190 203q0 207 191 207q141 0 167 -123h-115q-12 34 -51 34q-69 0 -69 -92q34 36 103 36zM222 79q24 0 36.5 12.5t12.5 32.5q0 46 -49 46q-50 0 -50 -46q0 -45 50 -45z" />
    <glyph glyph-name="seven.dnom" horiz-adv-x="378" 
d="M47 0l129 280h-154v108h343l-180 -388h-138z" />
    <glyph glyph-name="eight.dnom" horiz-adv-x="396" 
d="M298 209q73 -18 73 -94q0 -62 -45 -94t-128 -32t-128.5 32t-45.5 94q0 76 75 94q-32 10 -49 32.5t-17 52.5q0 48 45 76.5t120 28.5t120.5 -28.5t45.5 -76.5q0 -30 -17.5 -52.5t-48.5 -32.5zM198 323q-45 0 -45 -39q0 -38 45 -38t45 38q0 39 -45 39zM198 76q50 0 50 43
q0 42 -50 42q-49 0 -49 -42q0 -43 49 -43z" />
    <glyph glyph-name="nine.dnom" horiz-adv-x="431" 
d="M207 399q190 0 190 -203q0 -207 -190 -207q-142 0 -168 123h115q12 -34 51 -34q69 0 69 92q-34 -36 -103 -36q-67 0 -104.5 33t-37.5 88q0 63 47 103.5t131 40.5zM209 218q50 0 50 46q0 45 -50 45q-24 0 -36.5 -12.5t-12.5 -32.5q0 -46 49 -46z" />
    <glyph glyph-name="zero.numr" horiz-adv-x="441" 
d="M221 307q-181 0 -181 205t181 205q180 0 180 -205t-180 -205zM221 413q15 0 25 4.5t15.5 11t8 21.5t3 26.5t0.5 35.5q0 56 -9 77.5t-43 21.5q-15 0 -25 -4.5t-15.5 -11t-8 -21.5t-3 -26.5t-0.5 -35.5q0 -57 8.5 -78t43.5 -21z" />
    <glyph glyph-name="one.numr" horiz-adv-x="291" 
d="M92 318v278h-70l20 110h175v-388h-125z" />
    <glyph glyph-name="two.numr" horiz-adv-x="388" 
d="M15 318v6l179 191q26 29 35 43t9 28q0 36 -42 36q-48 0 -48 -49h-120q0 66 42.5 105t125.5 39q79 0 120.5 -33.5t41.5 -95.5q0 -50 -39 -89q-37 -37 -84 -73h127v-108h-347z" />
    <glyph glyph-name="three.numr" horiz-adv-x="376" 
d="M280 520q71 -20 71 -93q0 -57 -44 -88.5t-125 -31.5q-89 0 -127 39.5t-38 117.5l109 -1q0 -63 52 -63q48 0 48 42q0 37 -57 37h-12v75h12q53 0 53 36q0 34 -42 34q-46 0 -46 -47h-110q0 67 43 103.5t122 36.5q72 0 112.5 -31t40.5 -84q0 -58 -62 -82z" />
    <glyph glyph-name="four.numr" horiz-adv-x="430" 
d="M239 318v69h-236v2l142 317h212v-218h59v-101h-59v-69h-118zM167 488h72v179z" />
    <glyph glyph-name="five.numr" horiz-adv-x="393" 
d="M197 307q-85 0 -129 40t-44 111l118 -1q0 -57 53 -57q47 0 47 45q0 58 -123 58q-40 0 -77 -5l38 208h266l-14 -89h-153l-8 -47q25 5 55 5q71 0 107 -35t36 -92q0 -65 -45.5 -103t-126.5 -38z" />
    <glyph glyph-name="six.numr" horiz-adv-x="431" 
d="M260 572q67 0 104.5 -33t37.5 -88q0 -63 -47 -103.5t-131 -40.5q-190 0 -190 203q0 207 191 207q141 0 167 -123h-115q-12 34 -51 34q-69 0 -69 -92q34 36 103 36zM222 397q24 0 36.5 12.5t12.5 32.5q0 46 -49 46q-50 0 -50 -46q0 -45 50 -45z" />
    <glyph glyph-name="seven.numr" horiz-adv-x="378" 
d="M47 318l129 280h-154v108h343l-180 -388h-138z" />
    <glyph glyph-name="eight.numr" horiz-adv-x="396" 
d="M298 527q73 -18 73 -94q0 -62 -45 -94t-128 -32t-128.5 32t-45.5 94q0 76 75 94q-32 10 -49 32.5t-17 52.5q0 48 45 76.5t120 28.5t120.5 -28.5t45.5 -76.5q0 -30 -17.5 -52.5t-48.5 -32.5zM198 641q-45 0 -45 -39q0 -38 45 -38t45 38q0 39 -45 39zM198 394q50 0 50 43
q0 42 -50 42q-49 0 -49 -42q0 -43 49 -43z" />
    <glyph glyph-name="nine.numr" horiz-adv-x="431" 
d="M207 717q190 0 190 -203q0 -207 -190 -207q-142 0 -168 123h115q12 -34 51 -34q69 0 69 92q-34 -36 -103 -36q-67 0 -104.5 33t-37.5 88q0 63 47 103.5t131 40.5zM209 536q50 0 50 46q0 45 -50 45q-24 0 -36.5 -12.5t-12.5 -32.5q0 -46 49 -46z" />
    <glyph glyph-name="zero.sc" horiz-adv-x="625" 
d="M311 -16q-72 0 -123.5 23t-79.5 66.5t-40.5 97.5t-12.5 124q0 145 58.5 227.5t197.5 82.5q258 0 258 -310q0 -311 -258 -311zM311 125q23 0 39 4.5t26 16t15.5 22t8 33.5t3 38t0.5 47v9v38.5t-1 33t-3.5 30t-6.5 23t-11 20t-16.5 12.5t-23 9.5t-30.5 2.5q-26 0 -43.5 -8
t-27 -18.5t-14 -35.5t-5 -42.5t-0.5 -55.5v-9q0 -99 11 -127q18 -43 79 -43z" />
    <glyph glyph-name="one.sc" horiz-adv-x="386" 
d="M128 0v444h-97l31 146h223v-590h-157z" />
    <glyph glyph-name="two.sc" horiz-adv-x="541" 
d="M21 0v3l248 294q36 42 50 67t14 50q0 24 -16.5 39.5t-51.5 15.5q-75 0 -75 -89h-153q0 106 56.5 165.5t175.5 59.5q112 0 170.5 -52.5t58.5 -141.5q0 -78 -59 -140q-64 -66 -138 -131h204v-140h-484z" />
    <glyph glyph-name="three.sc" horiz-adv-x="541" 
d="M390 310q111 -31 111 -143q0 -81 -59 -132t-177 -51q-134 0 -188 59t-54 176h150q0 -50 18 -77t66 -27q78 0 78 68q0 71 -94 71h-20v106h19q89 0 89 60q0 66 -74 66q-69 0 -75 -64h-147q0 90 60.5 136.5t172.5 46.5q107 0 164 -47.5t57 -122.5q0 -92 -97 -125z" />
    <glyph glyph-name="four.sc" horiz-adv-x="611" 
d="M591 246v-134h-81v-112h-157v112h-349v2l216 476h290v-344h81zM231 246h122v291h-1z" />
    <glyph glyph-name="five.sc" horiz-adv-x="542" 
d="M276 -16q-131 0 -186.5 60.5t-55.5 172.5h153q0 -50 17 -76t63 -26q78 0 78 76q0 57 -42 79.5t-128 22.5q-58 0 -111 -5l51 302h375l-29 -138h-218l-15 -67q32 7 73 7q103 0 155 -55t52 -144q0 -94 -58 -151.5t-174 -57.5z" />
    <glyph glyph-name="six.sc" horiz-adv-x="611" 
d="M372 392q100 0 149 -52t49 -138q0 -98 -64.5 -158t-183.5 -60q-74 0 -127 23.5t-82.5 66.5t-43 95.5t-13.5 117.5q0 69 14 124.5t44.5 100t84 69t126.5 24.5q100 0 162 -45.5t75 -126.5h-152q-17 50 -84 50q-112 0 -112 -156q51 65 158 65zM320 113q45 0 65.5 23t20.5 60
q0 39 -21 61.5t-64 22.5q-45 0 -66.5 -23.5t-21.5 -60.5q0 -39 22 -61t65 -22z" />
    <glyph glyph-name="seven.sc" horiz-adv-x="526" 
d="M71 0l205 444h-246v146h478l-260 -590h-177z" />
    <glyph glyph-name="eight.sc" horiz-adv-x="579" 
d="M426 320q57 -16 85 -56.5t28 -92.5q0 -86 -64.5 -136.5t-185.5 -50.5q-122 0 -185 50.5t-63 136.5q0 54 28.5 94t84.5 55q-46 13 -72.5 47.5t-26.5 78.5q0 74 61.5 116.5t172.5 42.5q110 0 172.5 -42t62.5 -117q0 -47 -25.5 -80t-72.5 -46zM289 499q-75 0 -75 -66
q0 -67 75 -67q38 0 57.5 18.5t19.5 48.5q0 31 -19.5 48.5t-57.5 17.5zM289 104q41 0 62.5 21t21.5 53q0 31 -22 53.5t-62 22.5t-61.5 -21.5t-21.5 -53.5q0 -75 83 -75z" />
    <glyph glyph-name="nine.sc" horiz-adv-x="611" 
d="M288 605q74 0 127.5 -23.5t83 -66.5t43 -95.5t13.5 -117.5q0 -145 -63.5 -231.5t-205.5 -86.5q-100 0 -162 45.5t-75 126.5h152q17 -50 84 -50q110 0 112 155q-52 -65 -158 -65q-100 0 -149 52t-49 138q0 99 64 159t183 60zM289 308q45 0 66.5 23.5t21.5 61.5
q0 39 -21.5 61t-64.5 22q-45 0 -66 -23t-21 -60q0 -39 21 -62t64 -23z" />
    <glyph glyph-name="colon.case" horiz-adv-x="363" 
d="M163 429q-43 0 -70.5 27t-27.5 69q0 43 27.5 70t70.5 27t70.5 -27t27.5 -70q0 -42 -27.5 -69t-70.5 -27zM163 95q-43 0 -70.5 27t-27.5 69q0 43 27.5 70t70.5 27t70.5 -27t27.5 -70q0 -42 -27.5 -69t-70.5 -27z" />
    <glyph glyph-name="semicolon.case" horiz-adv-x="367" 
d="M205 429q-43 0 -70.5 27t-27.5 69q0 43 27.5 70t70.5 27q44 0 71.5 -27t27.5 -70q0 -42 -28 -69t-71 -27zM47 -63l66 337h150l-102 -337h-114z" />
    <glyph glyph-name="exclamdown.case" horiz-adv-x="326" 
d="M163 720q43 0 70.5 -27t27.5 -70q0 -42 -27.5 -69t-70.5 -27t-70.5 27t-27.5 69q0 43 27.5 70t70.5 27zM227 475l23 -479h-174l24 479h127z" />
    <glyph glyph-name="questiondown.case" horiz-adv-x="537" 
d="M283 725q43 0 70.5 -27t27.5 -70q0 -42 -27.5 -69t-70.5 -27t-71 27t-28 69q0 43 27.5 70t71.5 27zM365 480q-104 -170 -131 -222.5t-27 -87.5q0 -64 69 -64q43 0 57 21.5t14 61.5h155q0 -206 -234 -206q-108 0 -169 47.5t-61 133.5q0 45 27 100.5t125 215.5h175z" />
    <glyph glyph-name="periodcentered.case" horiz-adv-x="326" 
d="M163 279q-43 0 -70.5 27t-27.5 69t27.5 69t70.5 27t70.5 -27t27.5 -69t-27.5 -69t-70.5 -27z" />
    <glyph glyph-name="periodcentered.loclCAT.case" horiz-adv-x="93" 
d="M-37 318q-43 0 -70.5 27t-27.5 69t27.5 69.5t70.5 27.5t71 -27.5t28 -69.5t-28 -69t-71 -27z" />
    <glyph glyph-name="slash.case" horiz-adv-x="515" 
d="M28 -50l316 806h156l-316 -806h-156z" />
    <glyph glyph-name="periodcentered.loclCAT" horiz-adv-x="193" 
d="M97 240q-43 0 -71 27t-28 69t28 69t71 27t70.5 -27t27.5 -69t-27.5 -69t-70.5 -27z" />
    <glyph glyph-name="parenleft.case" horiz-adv-x="425" 
d="M240 -142q-68 121 -102 236.5t-34 258.5q0 144 34 259.5t102 236.5h140q-138 -239 -138 -496q0 -258 138 -495h-140z" />
    <glyph glyph-name="parenright.case" horiz-adv-x="425" 
d="M185 -142h-141q138 237 138 495q0 257 -138 496h141q68 -121 102 -236.5t34 -259.5q0 -143 -34 -258.5t-102 -236.5z" />
    <glyph glyph-name="braceleft.case" horiz-adv-x="402" 
d="M271 479q0 -59 -21.5 -88.5t-68.5 -37.5q47 -8 68.5 -37t21.5 -87v-165q0 -50 19 -71.5t74 -21.5h11v-113h-64q-82 0 -124 47.5t-42 126.5v166q0 51 -20 70.5t-73 19.5v130q52 0 72.5 20t20.5 70v166q0 80 42 127.5t124 47.5h64v-113h-11q-55 0 -74 -21t-19 -72v-164z
" />
    <glyph glyph-name="braceright.case" horiz-adv-x="402" 
d="M257 508q0 -50 20.5 -70t72.5 -20v-130q-53 0 -73 -19.5t-20 -70.5v-166q0 -79 -42.5 -126.5t-123.5 -47.5h-64v113h10q55 0 74 21.5t19 71.5v165q0 58 21.5 87t69.5 37q-48 8 -69.5 37.5t-21.5 88.5v164q0 51 -19 72t-74 21h-10v113h64q81 0 123.5 -47.5t42.5 -127.5
v-166z" />
    <glyph glyph-name="bracketleft.case" horiz-adv-x="394" 
d="M130 -142v991h237v-120h-103v-751h103v-120h-237z" />
    <glyph glyph-name="bracketright.case" horiz-adv-x="394" 
d="M264 -142h-237v120h103v751h-103v120h237v-991z" />
    <glyph glyph-name="hyphen.case" horiz-adv-x="410" 
d="M56 302v133h298v-133h-298z" />
    <glyph glyph-name="uni00AD.case" horiz-adv-x="410" 
d="M56 302v133h298v-133h-298z" />
    <glyph glyph-name="endash.case" horiz-adv-x="502" 
d="M56 304v133h390v-133h-390z" />
    <glyph glyph-name="emdash.case" horiz-adv-x="970" 
d="M56 304v133h858v-133h-858z" />
    <glyph glyph-name="guillemotleft.case" horiz-adv-x="599" 
d="M164 198l-143 166l143 165h161l-144 -165l144 -166h-161zM421 198l-143 166l143 165h161l-144 -165l144 -166h-161z" />
    <glyph glyph-name="guillemotright.case" horiz-adv-x="599" 
d="M178 198h-161l144 166l-144 165h161l143 -165zM435 198h-161l144 166l-144 165h161l143 -165z" />
    <glyph glyph-name="guilsinglleft.case" horiz-adv-x="343" 
d="M164 198l-143 166l143 165h161l-144 -165l144 -166h-161z" />
    <glyph glyph-name="guilsinglright.case" horiz-adv-x="343" 
d="M178 198h-161l144 166l-144 165h161l143 -165z" />
    <glyph glyph-name="periodcentered.loclCAT.sc" horiz-adv-x="118" 
d="M-1 274q-43 0 -70.5 27t-27.5 69t27.5 69t70.5 27t70.5 -27t27.5 -69t-27.5 -69t-70.5 -27z" />
    <glyph glyph-name="slash.sc" horiz-adv-x="521" 
d="M48 -50l270 690h155l-269 -690h-156z" />
    <glyph glyph-name="cent.ss06" horiz-adv-x="572" 
d="M290 223q34 0 53.5 21t20.5 52h173q-4 -83 -54.5 -134.5t-133.5 -65.5v-96h-112v95q-101 15 -151.5 85.5t-50.5 172.5q0 104 51 175t151 86v92h112v-93q84 -14 134 -66t54 -134h-173q-2 35 -21.5 54t-52.5 19q-88 0 -88 -133q0 -130 88 -130z" />
    <glyph glyph-name="dollar.ss06" horiz-adv-x="634" 
d="M600 214q0 -95 -57 -155t-163 -73v-99h-122v98q-113 13 -169 75.5t-56 156.5h185q0 -51 22.5 -79t78.5 -28q48 0 73 21.5t25 57.5q0 41 -37 63t-152 60q-90 30 -134.5 75t-44.5 121q0 85 54.5 142.5t154.5 70.5v97h121v-99q93 -15 141 -73.5t48 -146.5h-173
q0 48 -19.5 75t-69.5 27q-42 0 -64.5 -19.5t-22.5 -50.5q0 -37 36 -56.5t139 -50.5q108 -32 157 -77.5t49 -132.5z" />
    <glyph glyph-name="paragraph.ss07" horiz-adv-x="744" 
d="M301 -201v468h-55q-225 0 -225 221q0 105 55 161.5t180 56.5h468v-128h-67v-779h-139v779h-80v-779h-137zM254 393h47v187h-47q-54 0 -75 -22t-21 -70q0 -49 22 -72t74 -23z" />
    <glyph glyph-name="caroncomb.alt" 
d="M-134 534l23 172h132l-40 -172h-115z" />
    <glyph glyph-name="uni0335.Eth" 
d="M-366 305v105h366v-105h-366z" />
    <glyph glyph-name="uni0335.Tbar" 
d="M-438 278v100h388v-100h-388z" />
    <glyph glyph-name="caron.alt" horiz-adv-x="255" 
d="M50 534l23 172h132l-40 -172h-115z" />
    <glyph glyph-name="uni0308.case" 
d="M-350 770q-34 0 -56.5 21.5t-22.5 53.5q0 33 22.5 54.5t56.5 21.5q33 0 56 -21.5t23 -54.5q0 -32 -23 -53.5t-56 -21.5zM-129 770q-34 0 -56.5 21.5t-22.5 53.5q0 33 22.5 54.5t56.5 21.5t56.5 -21.5t22.5 -54.5q0 -32 -22.5 -53.5t-56.5 -21.5z" />
    <glyph glyph-name="uni0307.case" 
d="M-133 772q-38 0 -61.5 22.5t-23.5 58.5q0 35 24 57t61 22q36 0 59.5 -22.5t23.5 -56.5q0 -36 -23.5 -58.5t-59.5 -22.5z" />
    <glyph glyph-name="gravecomb.case" 
d="M-50 772h-145l-110 142h160z" />
    <glyph glyph-name="acutecomb.case" 
d="M-305 772l95 142h160l-110 -142h-145z" />
    <glyph glyph-name="uni030B.case" 
d="M-455 772l94 142h132l-119 -142h-107zM-275 772l93 142h132l-118 -142h-107z" />
    <glyph glyph-name="uni0302.case" 
d="M-435 772l104 142h178l103 -142h-140l-53 72l-52 -72h-140z" />
    <glyph glyph-name="uni030C.case" 
d="M-435 914h140l52 -72l53 72h140l-103 -142h-178z" />
    <glyph glyph-name="uni0306.case" 
d="M-225 765q-83 0 -128 38t-50 111h109q7 -63 69 -63q32 0 48.5 14.5t24.5 48.5h102q-8 -149 -175 -149z" />
    <glyph glyph-name="uni030A.case" 
d="M-187 738q-60 0 -97.5 34.5t-37.5 89.5q0 56 37 90t98 34q62 0 99.5 -34t37.5 -90q0 -55 -38 -89.5t-99 -34.5zM-187 815q23 0 36.5 13t13.5 34q0 22 -13.5 35.5t-36.5 13.5q-22 0 -35 -13.5t-13 -35.5q0 -21 13 -34t35 -13z" />
    <glyph glyph-name="tildecomb.case" 
d="M-155 768q-38 0 -86 25q-48 24 -69 24q-33 0 -38 -48h-83q6 146 109 146q43 0 88 -29q33 -20 57 -20q19 0 27.5 11.5t14.5 37.5h85q-5 -147 -105 -147z" />
    <glyph glyph-name="uni0304.case" 
d="M-364 794v100h314v-100h-314z" />
    <glyph glyph-name="uni0337.case" 
d="M-209 422l209 140v-125l-209 -139v28l-140 -92v123l140 93v-28z" />
    <glyph glyph-name="uni0338.case" 
d="M-808 0l180 193l7 -1l360 395l7 -1l112 120h102l-179 -192h-8l-360 -395l-6 1l-112 -120h-103z" />
    <glyph glyph-name="uni0308.narrow.case" 
d="M-300 771q-32 0 -53 21.5t-21 53.5t21.5 54t52.5 22q32 0 53.5 -22t21.5 -54t-21.5 -53.5t-53.5 -21.5zM-125 771q-32 0 -52.5 21t-20.5 53q0 33 20.5 55t52.5 22t53.5 -22t21.5 -55q0 -32 -21.5 -53t-53.5 -21z" />
    <glyph glyph-name="uni0302.narrow.case" 
d="M-393 772l83 142h175l85 -142h-131l-41 73l-40 -73h-131z" />
    <glyph glyph-name="uni0306.narrow.case" 
d="M-204 765q-76 0 -115.5 38t-39.5 111h105q3 -34 14 -48t36 -14q24 0 35 14t13 48h106q0 -73 -39 -111t-115 -38z" />
    <glyph glyph-name="tildecomb.narrow.case" 
d="M-145 769q-33 0 -64 25q-33 24 -48 24q-25 0 -28 -47h-77q4 143 96 143q33 0 67 -28q24 -20 37 -20q15 0 21.5 10.5t10.5 37.5h80q-3 -75 -26 -110t-69 -35z" />
    <glyph glyph-name="uni0304.narrow.case" 
d="M-318 793v100h268v-100h-268z" />
    <glyph glyph-name="uni0335.dh" 
d="M-366 286v91h366v-91h-366z" />
    <glyph glyph-name="uni0307.i" 
d="M-135 570q-37 0 -61.5 23.5t-24.5 58.5t24.5 59t61.5 24q36 0 60.5 -24t24.5 -59t-24.5 -58.5t-60.5 -23.5z" />
    <glyph glyph-name="uni0308.narrow" 
d="M-272 574q-31 0 -49.5 20t-18.5 54t18.5 54t49.5 20t49.5 -20t18.5 -54t-18.5 -54t-49.5 -20zM-118 574q-31 0 -49.5 20t-18.5 54t18.5 54t49.5 20t49.5 -20t18.5 -54t-18.5 -54t-49.5 -20z" />
    <glyph glyph-name="gravecomb.narrow" 
d="M-50 570h-132l-93 157h153z" />
    <glyph glyph-name="acutecomb.narrow" 
d="M-275 570l72 157h153l-92 -157h-133z" />
    <glyph glyph-name="uni0302.narrow" 
d="M-349 570l75 158h150l74 -158h-112l-37 85l-38 -85h-112z" />
    <glyph glyph-name="uni030C.narrow" 
d="M-349 689h112l38 -85l37 85h112l-74 -158h-150z" />
    <glyph glyph-name="uni0306.narrow" 
d="M-195 561q-145 0 -145 167h98q0 -44 11 -61t36 -17q24 0 35.5 17t11.5 61h98q-2 -167 -145 -167z" />
    <glyph glyph-name="tildecomb.narrow" 
d="M-138 569q-39 0 -70 35q-21 21 -31 21q-23 0 -24 -54h-83q2 83 21 121t65 38q38 0 71 -35q18 -21 31 -21t18 13t6 41h84q-2 -84 -21 -121.5t-67 -37.5z" />
    <glyph glyph-name="uni0304.narrow" 
d="M-305 596v99h255v-99h-255z" />
    <glyph glyph-name="uni0328.narrow" 
d="M-118 -214q-51 0 -81.5 22.5t-30.5 64.5q0 78 78 129l101 -2q-54 -56 -54 -98q0 -24 26 -24q15 0 29 7v-87q-30 -12 -68 -12z" />
    <glyph glyph-name="uni0338.sc" horiz-adv-x="707" 
d="M40 0l163 179l-1 -5l275 316l-1 2l92 98h99l-163 -179l1 5l-275 -314l1 -3l-91 -99h-100z" />
    <glyph glyph-name="uni0338.ss04.sc" horiz-adv-x="690" 
d="M506 407l-72 129l102 141l114 -77zM156 -87l-116 78l145 194l71 -129z" />
    <glyph glyph-name="uni0338.ss04" 
d="M-165 334l-60 132l72 114l113 -65zM-432 -82l-114 65l125 182l59 -133z" />
    <glyph glyph-name="uni0338.case.ss04" 
d="M-205 501l-82 125l130 169l117 -91zM-637 -90l-118 91l165 204l82 -125z" />
    </font>
</defs>
</svg>
